M48
; DRILL file {KiCad 9.0.2} date 2025-06-19T13:53:24-0400
; FORMAT={-:-/ absolute / metric / decimal}
; #@! TF.CreationDate,2025-06-19T13:53:24-04:00
; #@! TF.GenerationSoftware,Kicad,Pcbnew,9.0.2
; #@! TF.FileFunction,Plated,1,2,PTH
FMAT,2
METRIC
; #@! TA.AperFunction,Plated,PTH,ViaDrill
T1C0.300
; #@! TA.AperFunction,Plated,PTH,ViaDrill
T2C0.500
; #@! TA.AperFunction,Plated,PTH,ViaDrill
T3C1.000
; #@! TA.AperFunction,Plated,PTH,ComponentDrill
T4C2.500
%
G90
G05
T1
X139.5Y-105.0
X142.091Y-96.128
X142.109Y-97.977
X142.115Y-108.085
X142.115Y-106.196
X142.143Y-101.884
X142.149Y-110.103
X142.153Y-114.019
X142.168Y-103.89
X142.174Y-99.872
X142.174Y-112.109
X143.885Y-96.097
X143.956Y-114.011
X145.801Y-96.085
X145.863Y-113.976
X147.511Y-96.075
X147.573Y-113.966
X148.5Y-116.5
X148.518Y-93.719
X149.332Y-96.083
X149.394Y-113.974
X151.042Y-96.073
X151.104Y-113.964
X152.997Y-96.095
X153.059Y-113.986
X154.786Y-96.055
X154.803Y-97.938
X154.809Y-106.157
X154.837Y-101.845
X154.843Y-110.064
X154.848Y-113.946
X154.862Y-103.85
X154.868Y-99.833
X154.868Y-112.07
X154.874Y-108.053
X157.5Y-105.0
T2
X131.913Y-103.637
X131.913Y-104.637
X131.913Y-105.637
X131.913Y-106.637
X131.913Y-107.637
X131.913Y-108.637
X131.915Y-101.632
X131.915Y-102.637
X133.961Y-96.679
X134.539Y-112.945
X140.139Y-119.212
X141.367Y-91.011
X144.922Y-121.491
X145.183Y-88.497
X145.927Y-121.491
X146.183Y-88.497
X146.927Y-121.493
X147.183Y-88.497
X147.927Y-121.493
X148.183Y-88.497
X148.927Y-121.493
X149.183Y-88.497
X149.927Y-121.493
X150.183Y-88.497
X150.927Y-121.493
X151.183Y-88.498
X151.927Y-121.493
X152.183Y-88.498
X155.922Y-91.345
X156.5Y-119.0
X162.367Y-97.211
X162.856Y-112.766
X165.13Y-107.69
X165.13Y-108.695
X165.132Y-101.69
X165.132Y-102.69
X165.132Y-103.69
X165.132Y-104.69
X165.132Y-105.69
X165.132Y-106.69
T3
X148.46Y-104.95
T4
X137.012Y-93.458
X137.082Y-116.325
X159.868Y-116.343
X159.911Y-93.462
M30
