%TF.GenerationSoftware,KiCad,Pcbnew,9.0.2*%
%TF.CreationDate,2025-06-19T13:53:20-04:00*%
%TF.ProjectId,GlassIDC_Mounted_10x15mm,476c6173-7349-4444-935f-4d6f756e7465,rev?*%
%TF.SameCoordinates,Original*%
%TF.FileFunction,Soldermask,Bot*%
%TF.FilePolarity,Negative*%
%FSLAX46Y46*%
G04 Gerber Fmt 4.6, Leading zero omitted, Abs format (unit mm)*
G04 Created by KiCad (PCBNEW 9.0.2) date 2025-06-19 13:53:20*
%MOMM*%
%LPD*%
G01*
G04 APERTURE LIST*
%ADD10C,0.200000*%
%ADD11C,1.773427*%
%ADD12C,5.000000*%
G04 APERTURE END LIST*
D10*
X131660000Y-105380000D02*
X132549000Y-105380000D01*
X132549000Y-105888000D01*
X131660000Y-105888000D01*
X131660000Y-105380000D01*
G36*
X131660000Y-105380000D02*
G01*
X132549000Y-105380000D01*
X132549000Y-105888000D01*
X131660000Y-105888000D01*
X131660000Y-105380000D01*
G37*
X164500000Y-104440000D02*
X165389000Y-104440000D01*
X165389000Y-104948000D01*
X164500000Y-104948000D01*
X164500000Y-104440000D01*
G36*
X164500000Y-104440000D02*
G01*
X165389000Y-104440000D01*
X165389000Y-104948000D01*
X164500000Y-104948000D01*
X164500000Y-104440000D01*
G37*
X150662000Y-120875500D02*
X151170000Y-120875500D01*
X151170000Y-121764500D01*
X150662000Y-121764500D01*
X150662000Y-120875500D01*
G36*
X150662000Y-120875500D02*
G01*
X151170000Y-120875500D01*
X151170000Y-121764500D01*
X150662000Y-121764500D01*
X150662000Y-120875500D01*
G37*
D11*
X137970139Y-93660000D02*
G75*
G02*
X136196713Y-93660000I-886713J0D01*
G01*
X136196713Y-93660000D02*
G75*
G02*
X137970139Y-93660000I886713J0D01*
G01*
D10*
X164520000Y-101430000D02*
X165409000Y-101430000D01*
X165409000Y-101938000D01*
X164520000Y-101938000D01*
X164520000Y-101430000D01*
G36*
X164520000Y-101430000D02*
G01*
X165409000Y-101430000D01*
X165409000Y-101938000D01*
X164520000Y-101938000D01*
X164520000Y-101430000D01*
G37*
X164500000Y-108440000D02*
X165389000Y-108440000D01*
X165389000Y-108948000D01*
X164500000Y-108948000D01*
X164500000Y-108440000D01*
G36*
X164500000Y-108440000D02*
G01*
X165389000Y-108440000D01*
X165389000Y-108948000D01*
X164500000Y-108948000D01*
X164500000Y-108440000D01*
G37*
X145672000Y-120875500D02*
X146180000Y-120875500D01*
X146180000Y-121764500D01*
X145672000Y-121764500D01*
X145672000Y-120875500D01*
G36*
X145672000Y-120875500D02*
G01*
X146180000Y-120875500D01*
X146180000Y-121764500D01*
X145672000Y-121764500D01*
X145672000Y-120875500D01*
G37*
X164510000Y-102450000D02*
X165399000Y-102450000D01*
X165399000Y-102958000D01*
X164510000Y-102958000D01*
X164510000Y-102450000D01*
G36*
X164510000Y-102450000D02*
G01*
X165399000Y-102450000D01*
X165399000Y-102958000D01*
X164510000Y-102958000D01*
X164510000Y-102450000D01*
G37*
X164510000Y-105440000D02*
X165399000Y-105440000D01*
X165399000Y-105948000D01*
X164510000Y-105948000D01*
X164510000Y-105440000D01*
G36*
X164510000Y-105440000D02*
G01*
X165399000Y-105440000D01*
X165399000Y-105948000D01*
X164510000Y-105948000D01*
X164510000Y-105440000D01*
G37*
D11*
X160760139Y-116460000D02*
G75*
G02*
X158986713Y-116460000I-886713J0D01*
G01*
X158986713Y-116460000D02*
G75*
G02*
X160760139Y-116460000I886713J0D01*
G01*
D10*
X131660000Y-107380000D02*
X132549000Y-107380000D01*
X132549000Y-107888000D01*
X131660000Y-107888000D01*
X131660000Y-107380000D01*
G36*
X131660000Y-107380000D02*
G01*
X132549000Y-107380000D01*
X132549000Y-107888000D01*
X131660000Y-107888000D01*
X131660000Y-107380000D01*
G37*
X151940000Y-88241000D02*
X152448000Y-88241000D01*
X152448000Y-89130000D01*
X151940000Y-89130000D01*
X151940000Y-88241000D01*
G36*
X151940000Y-88241000D02*
G01*
X152448000Y-88241000D01*
X152448000Y-89130000D01*
X151940000Y-89130000D01*
X151940000Y-88241000D01*
G37*
X148930000Y-88221000D02*
X149438000Y-88221000D01*
X149438000Y-89110000D01*
X148930000Y-89110000D01*
X148930000Y-88221000D01*
G36*
X148930000Y-88221000D02*
G01*
X149438000Y-88221000D01*
X149438000Y-89110000D01*
X148930000Y-89110000D01*
X148930000Y-88221000D01*
G37*
X146940000Y-88211000D02*
X147448000Y-88211000D01*
X147448000Y-89100000D01*
X146940000Y-89100000D01*
X146940000Y-88211000D01*
G36*
X146940000Y-88211000D02*
G01*
X147448000Y-88211000D01*
X147448000Y-89100000D01*
X146940000Y-89100000D01*
X146940000Y-88211000D01*
G37*
D11*
X160796713Y-93493426D02*
G75*
G02*
X159023287Y-93493426I-886713J0D01*
G01*
X159023287Y-93493426D02*
G75*
G02*
X160796713Y-93493426I886713J0D01*
G01*
D10*
X164520000Y-103430000D02*
X165409000Y-103430000D01*
X165409000Y-103938000D01*
X164520000Y-103938000D01*
X164520000Y-103430000D01*
G36*
X164520000Y-103430000D02*
G01*
X165409000Y-103430000D01*
X165409000Y-103938000D01*
X164520000Y-103938000D01*
X164520000Y-103430000D01*
G37*
X144672000Y-120865500D02*
X145180000Y-120865500D01*
X145180000Y-121754500D01*
X144672000Y-121754500D01*
X144672000Y-120865500D01*
G36*
X144672000Y-120865500D02*
G01*
X145180000Y-120865500D01*
X145180000Y-121754500D01*
X144672000Y-121754500D01*
X144672000Y-120865500D01*
G37*
X148672000Y-120865500D02*
X149180000Y-120865500D01*
X149180000Y-121754500D01*
X148672000Y-121754500D01*
X148672000Y-120865500D01*
G36*
X148672000Y-120865500D02*
G01*
X149180000Y-120865500D01*
X149180000Y-121754500D01*
X148672000Y-121754500D01*
X148672000Y-120865500D01*
G37*
X147930000Y-88231000D02*
X148438000Y-88231000D01*
X148438000Y-89120000D01*
X147930000Y-89120000D01*
X147930000Y-88231000D01*
G36*
X147930000Y-88231000D02*
G01*
X148438000Y-88231000D01*
X148438000Y-89120000D01*
X147930000Y-89120000D01*
X147930000Y-88231000D01*
G37*
X131640000Y-106370000D02*
X132529000Y-106370000D01*
X132529000Y-106878000D01*
X131640000Y-106878000D01*
X131640000Y-106370000D01*
G36*
X131640000Y-106370000D02*
G01*
X132529000Y-106370000D01*
X132529000Y-106878000D01*
X131640000Y-106878000D01*
X131640000Y-106370000D01*
G37*
X146682000Y-120855500D02*
X147190000Y-120855500D01*
X147190000Y-121744500D01*
X146682000Y-121744500D01*
X146682000Y-120855500D01*
G36*
X146682000Y-120855500D02*
G01*
X147190000Y-120855500D01*
X147190000Y-121744500D01*
X146682000Y-121744500D01*
X146682000Y-120855500D01*
G37*
X131650000Y-104380000D02*
X132539000Y-104380000D01*
X132539000Y-104888000D01*
X131650000Y-104888000D01*
X131650000Y-104380000D01*
G36*
X131650000Y-104380000D02*
G01*
X132539000Y-104380000D01*
X132539000Y-104888000D01*
X131650000Y-104888000D01*
X131650000Y-104380000D01*
G37*
X149940000Y-88241000D02*
X150448000Y-88241000D01*
X150448000Y-89130000D01*
X149940000Y-89130000D01*
X149940000Y-88241000D01*
G36*
X149940000Y-88241000D02*
G01*
X150448000Y-88241000D01*
X150448000Y-89130000D01*
X149940000Y-89130000D01*
X149940000Y-88241000D01*
G37*
X164510000Y-107440000D02*
X165399000Y-107440000D01*
X165399000Y-107948000D01*
X164510000Y-107948000D01*
X164510000Y-107440000D01*
G36*
X164510000Y-107440000D02*
G01*
X165399000Y-107440000D01*
X165399000Y-107948000D01*
X164510000Y-107948000D01*
X164510000Y-107440000D01*
G37*
X131660000Y-102390000D02*
X132549000Y-102390000D01*
X132549000Y-102898000D01*
X131660000Y-102898000D01*
X131660000Y-102390000D01*
G36*
X131660000Y-102390000D02*
G01*
X132549000Y-102390000D01*
X132549000Y-102898000D01*
X131660000Y-102898000D01*
X131660000Y-102390000D01*
G37*
X149682000Y-120885500D02*
X150190000Y-120885500D01*
X150190000Y-121774500D01*
X149682000Y-121774500D01*
X149682000Y-120885500D01*
G36*
X149682000Y-120885500D02*
G01*
X150190000Y-120885500D01*
X150190000Y-121774500D01*
X149682000Y-121774500D01*
X149682000Y-120885500D01*
G37*
X131650000Y-108380000D02*
X132539000Y-108380000D01*
X132539000Y-108888000D01*
X131650000Y-108888000D01*
X131650000Y-108380000D01*
G36*
X131650000Y-108380000D02*
G01*
X132539000Y-108380000D01*
X132539000Y-108888000D01*
X131650000Y-108888000D01*
X131650000Y-108380000D01*
G37*
X145930000Y-88231000D02*
X146438000Y-88231000D01*
X146438000Y-89120000D01*
X145930000Y-89120000D01*
X145930000Y-88231000D01*
G36*
X145930000Y-88231000D02*
G01*
X146438000Y-88231000D01*
X146438000Y-89120000D01*
X145930000Y-89120000D01*
X145930000Y-88231000D01*
G37*
X144930000Y-88221000D02*
X145438000Y-88221000D01*
X145438000Y-89110000D01*
X144930000Y-89110000D01*
X144930000Y-88221000D01*
G36*
X144930000Y-88221000D02*
G01*
X145438000Y-88221000D01*
X145438000Y-89110000D01*
X144930000Y-89110000D01*
X144930000Y-88221000D01*
G37*
X131670000Y-101370000D02*
X132559000Y-101370000D01*
X132559000Y-101878000D01*
X131670000Y-101878000D01*
X131670000Y-101370000D01*
G36*
X131670000Y-101370000D02*
G01*
X132559000Y-101370000D01*
X132559000Y-101878000D01*
X131670000Y-101878000D01*
X131670000Y-101370000D01*
G37*
X164490000Y-106430000D02*
X165379000Y-106430000D01*
X165379000Y-106938000D01*
X164490000Y-106938000D01*
X164490000Y-106430000D01*
G36*
X164490000Y-106430000D02*
G01*
X165379000Y-106430000D01*
X165379000Y-106938000D01*
X164490000Y-106938000D01*
X164490000Y-106430000D01*
G37*
X151682000Y-120885500D02*
X152190000Y-120885500D01*
X152190000Y-121774500D01*
X151682000Y-121774500D01*
X151682000Y-120885500D01*
G36*
X151682000Y-120885500D02*
G01*
X152190000Y-120885500D01*
X152190000Y-121774500D01*
X151682000Y-121774500D01*
X151682000Y-120885500D01*
G37*
X147672000Y-120875500D02*
X148180000Y-120875500D01*
X148180000Y-121764500D01*
X147672000Y-121764500D01*
X147672000Y-120875500D01*
G36*
X147672000Y-120875500D02*
G01*
X148180000Y-120875500D01*
X148180000Y-121764500D01*
X147672000Y-121764500D01*
X147672000Y-120875500D01*
G37*
X150920000Y-88231000D02*
X151428000Y-88231000D01*
X151428000Y-89120000D01*
X150920000Y-89120000D01*
X150920000Y-88231000D01*
G36*
X150920000Y-88231000D02*
G01*
X151428000Y-88231000D01*
X151428000Y-89120000D01*
X150920000Y-89120000D01*
X150920000Y-88231000D01*
G37*
D11*
X137923287Y-116410000D02*
G75*
G02*
X136149861Y-116410000I-886713J0D01*
G01*
X136149861Y-116410000D02*
G75*
G02*
X137923287Y-116410000I886713J0D01*
G01*
D10*
X131670000Y-103370000D02*
X132559000Y-103370000D01*
X132559000Y-103878000D01*
X131670000Y-103878000D01*
X131670000Y-103370000D01*
G36*
X131670000Y-103370000D02*
G01*
X132559000Y-103370000D01*
X132559000Y-103878000D01*
X131670000Y-103878000D01*
X131670000Y-103370000D01*
G37*
D12*
%TO.C,REF\u002A\u002A*%
X137011817Y-93457817D03*
%TD*%
%TO.C,REF\u002A\u002A*%
X159867637Y-116342911D03*
%TD*%
%TO.C,REF\u002A\u002A*%
X137081545Y-116324726D03*
%TD*%
%TO.C,REF\u002A\u002A*%
X159911452Y-93461999D03*
%TD*%
M02*
