%TF.GenerationSoftware,KiCad,Pcbnew,9.0.2*%
%TF.CreationDate,2025-06-18T21:38:18-04:00*%
%TF.ProjectId,GlassIDC_Mounted_10x15mm,476c6173-7349-4444-935f-4d6f756e7465,rev?*%
%TF.SameCoordinates,Original*%
%TF.FileFunction,Copper,L1,Top*%
%TF.FilePolarity,Positive*%
%FSLAX46Y46*%
G04 Gerber Fmt 4.6, Leading zero omitted, Abs format (unit mm)*
G04 Created by KiCad (PCBNEW 9.0.2) date 2025-06-18 21:38:18*
%MOMM*%
%LPD*%
G01*
G04 APERTURE LIST*
%TA.AperFunction,NonConductor*%
%ADD10C,1.400000*%
%TD*%
%TA.AperFunction,NonConductor*%
%ADD11C,0.100000*%
%TD*%
%TA.AperFunction,ComponentPad*%
%ADD12C,5.000000*%
%TD*%
%TA.AperFunction,ViaPad*%
%ADD13C,0.700000*%
%TD*%
%TA.AperFunction,ViaPad*%
%ADD14C,0.450000*%
%TD*%
%TA.AperFunction,ViaPad*%
%ADD15C,1.500000*%
%TD*%
G04 APERTURE END LIST*
D10*
X160800000Y-118800000D02*
G75*
G02*
X162261305Y-117427781I-932363J2457089D01*
G01*
X134599414Y-117184361D02*
G75*
G02*
X135760293Y-118595021I2482131J859635D01*
G01*
X162415190Y-92848536D02*
G75*
G02*
X160657576Y-90994543I-2503738J-613463D01*
G01*
X136816422Y-90821552D02*
G75*
G02*
X134370102Y-93360784I195395J-2636265D01*
G01*
D11*
X142469078Y-102264787D02*
X141817078Y-102264787D01*
X141817078Y-101502787D01*
X142469078Y-101502787D01*
X142469078Y-102264787D01*
%TA.AperFunction,NonConductor*%
G36*
X142469078Y-102264787D02*
G01*
X141817078Y-102264787D01*
X141817078Y-101502787D01*
X142469078Y-101502787D01*
X142469078Y-102264787D01*
G37*
%TD.AperFunction*%
X142499888Y-100253410D02*
X141847888Y-100253410D01*
X141847888Y-99491410D01*
X142499888Y-99491410D01*
X142499888Y-100253410D01*
%TA.AperFunction,NonConductor*%
G36*
X142499888Y-100253410D02*
G01*
X141847888Y-100253410D01*
X141847888Y-99491410D01*
X142499888Y-99491410D01*
X142499888Y-100253410D01*
G37*
%TD.AperFunction*%
X149719514Y-114354919D02*
X149067514Y-114354919D01*
X149067514Y-113592919D01*
X149719514Y-113592919D01*
X149719514Y-114354919D01*
%TA.AperFunction,NonConductor*%
G36*
X149719514Y-114354919D02*
G01*
X149067514Y-114354919D01*
X149067514Y-113592919D01*
X149719514Y-113592919D01*
X149719514Y-114354919D01*
G37*
%TD.AperFunction*%
X155188275Y-104231452D02*
X154536275Y-104231452D01*
X154536275Y-103469452D01*
X155188275Y-103469452D01*
X155188275Y-104231452D01*
%TA.AperFunction,NonConductor*%
G36*
X155188275Y-104231452D02*
G01*
X154536275Y-104231452D01*
X154536275Y-103469452D01*
X155188275Y-103469452D01*
X155188275Y-104231452D01*
G37*
%TD.AperFunction*%
X142441175Y-106577384D02*
X141789175Y-106577384D01*
X141789175Y-105815384D01*
X142441175Y-105815384D01*
X142441175Y-106577384D01*
%TA.AperFunction,NonConductor*%
G36*
X142441175Y-106577384D02*
G01*
X141789175Y-106577384D01*
X141789175Y-105815384D01*
X142441175Y-105815384D01*
X142441175Y-106577384D01*
G37*
%TD.AperFunction*%
X155173936Y-114327484D02*
X154521936Y-114327484D01*
X154521936Y-113565484D01*
X155173936Y-113565484D01*
X155173936Y-114327484D01*
%TA.AperFunction,NonConductor*%
G36*
X155173936Y-114327484D02*
G01*
X154521936Y-114327484D01*
X154521936Y-113565484D01*
X155173936Y-113565484D01*
X155173936Y-114327484D01*
G37*
%TD.AperFunction*%
X144210904Y-96478450D02*
X143558904Y-96478450D01*
X143558904Y-95716450D01*
X144210904Y-95716450D01*
X144210904Y-96478450D01*
%TA.AperFunction,NonConductor*%
G36*
X144210904Y-96478450D02*
G01*
X143558904Y-96478450D01*
X143558904Y-95716450D01*
X144210904Y-95716450D01*
X144210904Y-96478450D01*
G37*
%TD.AperFunction*%
X147899256Y-114347145D02*
X147247256Y-114347145D01*
X147247256Y-113585145D01*
X147899256Y-113585145D01*
X147899256Y-114347145D01*
%TA.AperFunction,NonConductor*%
G36*
X147899256Y-114347145D02*
G01*
X147247256Y-114347145D01*
X147247256Y-113585145D01*
X147899256Y-113585145D01*
X147899256Y-114347145D01*
G37*
%TD.AperFunction*%
X155111937Y-96436468D02*
X154459937Y-96436468D01*
X154459937Y-95674468D01*
X155111937Y-95674468D01*
X155111937Y-96436468D01*
%TA.AperFunction,NonConductor*%
G36*
X155111937Y-96436468D02*
G01*
X154459937Y-96436468D01*
X154459937Y-95674468D01*
X155111937Y-95674468D01*
X155111937Y-96436468D01*
G37*
%TD.AperFunction*%
X147837257Y-96456129D02*
X147185257Y-96456129D01*
X147185257Y-95694129D01*
X147837257Y-95694129D01*
X147837257Y-96456129D01*
%TA.AperFunction,NonConductor*%
G36*
X147837257Y-96456129D02*
G01*
X147185257Y-96456129D01*
X147185257Y-95694129D01*
X147837257Y-95694129D01*
X147837257Y-96456129D01*
G37*
%TD.AperFunction*%
X144281577Y-114391677D02*
X143629577Y-114391677D01*
X143629577Y-113629677D01*
X144281577Y-113629677D01*
X144281577Y-114391677D01*
%TA.AperFunction,NonConductor*%
G36*
X144281577Y-114391677D02*
G01*
X143629577Y-114391677D01*
X143629577Y-113629677D01*
X144281577Y-113629677D01*
X144281577Y-114391677D01*
G37*
%TD.AperFunction*%
X155135128Y-106538290D02*
X154483128Y-106538290D01*
X154483128Y-105776290D01*
X155135128Y-105776290D01*
X155135128Y-106538290D01*
%TA.AperFunction,NonConductor*%
G36*
X155135128Y-106538290D02*
G01*
X154483128Y-106538290D01*
X154483128Y-105776290D01*
X155135128Y-105776290D01*
X155135128Y-106538290D01*
G37*
%TD.AperFunction*%
X153384758Y-114366806D02*
X152732758Y-114366806D01*
X152732758Y-113604806D01*
X153384758Y-113604806D01*
X153384758Y-114366806D01*
%TA.AperFunction,NonConductor*%
G36*
X153384758Y-114366806D02*
G01*
X152732758Y-114366806D01*
X152732758Y-113604806D01*
X153384758Y-113604806D01*
X153384758Y-114366806D01*
G37*
%TD.AperFunction*%
X151368048Y-96453903D02*
X150716048Y-96453903D01*
X150716048Y-95691903D01*
X151368048Y-95691903D01*
X151368048Y-96453903D01*
%TA.AperFunction,NonConductor*%
G36*
X151368048Y-96453903D02*
G01*
X150716048Y-96453903D01*
X150716048Y-95691903D01*
X151368048Y-95691903D01*
X151368048Y-96453903D01*
G37*
%TD.AperFunction*%
X151430047Y-114344919D02*
X150778047Y-114344919D01*
X150778047Y-113582919D01*
X151430047Y-113582919D01*
X151430047Y-114344919D01*
%TA.AperFunction,NonConductor*%
G36*
X151430047Y-114344919D02*
G01*
X150778047Y-114344919D01*
X150778047Y-113582919D01*
X151430047Y-113582919D01*
X151430047Y-114344919D01*
G37*
%TD.AperFunction*%
X155193953Y-112450906D02*
X154541953Y-112450906D01*
X154541953Y-111688906D01*
X155193953Y-111688906D01*
X155193953Y-112450906D01*
%TA.AperFunction,NonConductor*%
G36*
X155193953Y-112450906D02*
G01*
X154541953Y-112450906D01*
X154541953Y-111688906D01*
X155193953Y-111688906D01*
X155193953Y-112450906D01*
G37*
%TD.AperFunction*%
X142500000Y-112490000D02*
X141848000Y-112490000D01*
X141848000Y-111728000D01*
X142500000Y-111728000D01*
X142500000Y-112490000D01*
%TA.AperFunction,NonConductor*%
G36*
X142500000Y-112490000D02*
G01*
X141848000Y-112490000D01*
X141848000Y-111728000D01*
X142500000Y-111728000D01*
X142500000Y-112490000D01*
G37*
%TD.AperFunction*%
X155168709Y-110445147D02*
X154516709Y-110445147D01*
X154516709Y-109683147D01*
X155168709Y-109683147D01*
X155168709Y-110445147D01*
%TA.AperFunction,NonConductor*%
G36*
X155168709Y-110445147D02*
G01*
X154516709Y-110445147D01*
X154516709Y-109683147D01*
X155168709Y-109683147D01*
X155168709Y-110445147D01*
G37*
%TD.AperFunction*%
X149657515Y-96463903D02*
X149005515Y-96463903D01*
X149005515Y-95701903D01*
X149657515Y-95701903D01*
X149657515Y-96463903D01*
%TA.AperFunction,NonConductor*%
G36*
X149657515Y-96463903D02*
G01*
X149005515Y-96463903D01*
X149005515Y-95701903D01*
X149657515Y-95701903D01*
X149657515Y-96463903D01*
G37*
%TD.AperFunction*%
X142474756Y-110484241D02*
X141822756Y-110484241D01*
X141822756Y-109722241D01*
X142474756Y-109722241D01*
X142474756Y-110484241D01*
%TA.AperFunction,NonConductor*%
G36*
X142474756Y-110484241D02*
G01*
X141822756Y-110484241D01*
X141822756Y-109722241D01*
X142474756Y-109722241D01*
X142474756Y-110484241D01*
G37*
%TD.AperFunction*%
X155199519Y-108433770D02*
X154547519Y-108433770D01*
X154547519Y-107671770D01*
X155199519Y-107671770D01*
X155199519Y-108433770D01*
%TA.AperFunction,NonConductor*%
G36*
X155199519Y-108433770D02*
G01*
X154547519Y-108433770D01*
X154547519Y-107671770D01*
X155199519Y-107671770D01*
X155199519Y-108433770D01*
G37*
%TD.AperFunction*%
X146126724Y-96465790D02*
X145474724Y-96465790D01*
X145474724Y-95703790D01*
X146126724Y-95703790D01*
X146126724Y-96465790D01*
%TA.AperFunction,NonConductor*%
G36*
X146126724Y-96465790D02*
G01*
X145474724Y-96465790D01*
X145474724Y-95703790D01*
X146126724Y-95703790D01*
X146126724Y-96465790D01*
G37*
%TD.AperFunction*%
X153322759Y-96475790D02*
X152670759Y-96475790D01*
X152670759Y-95713790D01*
X153322759Y-95713790D01*
X153322759Y-96475790D01*
%TA.AperFunction,NonConductor*%
G36*
X153322759Y-96475790D02*
G01*
X152670759Y-96475790D01*
X152670759Y-95713790D01*
X153322759Y-95713790D01*
X153322759Y-96475790D01*
G37*
%TD.AperFunction*%
X155163031Y-102225693D02*
X154511031Y-102225693D01*
X154511031Y-101463693D01*
X155163031Y-101463693D01*
X155163031Y-102225693D01*
%TA.AperFunction,NonConductor*%
G36*
X155163031Y-102225693D02*
G01*
X154511031Y-102225693D01*
X154511031Y-101463693D01*
X155163031Y-101463693D01*
X155163031Y-102225693D01*
G37*
%TD.AperFunction*%
X142440872Y-108466127D02*
X141788872Y-108466127D01*
X141788872Y-107704127D01*
X142440872Y-107704127D01*
X142440872Y-108466127D01*
%TA.AperFunction,NonConductor*%
G36*
X142440872Y-108466127D02*
G01*
X141788872Y-108466127D01*
X141788872Y-107704127D01*
X142440872Y-107704127D01*
X142440872Y-108466127D01*
G37*
%TD.AperFunction*%
X155193841Y-100214316D02*
X154541841Y-100214316D01*
X154541841Y-99452316D01*
X155193841Y-99452316D01*
X155193841Y-100214316D01*
%TA.AperFunction,NonConductor*%
G36*
X155193841Y-100214316D02*
G01*
X154541841Y-100214316D01*
X154541841Y-99452316D01*
X155193841Y-99452316D01*
X155193841Y-100214316D01*
G37*
%TD.AperFunction*%
X142417443Y-96509418D02*
X141765443Y-96509418D01*
X141765443Y-95747418D01*
X142417443Y-95747418D01*
X142417443Y-96509418D01*
%TA.AperFunction,NonConductor*%
G36*
X142417443Y-96509418D02*
G01*
X141765443Y-96509418D01*
X141765443Y-95747418D01*
X142417443Y-95747418D01*
X142417443Y-96509418D01*
G37*
%TD.AperFunction*%
X155129450Y-98318836D02*
X154477450Y-98318836D01*
X154477450Y-97556836D01*
X155129450Y-97556836D01*
X155129450Y-98318836D01*
%TA.AperFunction,NonConductor*%
G36*
X155129450Y-98318836D02*
G01*
X154477450Y-98318836D01*
X154477450Y-97556836D01*
X155129450Y-97556836D01*
X155129450Y-98318836D01*
G37*
%TD.AperFunction*%
X142479442Y-114400434D02*
X141827442Y-114400434D01*
X141827442Y-113638434D01*
X142479442Y-113638434D01*
X142479442Y-114400434D01*
%TA.AperFunction,NonConductor*%
G36*
X142479442Y-114400434D02*
G01*
X141827442Y-114400434D01*
X141827442Y-113638434D01*
X142479442Y-113638434D01*
X142479442Y-114400434D01*
G37*
%TD.AperFunction*%
X143460000Y-97450000D02*
X153460000Y-97450000D01*
X153460000Y-112450000D01*
X143460000Y-112450000D01*
X143460000Y-97450000D01*
%TA.AperFunction,NonConductor*%
G36*
X143460000Y-97450000D02*
G01*
X153460000Y-97450000D01*
X153460000Y-112450000D01*
X143460000Y-112450000D01*
X143460000Y-97450000D01*
G37*
%TD.AperFunction*%
X146188723Y-114356806D02*
X145536723Y-114356806D01*
X145536723Y-113594806D01*
X146188723Y-113594806D01*
X146188723Y-114356806D01*
%TA.AperFunction,NonConductor*%
G36*
X146188723Y-114356806D02*
G01*
X145536723Y-114356806D01*
X145536723Y-113594806D01*
X146188723Y-113594806D01*
X146188723Y-114356806D01*
G37*
%TD.AperFunction*%
X142435497Y-98357930D02*
X141783497Y-98357930D01*
X141783497Y-97595930D01*
X142435497Y-97595930D01*
X142435497Y-98357930D01*
%TA.AperFunction,NonConductor*%
G36*
X142435497Y-98357930D02*
G01*
X141783497Y-98357930D01*
X141783497Y-97595930D01*
X142435497Y-97595930D01*
X142435497Y-98357930D01*
G37*
%TD.AperFunction*%
X142494322Y-104270546D02*
X141842322Y-104270546D01*
X141842322Y-103508546D01*
X142494322Y-103508546D01*
X142494322Y-104270546D01*
%TA.AperFunction,NonConductor*%
G36*
X142494322Y-104270546D02*
G01*
X141842322Y-104270546D01*
X141842322Y-103508546D01*
X142494322Y-103508546D01*
X142494322Y-104270546D01*
G37*
%TD.AperFunction*%
D12*
%TO.P,REF\u002A\u002A,1*%
%TO.N,N/C*%
X137081545Y-116324726D03*
%TD*%
%TO.P,REF\u002A\u002A,1*%
%TO.N,N/C*%
X159867637Y-116342911D03*
%TD*%
%TO.P,REF\u002A\u002A,1*%
%TO.N,N/C*%
X159911452Y-93461999D03*
%TD*%
%TO.P,REF\u002A\u002A,1*%
%TO.N,N/C*%
X137011817Y-93457817D03*
%TD*%
D13*
%TO.N,*%
X134197502Y-112813550D03*
X140436700Y-119378687D03*
X156438963Y-119105780D03*
X162702509Y-112973729D03*
X162553651Y-97604114D03*
X155855029Y-91017136D03*
X140915819Y-90777329D03*
X133795433Y-97525570D03*
D14*
X142091443Y-96128418D03*
D13*
X148183100Y-88496600D03*
X149183100Y-88496600D03*
D14*
X142109497Y-97976930D03*
X143955577Y-114010677D03*
X154847936Y-113946484D03*
X154785937Y-96055468D03*
D13*
X151183100Y-88498500D03*
D15*
X148501100Y-105003600D03*
D13*
X148926900Y-121493400D03*
X131913050Y-104637000D03*
D14*
X154809128Y-106157290D03*
D13*
X146183100Y-88496600D03*
D14*
X142148756Y-110103241D03*
D13*
X165131900Y-106690000D03*
X151926900Y-121493400D03*
D14*
X154867953Y-112069906D03*
X142114872Y-108085127D03*
X142115175Y-106196384D03*
D13*
X165131900Y-104690000D03*
X131914950Y-101632000D03*
D14*
X154862275Y-103850452D03*
X154873519Y-108052770D03*
D13*
X165130000Y-107690000D03*
D14*
X154867841Y-99833316D03*
X153058758Y-113985806D03*
D13*
X165131900Y-105690000D03*
X150183100Y-88496600D03*
X165130000Y-108695000D03*
X131913050Y-105637000D03*
D14*
X152996759Y-96094790D03*
D13*
X131913050Y-103637000D03*
X152183100Y-88498500D03*
X146926900Y-121493400D03*
X131913050Y-107637000D03*
D14*
X149331515Y-96082903D03*
X151104047Y-113963919D03*
D13*
X131914950Y-102637000D03*
D14*
X154842709Y-110064147D03*
X142143078Y-101883787D03*
D13*
X165131900Y-102690000D03*
X144921900Y-121491500D03*
D14*
X142173888Y-99872410D03*
D13*
X145183100Y-88496600D03*
D14*
X154803450Y-97937836D03*
D13*
X165131900Y-103690000D03*
D14*
X147573256Y-113966145D03*
X145862723Y-113975806D03*
X142174000Y-112109000D03*
D13*
X147926900Y-121493400D03*
D14*
X143884904Y-96097450D03*
X142153442Y-114019434D03*
D13*
X131913050Y-108637000D03*
D14*
X151042048Y-96072903D03*
X149393514Y-113973919D03*
X154837031Y-101844693D03*
D13*
X165131900Y-101690000D03*
X147183100Y-88496600D03*
D14*
X142168322Y-103889546D03*
X147511257Y-96075129D03*
X145800724Y-96084790D03*
D13*
X150926900Y-121493400D03*
X131913050Y-106637000D03*
X149926900Y-121493400D03*
X145926900Y-121491500D03*
%TD*%
%TA.AperFunction,NonConductor*%
G36*
X149012582Y-86687063D02*
G01*
X149018214Y-86687219D01*
X149847318Y-86729220D01*
X149852965Y-86729635D01*
X150679248Y-86809197D01*
X150684923Y-86809874D01*
X151506725Y-86926834D01*
X151512365Y-86927768D01*
X151632849Y-86950533D01*
X152328017Y-87081886D01*
X152333560Y-87083064D01*
X153141455Y-87274042D01*
X153146934Y-87275470D01*
X153945258Y-87502879D01*
X153950719Y-87504569D01*
X154737912Y-87767960D01*
X154743292Y-87769897D01*
X155517748Y-88068735D01*
X155522995Y-88070898D01*
X156283075Y-88404550D01*
X156288239Y-88406957D01*
X157032405Y-88774747D01*
X157037447Y-88777381D01*
X157764200Y-89178571D01*
X157769111Y-89181429D01*
X158381595Y-89556760D01*
X158476876Y-89615148D01*
X158481682Y-89618245D01*
X159169045Y-90083626D01*
X159173701Y-90086936D01*
X159193259Y-90101513D01*
X159235925Y-90158259D01*
X159241138Y-90229064D01*
X159207244Y-90291447D01*
X159149485Y-90324532D01*
X158932860Y-90380507D01*
X158602572Y-90505644D01*
X158602566Y-90505646D01*
X158287898Y-90666065D01*
X157992606Y-90859850D01*
X157992593Y-90859859D01*
X157720215Y-91084690D01*
X157473969Y-91337906D01*
X157473961Y-91337915D01*
X157256812Y-91616474D01*
X157256811Y-91616476D01*
X157071346Y-91917055D01*
X156919768Y-92236084D01*
X156803895Y-92569742D01*
X156725112Y-92914034D01*
X156725111Y-92914038D01*
X156684352Y-93264885D01*
X156682107Y-93618066D01*
X156682109Y-93618090D01*
X156718404Y-93969409D01*
X156735222Y-94047459D01*
X156730018Y-94118264D01*
X156687360Y-94175016D01*
X156620791Y-94199696D01*
X156612049Y-94200000D01*
X140375773Y-94200000D01*
X140307652Y-94179998D01*
X140261159Y-94126342D01*
X140251055Y-94056068D01*
X140251748Y-94051780D01*
X140285034Y-93865984D01*
X140285253Y-93864762D01*
X140310004Y-93512251D01*
X140310003Y-93512237D01*
X140310004Y-93512232D01*
X140296903Y-93159113D01*
X140246101Y-92809412D01*
X140216384Y-92693727D01*
X140158180Y-92467141D01*
X140034150Y-92136244D01*
X140034149Y-92136242D01*
X139875439Y-91820520D01*
X139728619Y-91592955D01*
X139683855Y-91523573D01*
X139461610Y-91248831D01*
X139461608Y-91248828D01*
X139211246Y-90999436D01*
X138935648Y-90778262D01*
X138760260Y-90666067D01*
X138637965Y-90587835D01*
X138492053Y-90515194D01*
X138321624Y-90430347D01*
X138321622Y-90430346D01*
X137990241Y-90307599D01*
X137909896Y-90287292D01*
X137895404Y-90278739D01*
X137879005Y-90274956D01*
X137865460Y-90261067D01*
X137848753Y-90251207D01*
X137841184Y-90236175D01*
X137829436Y-90224128D01*
X137825550Y-90205122D01*
X137816826Y-90187794D01*
X137818586Y-90171055D01*
X137815216Y-90154570D01*
X137822221Y-90136481D01*
X137824251Y-90117187D01*
X137834996Y-90103499D01*
X137840858Y-90088366D01*
X137866531Y-90063329D01*
X137986297Y-89975994D01*
X137990968Y-89972747D01*
X138683220Y-89514556D01*
X138687998Y-89511548D01*
X139400287Y-89085251D01*
X139405239Y-89082438D01*
X140136111Y-88688904D01*
X140141202Y-88686310D01*
X140398321Y-88562567D01*
X140668516Y-88432531D01*
X144532600Y-88432531D01*
X144532600Y-88560669D01*
X144557599Y-88686344D01*
X144606635Y-88804727D01*
X144677824Y-88911269D01*
X144768431Y-89001876D01*
X144874973Y-89073065D01*
X144993356Y-89122101D01*
X145119031Y-89147100D01*
X145119036Y-89147100D01*
X145247164Y-89147100D01*
X145247169Y-89147100D01*
X145372844Y-89122101D01*
X145491227Y-89073065D01*
X145597769Y-89001876D01*
X145597780Y-89001864D01*
X145602548Y-88997953D01*
X145604260Y-89000039D01*
X145656317Y-88971614D01*
X145727132Y-88976679D01*
X145762471Y-88999391D01*
X145763652Y-88997953D01*
X145768423Y-89001868D01*
X145768431Y-89001876D01*
X145874973Y-89073065D01*
X145993356Y-89122101D01*
X146119031Y-89147100D01*
X146119036Y-89147100D01*
X146247164Y-89147100D01*
X146247169Y-89147100D01*
X146372844Y-89122101D01*
X146491227Y-89073065D01*
X146597769Y-89001876D01*
X146597780Y-89001864D01*
X146602548Y-88997953D01*
X146604260Y-89000039D01*
X146656317Y-88971614D01*
X146727132Y-88976679D01*
X146762471Y-88999391D01*
X146763652Y-88997953D01*
X146768423Y-89001868D01*
X146768431Y-89001876D01*
X146874973Y-89073065D01*
X146993356Y-89122101D01*
X147119031Y-89147100D01*
X147119036Y-89147100D01*
X147247164Y-89147100D01*
X147247169Y-89147100D01*
X147372844Y-89122101D01*
X147491227Y-89073065D01*
X147597769Y-89001876D01*
X147597780Y-89001864D01*
X147602548Y-88997953D01*
X147604260Y-89000039D01*
X147656317Y-88971614D01*
X147727132Y-88976679D01*
X147762471Y-88999391D01*
X147763652Y-88997953D01*
X147768423Y-89001868D01*
X147768431Y-89001876D01*
X147874973Y-89073065D01*
X147993356Y-89122101D01*
X148119031Y-89147100D01*
X148119036Y-89147100D01*
X148247164Y-89147100D01*
X148247169Y-89147100D01*
X148372844Y-89122101D01*
X148491227Y-89073065D01*
X148597769Y-89001876D01*
X148597780Y-89001864D01*
X148602548Y-88997953D01*
X148604260Y-89000039D01*
X148656317Y-88971614D01*
X148727132Y-88976679D01*
X148762471Y-88999391D01*
X148763652Y-88997953D01*
X148768423Y-89001868D01*
X148768431Y-89001876D01*
X148874973Y-89073065D01*
X148993356Y-89122101D01*
X149119031Y-89147100D01*
X149119036Y-89147100D01*
X149247164Y-89147100D01*
X149247169Y-89147100D01*
X149372844Y-89122101D01*
X149491227Y-89073065D01*
X149597769Y-89001876D01*
X149597780Y-89001864D01*
X149602548Y-88997953D01*
X149604260Y-89000039D01*
X149656317Y-88971614D01*
X149727132Y-88976679D01*
X149762471Y-88999391D01*
X149763652Y-88997953D01*
X149768423Y-89001868D01*
X149768431Y-89001876D01*
X149874973Y-89073065D01*
X149993356Y-89122101D01*
X150119031Y-89147100D01*
X150119036Y-89147100D01*
X150247164Y-89147100D01*
X150247169Y-89147100D01*
X150372844Y-89122101D01*
X150491227Y-89073065D01*
X150597769Y-89001876D01*
X150597780Y-89001864D01*
X150602167Y-88998264D01*
X150667510Y-88970500D01*
X150737490Y-88982471D01*
X150762977Y-89000675D01*
X150763652Y-88999853D01*
X150768423Y-89003768D01*
X150768431Y-89003776D01*
X150874973Y-89074965D01*
X150993356Y-89124001D01*
X151119031Y-89149000D01*
X151119036Y-89149000D01*
X151247164Y-89149000D01*
X151247169Y-89149000D01*
X151372844Y-89124001D01*
X151491227Y-89074965D01*
X151597769Y-89003776D01*
X151597780Y-89003764D01*
X151602548Y-88999853D01*
X151604260Y-89001939D01*
X151656317Y-88973514D01*
X151727132Y-88978579D01*
X151762471Y-89001291D01*
X151763652Y-88999853D01*
X151768423Y-89003768D01*
X151768431Y-89003776D01*
X151874973Y-89074965D01*
X151993356Y-89124001D01*
X152119031Y-89149000D01*
X152119036Y-89149000D01*
X152247164Y-89149000D01*
X152247169Y-89149000D01*
X152372844Y-89124001D01*
X152491227Y-89074965D01*
X152597769Y-89003776D01*
X152688376Y-88913169D01*
X152759565Y-88806627D01*
X152808601Y-88688244D01*
X152833600Y-88562569D01*
X152833600Y-88434431D01*
X152808601Y-88308756D01*
X152759565Y-88190373D01*
X152688376Y-88083831D01*
X152597769Y-87993224D01*
X152491227Y-87922035D01*
X152372845Y-87872999D01*
X152330952Y-87864666D01*
X152247169Y-87848000D01*
X152119031Y-87848000D01*
X152077139Y-87856333D01*
X151993354Y-87872999D01*
X151993353Y-87873000D01*
X151874971Y-87922036D01*
X151768435Y-87993221D01*
X151763652Y-87997147D01*
X151761939Y-87995060D01*
X151709883Y-88023486D01*
X151639068Y-88018421D01*
X151603728Y-87995708D01*
X151602548Y-87997147D01*
X151597775Y-87993230D01*
X151597769Y-87993224D01*
X151491227Y-87922035D01*
X151372845Y-87872999D01*
X151330952Y-87864666D01*
X151247169Y-87848000D01*
X151119031Y-87848000D01*
X151077139Y-87856333D01*
X150993354Y-87872999D01*
X150993353Y-87873000D01*
X150874971Y-87922036D01*
X150768429Y-87993224D01*
X150764020Y-87996844D01*
X150698674Y-88024600D01*
X150628695Y-88012621D01*
X150603222Y-87994425D01*
X150602548Y-87995247D01*
X150597775Y-87991330D01*
X150597769Y-87991324D01*
X150491227Y-87920135D01*
X150372845Y-87871099D01*
X150330952Y-87862766D01*
X150247169Y-87846100D01*
X150119031Y-87846100D01*
X150077139Y-87854433D01*
X149993354Y-87871099D01*
X149993353Y-87871100D01*
X149874971Y-87920136D01*
X149768435Y-87991321D01*
X149763652Y-87995247D01*
X149761939Y-87993160D01*
X149709883Y-88021586D01*
X149639068Y-88016521D01*
X149603728Y-87993808D01*
X149602548Y-87995247D01*
X149597775Y-87991330D01*
X149597769Y-87991324D01*
X149491227Y-87920135D01*
X149372845Y-87871099D01*
X149330952Y-87862766D01*
X149247169Y-87846100D01*
X149119031Y-87846100D01*
X149077139Y-87854433D01*
X148993354Y-87871099D01*
X148993353Y-87871100D01*
X148874971Y-87920136D01*
X148768435Y-87991321D01*
X148763652Y-87995247D01*
X148761939Y-87993160D01*
X148709883Y-88021586D01*
X148639068Y-88016521D01*
X148603728Y-87993808D01*
X148602548Y-87995247D01*
X148597775Y-87991330D01*
X148597769Y-87991324D01*
X148491227Y-87920135D01*
X148372845Y-87871099D01*
X148330952Y-87862766D01*
X148247169Y-87846100D01*
X148119031Y-87846100D01*
X148077139Y-87854433D01*
X147993354Y-87871099D01*
X147993353Y-87871100D01*
X147874971Y-87920136D01*
X147768435Y-87991321D01*
X147763652Y-87995247D01*
X147761939Y-87993160D01*
X147709883Y-88021586D01*
X147639068Y-88016521D01*
X147603728Y-87993808D01*
X147602548Y-87995247D01*
X147597775Y-87991330D01*
X147597769Y-87991324D01*
X147491227Y-87920135D01*
X147372845Y-87871099D01*
X147330952Y-87862766D01*
X147247169Y-87846100D01*
X147119031Y-87846100D01*
X147077139Y-87854433D01*
X146993354Y-87871099D01*
X146993353Y-87871100D01*
X146874971Y-87920136D01*
X146768435Y-87991321D01*
X146763652Y-87995247D01*
X146761939Y-87993160D01*
X146709883Y-88021586D01*
X146639068Y-88016521D01*
X146603728Y-87993808D01*
X146602548Y-87995247D01*
X146597775Y-87991330D01*
X146597769Y-87991324D01*
X146491227Y-87920135D01*
X146372845Y-87871099D01*
X146330952Y-87862766D01*
X146247169Y-87846100D01*
X146119031Y-87846100D01*
X146077139Y-87854433D01*
X145993354Y-87871099D01*
X145993353Y-87871100D01*
X145874971Y-87920136D01*
X145768435Y-87991321D01*
X145763652Y-87995247D01*
X145761939Y-87993160D01*
X145709883Y-88021586D01*
X145639068Y-88016521D01*
X145603728Y-87993808D01*
X145602548Y-87995247D01*
X145597775Y-87991330D01*
X145597769Y-87991324D01*
X145491227Y-87920135D01*
X145372845Y-87871099D01*
X145330952Y-87862766D01*
X145247169Y-87846100D01*
X145119031Y-87846100D01*
X145077139Y-87854433D01*
X144993354Y-87871099D01*
X144993353Y-87871100D01*
X144874971Y-87920136D01*
X144768435Y-87991321D01*
X144768428Y-87991326D01*
X144677826Y-88081928D01*
X144677821Y-88081935D01*
X144606636Y-88188471D01*
X144557600Y-88306853D01*
X144557599Y-88306854D01*
X144557221Y-88308754D01*
X144532600Y-88432531D01*
X140668516Y-88432531D01*
X140889183Y-88326331D01*
X140894382Y-88323973D01*
X140926103Y-88310443D01*
X141207608Y-88190371D01*
X141657920Y-87998296D01*
X141663201Y-87996184D01*
X142440749Y-87705470D01*
X142446108Y-87703604D01*
X143236054Y-87448459D01*
X143241486Y-87446841D01*
X144042181Y-87227794D01*
X144047688Y-87226421D01*
X144857527Y-87043916D01*
X144863042Y-87042804D01*
X145680327Y-86897224D01*
X145685905Y-86896360D01*
X146508941Y-86788006D01*
X146514610Y-86787390D01*
X147341668Y-86716486D01*
X147347347Y-86716128D01*
X148176808Y-86682814D01*
X148182440Y-86682715D01*
X149012582Y-86687063D01*
G37*
%TD.AperFunction*%
%TA.AperFunction,NonConductor*%
G36*
X155942121Y-95020002D02*
G01*
X155988614Y-95073658D01*
X156000000Y-95126000D01*
X156000000Y-115074000D01*
X155979998Y-115142121D01*
X155926342Y-115188614D01*
X155874000Y-115200000D01*
X141126000Y-115200000D01*
X141057879Y-115179998D01*
X141011386Y-115126342D01*
X141000000Y-115074000D01*
X141000000Y-113638434D01*
X141471942Y-113638434D01*
X141471942Y-113638438D01*
X141471942Y-114400440D01*
X141482818Y-114487699D01*
X141482820Y-114487706D01*
X141525569Y-114585163D01*
X141529829Y-114594874D01*
X141543781Y-114610030D01*
X141601028Y-114672217D01*
X141609089Y-114680973D01*
X141660550Y-114708822D01*
X141712008Y-114736671D01*
X141712009Y-114736671D01*
X141712011Y-114736672D01*
X141827442Y-114755934D01*
X141827446Y-114755934D01*
X142479446Y-114755934D01*
X142479447Y-114755933D01*
X142514429Y-114751572D01*
X142566707Y-114745057D01*
X142566709Y-114745056D01*
X142566712Y-114745056D01*
X142673882Y-114698047D01*
X142759981Y-114618787D01*
X142815680Y-114515865D01*
X142834942Y-114400434D01*
X142834942Y-113638434D01*
X142833851Y-113629681D01*
X142833851Y-113629677D01*
X143274077Y-113629677D01*
X143274077Y-113629681D01*
X143274077Y-114391683D01*
X143284953Y-114478942D01*
X143284955Y-114478949D01*
X143331962Y-114586113D01*
X143331964Y-114586117D01*
X143340028Y-114594877D01*
X143411123Y-114672107D01*
X143411224Y-114672216D01*
X143458948Y-114698043D01*
X143514143Y-114727914D01*
X143514144Y-114727914D01*
X143514146Y-114727915D01*
X143629577Y-114747177D01*
X143629581Y-114747177D01*
X144281581Y-114747177D01*
X144281582Y-114747176D01*
X144316564Y-114742815D01*
X144368842Y-114736300D01*
X144368844Y-114736299D01*
X144368847Y-114736299D01*
X144476017Y-114689290D01*
X144562116Y-114610030D01*
X144617815Y-114507108D01*
X144637077Y-114391677D01*
X144637077Y-113629677D01*
X144634024Y-113605180D01*
X144632731Y-113594806D01*
X145181223Y-113594806D01*
X145181223Y-113594810D01*
X145181223Y-114356812D01*
X145192099Y-114444071D01*
X145192101Y-114444078D01*
X145239108Y-114551242D01*
X145239110Y-114551246D01*
X145259390Y-114573276D01*
X145316633Y-114635459D01*
X145318370Y-114637345D01*
X145349920Y-114654419D01*
X145421289Y-114693043D01*
X145421290Y-114693043D01*
X145421292Y-114693044D01*
X145536723Y-114712306D01*
X145536727Y-114712306D01*
X146188727Y-114712306D01*
X146188728Y-114712305D01*
X146223710Y-114707944D01*
X146275988Y-114701429D01*
X146275990Y-114701428D01*
X146275993Y-114701428D01*
X146383163Y-114654419D01*
X146469262Y-114575159D01*
X146524961Y-114472237D01*
X146544223Y-114356806D01*
X146544223Y-113594806D01*
X146543988Y-113592923D01*
X146543019Y-113585145D01*
X146891756Y-113585145D01*
X146891756Y-113585149D01*
X146891756Y-114347151D01*
X146902632Y-114434410D01*
X146902634Y-114434417D01*
X146948668Y-114539362D01*
X146949643Y-114541585D01*
X146967739Y-114561242D01*
X147026854Y-114625459D01*
X147028903Y-114627684D01*
X147060453Y-114644758D01*
X147131822Y-114683382D01*
X147131823Y-114683382D01*
X147131825Y-114683383D01*
X147247256Y-114702645D01*
X147247260Y-114702645D01*
X147899260Y-114702645D01*
X147899261Y-114702644D01*
X147936176Y-114698043D01*
X147986521Y-114691768D01*
X147986523Y-114691767D01*
X147986526Y-114691767D01*
X148093696Y-114644758D01*
X148179795Y-114565498D01*
X148235494Y-114462576D01*
X148254756Y-114347145D01*
X148254756Y-113592919D01*
X148712014Y-113592919D01*
X148712014Y-113592923D01*
X148712014Y-114354925D01*
X148722890Y-114442184D01*
X148722892Y-114442191D01*
X148765516Y-114539362D01*
X148769901Y-114549359D01*
X148771638Y-114551246D01*
X148842004Y-114627684D01*
X148849161Y-114635458D01*
X148900622Y-114663307D01*
X148952080Y-114691156D01*
X148952081Y-114691156D01*
X148952083Y-114691157D01*
X149067514Y-114710419D01*
X149067518Y-114710419D01*
X149719518Y-114710419D01*
X149719519Y-114710418D01*
X149754501Y-114706057D01*
X149806779Y-114699542D01*
X149806781Y-114699541D01*
X149806784Y-114699541D01*
X149913954Y-114652532D01*
X150000053Y-114573272D01*
X150055752Y-114470350D01*
X150075014Y-114354919D01*
X150075014Y-113592919D01*
X150075014Y-113592915D01*
X150073768Y-113582919D01*
X150422547Y-113582919D01*
X150422547Y-113582923D01*
X150422547Y-114344925D01*
X150433423Y-114432184D01*
X150433425Y-114432191D01*
X150475424Y-114527938D01*
X150480434Y-114539359D01*
X150500585Y-114561249D01*
X150559362Y-114625098D01*
X150559694Y-114625458D01*
X150600139Y-114647346D01*
X150662613Y-114681156D01*
X150662614Y-114681156D01*
X150662616Y-114681157D01*
X150778047Y-114700419D01*
X150778051Y-114700419D01*
X151430051Y-114700419D01*
X151430052Y-114700418D01*
X151465034Y-114696057D01*
X151517312Y-114689542D01*
X151517314Y-114689541D01*
X151517317Y-114689541D01*
X151624487Y-114642532D01*
X151710586Y-114563272D01*
X151766285Y-114460350D01*
X151785547Y-114344919D01*
X151785547Y-113604806D01*
X152377258Y-113604806D01*
X152377258Y-113604810D01*
X152377258Y-114366812D01*
X152388134Y-114454071D01*
X152388136Y-114454078D01*
X152430760Y-114551249D01*
X152435145Y-114561246D01*
X152458043Y-114586120D01*
X152512019Y-114644754D01*
X152514405Y-114647345D01*
X152560157Y-114672105D01*
X152617324Y-114703043D01*
X152617325Y-114703043D01*
X152617327Y-114703044D01*
X152732758Y-114722306D01*
X152732762Y-114722306D01*
X153384762Y-114722306D01*
X153384763Y-114722305D01*
X153419745Y-114717944D01*
X153472023Y-114711429D01*
X153472025Y-114711428D01*
X153472028Y-114711428D01*
X153579198Y-114664419D01*
X153665297Y-114585159D01*
X153720996Y-114482237D01*
X153740258Y-114366806D01*
X153740258Y-113604806D01*
X153739011Y-113594804D01*
X153736650Y-113575859D01*
X153736650Y-113575858D01*
X153735357Y-113565484D01*
X154166436Y-113565484D01*
X154166436Y-113565488D01*
X154166436Y-114327490D01*
X154177312Y-114414749D01*
X154177314Y-114414756D01*
X154210947Y-114491430D01*
X154224323Y-114521924D01*
X154240373Y-114539359D01*
X154291474Y-114594870D01*
X154303583Y-114608023D01*
X154335133Y-114625097D01*
X154406502Y-114663721D01*
X154406503Y-114663721D01*
X154406505Y-114663722D01*
X154521936Y-114682984D01*
X154521940Y-114682984D01*
X155173940Y-114682984D01*
X155173941Y-114682983D01*
X155208923Y-114678622D01*
X155261201Y-114672107D01*
X155261203Y-114672106D01*
X155261206Y-114672106D01*
X155368376Y-114625097D01*
X155454475Y-114545837D01*
X155510174Y-114442915D01*
X155529436Y-114327484D01*
X155529436Y-113565484D01*
X155525541Y-113534234D01*
X155518559Y-113478218D01*
X155518557Y-113478211D01*
X155489215Y-113411319D01*
X155471549Y-113371044D01*
X155419280Y-113314265D01*
X155392293Y-113284949D01*
X155392291Y-113284948D01*
X155392289Y-113284945D01*
X155372392Y-113274177D01*
X155289369Y-113229246D01*
X155239112Y-113220860D01*
X155173936Y-113209984D01*
X154521936Y-113209984D01*
X154521929Y-113209984D01*
X154434670Y-113220860D01*
X154434663Y-113220862D01*
X154327499Y-113267869D01*
X154327492Y-113267874D01*
X154241401Y-113347126D01*
X154241395Y-113347134D01*
X154185698Y-113450050D01*
X154180805Y-113479375D01*
X154166436Y-113565484D01*
X153735357Y-113565484D01*
X153733571Y-113551161D01*
X153729380Y-113517536D01*
X153724995Y-113507540D01*
X153697123Y-113443997D01*
X153682371Y-113410366D01*
X153626010Y-113349142D01*
X153603115Y-113324271D01*
X153603113Y-113324270D01*
X153603111Y-113324267D01*
X153571567Y-113307196D01*
X153500191Y-113268568D01*
X153449934Y-113260182D01*
X153384758Y-113249306D01*
X152732758Y-113249306D01*
X152732751Y-113249306D01*
X152645492Y-113260182D01*
X152645485Y-113260184D01*
X152538321Y-113307191D01*
X152538314Y-113307196D01*
X152452223Y-113386448D01*
X152452217Y-113386456D01*
X152396520Y-113489372D01*
X152392370Y-113514243D01*
X152377258Y-113604806D01*
X151785547Y-113604806D01*
X151785547Y-113582919D01*
X151781589Y-113551164D01*
X151774670Y-113495653D01*
X151774668Y-113495646D01*
X151737681Y-113411324D01*
X151727660Y-113388479D01*
X151668552Y-113324271D01*
X151648404Y-113302384D01*
X151648402Y-113302383D01*
X151648400Y-113302380D01*
X151620969Y-113287535D01*
X151545480Y-113246681D01*
X151495223Y-113238295D01*
X151430047Y-113227419D01*
X150778047Y-113227419D01*
X150778040Y-113227419D01*
X150690781Y-113238295D01*
X150690774Y-113238297D01*
X150583610Y-113285304D01*
X150583603Y-113285309D01*
X150497512Y-113364561D01*
X150497506Y-113364569D01*
X150441809Y-113467485D01*
X150434007Y-113514243D01*
X150422547Y-113582919D01*
X150073768Y-113582919D01*
X150064137Y-113505653D01*
X150064135Y-113505646D01*
X150033252Y-113435240D01*
X150017127Y-113398479D01*
X149955990Y-113332067D01*
X149937871Y-113312384D01*
X149937869Y-113312383D01*
X149937867Y-113312380D01*
X149909804Y-113297193D01*
X149834947Y-113256681D01*
X149790749Y-113249306D01*
X149719514Y-113237419D01*
X149067514Y-113237419D01*
X149067507Y-113237419D01*
X148980248Y-113248295D01*
X148980241Y-113248297D01*
X148873077Y-113295304D01*
X148873070Y-113295309D01*
X148786979Y-113374561D01*
X148786973Y-113374569D01*
X148731276Y-113477485D01*
X148723681Y-113523000D01*
X148712014Y-113592919D01*
X148254756Y-113592919D01*
X148254756Y-113585145D01*
X148249429Y-113542407D01*
X148243879Y-113497879D01*
X148243877Y-113497872D01*
X148209752Y-113420076D01*
X148196869Y-113390705D01*
X148135708Y-113324267D01*
X148117613Y-113304610D01*
X148117611Y-113304609D01*
X148117609Y-113304606D01*
X148086065Y-113287535D01*
X148014689Y-113248907D01*
X147964432Y-113240521D01*
X147899256Y-113229645D01*
X147247256Y-113229645D01*
X147247249Y-113229645D01*
X147159990Y-113240521D01*
X147159983Y-113240523D01*
X147052819Y-113287530D01*
X147052812Y-113287535D01*
X146966721Y-113366787D01*
X146966715Y-113366795D01*
X146911018Y-113469711D01*
X146904707Y-113507533D01*
X146891756Y-113585145D01*
X146543019Y-113585145D01*
X146537692Y-113542411D01*
X146533345Y-113507536D01*
X146533032Y-113506823D01*
X146494984Y-113420081D01*
X146486336Y-113400366D01*
X146430880Y-113340125D01*
X146407080Y-113314271D01*
X146407078Y-113314270D01*
X146407076Y-113314267D01*
X146389224Y-113304606D01*
X146304156Y-113258568D01*
X146253899Y-113250182D01*
X146188723Y-113239306D01*
X145536723Y-113239306D01*
X145536716Y-113239306D01*
X145449457Y-113250182D01*
X145449450Y-113250184D01*
X145342286Y-113297191D01*
X145342279Y-113297196D01*
X145256188Y-113376448D01*
X145256182Y-113376456D01*
X145200485Y-113479372D01*
X145194117Y-113517536D01*
X145181223Y-113594806D01*
X144632731Y-113594806D01*
X144626200Y-113542411D01*
X144626198Y-113542404D01*
X144594312Y-113469711D01*
X144579190Y-113435237D01*
X144520092Y-113371040D01*
X144499934Y-113349142D01*
X144499932Y-113349141D01*
X144499930Y-113349138D01*
X144468386Y-113332067D01*
X144397010Y-113293439D01*
X144358531Y-113287018D01*
X144281577Y-113274177D01*
X143629577Y-113274177D01*
X143629570Y-113274177D01*
X143542311Y-113285053D01*
X143542304Y-113285055D01*
X143435140Y-113332062D01*
X143435133Y-113332067D01*
X143349042Y-113411319D01*
X143349036Y-113411327D01*
X143293339Y-113514243D01*
X143290003Y-113534237D01*
X143274077Y-113629677D01*
X142833851Y-113629677D01*
X142824065Y-113551168D01*
X142824063Y-113551161D01*
X142796960Y-113489372D01*
X142777055Y-113443994D01*
X142727995Y-113390701D01*
X142697799Y-113357899D01*
X142697797Y-113357898D01*
X142697795Y-113357895D01*
X142666251Y-113340824D01*
X142594875Y-113302196D01*
X142544618Y-113293810D01*
X142479442Y-113282934D01*
X141827442Y-113282934D01*
X141827435Y-113282934D01*
X141740176Y-113293810D01*
X141740169Y-113293812D01*
X141633005Y-113340819D01*
X141632998Y-113340824D01*
X141546907Y-113420076D01*
X141546901Y-113420084D01*
X141491204Y-113523000D01*
X141482948Y-113572473D01*
X141471942Y-113638434D01*
X141000000Y-113638434D01*
X141000000Y-111728000D01*
X141492500Y-111728000D01*
X141492500Y-111728004D01*
X141492500Y-112490006D01*
X141503376Y-112577265D01*
X141503378Y-112577272D01*
X141550385Y-112684436D01*
X141550387Y-112684440D01*
X141629647Y-112770539D01*
X141675822Y-112795528D01*
X141732566Y-112826237D01*
X141732567Y-112826237D01*
X141732569Y-112826238D01*
X141848000Y-112845500D01*
X141848004Y-112845500D01*
X142500004Y-112845500D01*
X142500005Y-112845499D01*
X142534987Y-112841138D01*
X142587265Y-112834623D01*
X142587267Y-112834622D01*
X142587270Y-112834622D01*
X142694440Y-112787613D01*
X142780539Y-112708353D01*
X142836238Y-112605431D01*
X142855500Y-112490000D01*
X142855500Y-111728000D01*
X142850626Y-111688899D01*
X142844623Y-111640734D01*
X142844621Y-111640727D01*
X142797614Y-111533563D01*
X142797613Y-111533560D01*
X142718353Y-111447461D01*
X142686809Y-111430390D01*
X142615433Y-111391762D01*
X142565176Y-111383376D01*
X142500000Y-111372500D01*
X141848000Y-111372500D01*
X141847993Y-111372500D01*
X141760734Y-111383376D01*
X141760727Y-111383378D01*
X141653563Y-111430385D01*
X141653556Y-111430390D01*
X141567465Y-111509642D01*
X141567459Y-111509650D01*
X141511762Y-111612566D01*
X141507063Y-111640727D01*
X141492500Y-111728000D01*
X141000000Y-111728000D01*
X141000000Y-109722241D01*
X141467256Y-109722241D01*
X141467256Y-109722245D01*
X141467256Y-110484247D01*
X141478132Y-110571506D01*
X141478134Y-110571513D01*
X141525141Y-110678677D01*
X141525143Y-110678681D01*
X141604403Y-110764780D01*
X141650578Y-110789769D01*
X141707322Y-110820478D01*
X141707323Y-110820478D01*
X141707325Y-110820479D01*
X141822756Y-110839741D01*
X141822760Y-110839741D01*
X142474760Y-110839741D01*
X142474761Y-110839740D01*
X142509743Y-110835379D01*
X142562021Y-110828864D01*
X142562023Y-110828863D01*
X142562026Y-110828863D01*
X142669196Y-110781854D01*
X142755295Y-110702594D01*
X142810994Y-110599672D01*
X142830256Y-110484241D01*
X142830256Y-109722241D01*
X142819572Y-109636525D01*
X142819379Y-109634975D01*
X142819377Y-109634968D01*
X142772370Y-109527804D01*
X142772369Y-109527801D01*
X142693109Y-109441702D01*
X142661565Y-109424631D01*
X142590189Y-109386003D01*
X142539932Y-109377617D01*
X142474756Y-109366741D01*
X141822756Y-109366741D01*
X141822749Y-109366741D01*
X141735490Y-109377617D01*
X141735483Y-109377619D01*
X141628319Y-109424626D01*
X141628312Y-109424631D01*
X141542221Y-109503883D01*
X141542215Y-109503891D01*
X141486518Y-109606807D01*
X141482180Y-109632804D01*
X141467256Y-109722241D01*
X141000000Y-109722241D01*
X141000000Y-107704127D01*
X141433372Y-107704127D01*
X141433372Y-107704131D01*
X141433372Y-108466133D01*
X141444248Y-108553392D01*
X141444250Y-108553399D01*
X141478261Y-108630935D01*
X141491259Y-108660567D01*
X141491262Y-108660570D01*
X141540727Y-108714304D01*
X141570519Y-108746666D01*
X141602069Y-108763740D01*
X141673438Y-108802364D01*
X141673439Y-108802364D01*
X141673441Y-108802365D01*
X141788872Y-108821627D01*
X141788876Y-108821627D01*
X142440876Y-108821627D01*
X142440877Y-108821626D01*
X142475859Y-108817265D01*
X142528137Y-108810750D01*
X142528139Y-108810749D01*
X142528142Y-108810749D01*
X142635312Y-108763740D01*
X142721411Y-108684480D01*
X142777110Y-108581558D01*
X142796372Y-108466127D01*
X142796372Y-107704127D01*
X142786626Y-107625935D01*
X142785495Y-107616861D01*
X142785493Y-107616854D01*
X142738486Y-107509690D01*
X142738485Y-107509687D01*
X142659225Y-107423588D01*
X142627681Y-107406517D01*
X142556305Y-107367889D01*
X142506048Y-107359503D01*
X142440872Y-107348627D01*
X141788872Y-107348627D01*
X141788865Y-107348627D01*
X141701606Y-107359503D01*
X141701599Y-107359505D01*
X141594435Y-107406512D01*
X141594428Y-107406517D01*
X141508337Y-107485769D01*
X141508331Y-107485777D01*
X141452634Y-107588693D01*
X141446420Y-107625932D01*
X141433372Y-107704127D01*
X141000000Y-107704127D01*
X141000000Y-105815384D01*
X141433675Y-105815384D01*
X141433675Y-105815388D01*
X141433675Y-106577390D01*
X141444551Y-106664649D01*
X141444553Y-106664656D01*
X141491560Y-106771820D01*
X141491562Y-106771824D01*
X141491565Y-106771827D01*
X141542120Y-106826745D01*
X141570822Y-106857923D01*
X141616997Y-106882912D01*
X141673741Y-106913621D01*
X141673742Y-106913621D01*
X141673744Y-106913622D01*
X141789175Y-106932884D01*
X141789179Y-106932884D01*
X142441179Y-106932884D01*
X142441180Y-106932883D01*
X142476162Y-106928522D01*
X142528440Y-106922007D01*
X142528442Y-106922006D01*
X142528445Y-106922006D01*
X142635615Y-106874997D01*
X142721714Y-106795737D01*
X142777413Y-106692815D01*
X142796675Y-106577384D01*
X142796675Y-105815384D01*
X142791801Y-105776283D01*
X142785798Y-105728118D01*
X142785796Y-105728111D01*
X142738789Y-105620947D01*
X142738788Y-105620944D01*
X142659528Y-105534845D01*
X142627984Y-105517774D01*
X142556608Y-105479146D01*
X142506351Y-105470760D01*
X142441175Y-105459884D01*
X141789175Y-105459884D01*
X141789168Y-105459884D01*
X141701909Y-105470760D01*
X141701902Y-105470762D01*
X141594738Y-105517769D01*
X141594731Y-105517774D01*
X141508640Y-105597026D01*
X141508634Y-105597034D01*
X141452937Y-105699950D01*
X141448238Y-105728111D01*
X141433675Y-105815384D01*
X141000000Y-105815384D01*
X141000000Y-103508546D01*
X141486822Y-103508546D01*
X141486822Y-103508550D01*
X141486822Y-104270552D01*
X141497698Y-104357811D01*
X141497700Y-104357818D01*
X141544707Y-104464982D01*
X141544709Y-104464986D01*
X141623969Y-104551085D01*
X141670144Y-104576074D01*
X141726888Y-104606783D01*
X141726889Y-104606783D01*
X141726891Y-104606784D01*
X141842322Y-104626046D01*
X141842326Y-104626046D01*
X142494326Y-104626046D01*
X142494327Y-104626045D01*
X142529309Y-104621684D01*
X142581587Y-104615169D01*
X142581589Y-104615168D01*
X142581592Y-104615168D01*
X142688762Y-104568159D01*
X142774861Y-104488899D01*
X142830560Y-104385977D01*
X142849822Y-104270546D01*
X142849822Y-103508546D01*
X142844948Y-103469445D01*
X142838945Y-103421280D01*
X142838943Y-103421273D01*
X142798412Y-103328873D01*
X142791935Y-103314106D01*
X142733928Y-103251094D01*
X142712679Y-103228011D01*
X142712677Y-103228010D01*
X142712675Y-103228007D01*
X142681131Y-103210936D01*
X142609755Y-103172308D01*
X142559498Y-103163922D01*
X142494322Y-103153046D01*
X141842322Y-103153046D01*
X141842315Y-103153046D01*
X141755056Y-103163922D01*
X141755049Y-103163924D01*
X141647885Y-103210931D01*
X141647878Y-103210936D01*
X141561787Y-103290188D01*
X141561781Y-103290196D01*
X141506084Y-103393112D01*
X141501385Y-103421273D01*
X141486822Y-103508546D01*
X141000000Y-103508546D01*
X141000000Y-101502787D01*
X141461578Y-101502787D01*
X141461578Y-101502791D01*
X141461578Y-102264793D01*
X141472454Y-102352052D01*
X141472456Y-102352059D01*
X141514213Y-102447254D01*
X141519465Y-102459227D01*
X141598725Y-102545326D01*
X141644900Y-102570315D01*
X141701644Y-102601024D01*
X141701645Y-102601024D01*
X141701647Y-102601025D01*
X141817078Y-102620287D01*
X141817082Y-102620287D01*
X142469082Y-102620287D01*
X142469083Y-102620286D01*
X142504065Y-102615925D01*
X142556343Y-102609410D01*
X142556345Y-102609409D01*
X142556348Y-102609409D01*
X142663518Y-102562400D01*
X142749617Y-102483140D01*
X142805316Y-102380218D01*
X142824578Y-102264787D01*
X142824578Y-101502787D01*
X142817033Y-101442253D01*
X142813701Y-101415521D01*
X142813699Y-101415514D01*
X142766692Y-101308350D01*
X142766691Y-101308347D01*
X142687431Y-101222248D01*
X142655887Y-101205177D01*
X142584511Y-101166549D01*
X142534254Y-101158163D01*
X142469078Y-101147287D01*
X141817078Y-101147287D01*
X141817071Y-101147287D01*
X141729812Y-101158163D01*
X141729805Y-101158165D01*
X141622641Y-101205172D01*
X141622634Y-101205177D01*
X141536543Y-101284429D01*
X141536537Y-101284437D01*
X141480840Y-101387353D01*
X141476141Y-101415514D01*
X141461578Y-101502787D01*
X141000000Y-101502787D01*
X141000000Y-99491410D01*
X141492388Y-99491410D01*
X141492388Y-99491414D01*
X141492388Y-100253416D01*
X141503264Y-100340675D01*
X141503266Y-100340682D01*
X141550273Y-100447846D01*
X141550275Y-100447850D01*
X141629535Y-100533949D01*
X141675710Y-100558938D01*
X141732454Y-100589647D01*
X141732455Y-100589647D01*
X141732457Y-100589648D01*
X141847888Y-100608910D01*
X141847892Y-100608910D01*
X142499892Y-100608910D01*
X142499893Y-100608909D01*
X142534875Y-100604548D01*
X142587153Y-100598033D01*
X142587155Y-100598032D01*
X142587158Y-100598032D01*
X142694328Y-100551023D01*
X142780427Y-100471763D01*
X142832446Y-100375639D01*
X142836125Y-100368843D01*
X142836125Y-100368842D01*
X142836126Y-100368841D01*
X142855388Y-100253410D01*
X142855388Y-99491410D01*
X142850514Y-99452309D01*
X142844511Y-99404144D01*
X142844509Y-99404137D01*
X142820488Y-99349376D01*
X142797501Y-99296970D01*
X142718241Y-99210871D01*
X142686697Y-99193800D01*
X142615321Y-99155172D01*
X142565064Y-99146786D01*
X142499888Y-99135910D01*
X141847888Y-99135910D01*
X141847881Y-99135910D01*
X141760622Y-99146786D01*
X141760615Y-99146788D01*
X141653451Y-99193795D01*
X141653444Y-99193800D01*
X141567353Y-99273052D01*
X141567347Y-99273060D01*
X141511650Y-99375976D01*
X141506951Y-99404137D01*
X141492388Y-99491410D01*
X141000000Y-99491410D01*
X141000000Y-97595930D01*
X141427997Y-97595930D01*
X141427997Y-97595934D01*
X141427997Y-98357936D01*
X141438873Y-98445195D01*
X141438875Y-98445202D01*
X141485882Y-98552366D01*
X141485884Y-98552370D01*
X141565144Y-98638469D01*
X141611319Y-98663458D01*
X141668063Y-98694167D01*
X141668064Y-98694167D01*
X141668066Y-98694168D01*
X141783497Y-98713430D01*
X141783501Y-98713430D01*
X142435501Y-98713430D01*
X142435502Y-98713429D01*
X142470484Y-98709068D01*
X142522762Y-98702553D01*
X142522764Y-98702552D01*
X142522767Y-98702552D01*
X142629937Y-98655543D01*
X142716036Y-98576283D01*
X142771735Y-98473361D01*
X142790997Y-98357930D01*
X142790997Y-97595930D01*
X142786123Y-97556829D01*
X142780120Y-97508664D01*
X142780119Y-97508661D01*
X142762972Y-97469570D01*
X142734148Y-97403856D01*
X143109500Y-97403856D01*
X143109500Y-112496144D01*
X143120763Y-112538178D01*
X143133386Y-112585288D01*
X143133388Y-112585292D01*
X143179529Y-112665210D01*
X143179531Y-112665213D01*
X143244786Y-112730468D01*
X143244789Y-112730470D01*
X143307824Y-112766863D01*
X143324712Y-112776614D01*
X143413856Y-112800500D01*
X143413858Y-112800500D01*
X153506142Y-112800500D01*
X153506144Y-112800500D01*
X153595288Y-112776614D01*
X153675212Y-112730469D01*
X153740469Y-112665212D01*
X153786614Y-112585288D01*
X153810500Y-112496144D01*
X153810500Y-111688906D01*
X154186453Y-111688906D01*
X154186453Y-111688910D01*
X154186453Y-112450912D01*
X154197329Y-112538171D01*
X154197331Y-112538178D01*
X154244338Y-112645342D01*
X154244340Y-112645346D01*
X154244343Y-112645349D01*
X154322701Y-112730469D01*
X154323600Y-112731445D01*
X154355150Y-112748519D01*
X154426519Y-112787143D01*
X154426520Y-112787143D01*
X154426522Y-112787144D01*
X154541953Y-112806406D01*
X154541957Y-112806406D01*
X155193957Y-112806406D01*
X155193958Y-112806405D01*
X155241335Y-112800500D01*
X155281218Y-112795529D01*
X155281220Y-112795528D01*
X155281223Y-112795528D01*
X155388393Y-112748519D01*
X155474492Y-112669259D01*
X155530191Y-112566337D01*
X155549453Y-112450906D01*
X155549453Y-111688906D01*
X155547247Y-111671212D01*
X155538576Y-111601640D01*
X155538574Y-111601633D01*
X155491567Y-111494469D01*
X155491566Y-111494466D01*
X155412306Y-111408367D01*
X155380762Y-111391296D01*
X155309386Y-111352668D01*
X155259129Y-111344282D01*
X155193953Y-111333406D01*
X154541953Y-111333406D01*
X154541946Y-111333406D01*
X154454687Y-111344282D01*
X154454680Y-111344284D01*
X154347516Y-111391291D01*
X154347509Y-111391296D01*
X154261418Y-111470548D01*
X154261412Y-111470556D01*
X154205715Y-111573472D01*
X154201016Y-111601633D01*
X154186453Y-111688906D01*
X153810500Y-111688906D01*
X153810500Y-109683147D01*
X154161209Y-109683147D01*
X154161209Y-109683151D01*
X154161209Y-110445153D01*
X154172085Y-110532412D01*
X154172087Y-110532419D01*
X154219094Y-110639583D01*
X154219096Y-110639587D01*
X154219099Y-110639590D01*
X154277094Y-110702590D01*
X154298356Y-110725686D01*
X154329906Y-110742760D01*
X154401275Y-110781384D01*
X154401276Y-110781384D01*
X154401278Y-110781385D01*
X154516709Y-110800647D01*
X154516713Y-110800647D01*
X155168713Y-110800647D01*
X155168714Y-110800646D01*
X155203696Y-110796285D01*
X155255974Y-110789770D01*
X155255976Y-110789769D01*
X155255979Y-110789769D01*
X155363149Y-110742760D01*
X155449248Y-110663500D01*
X155504947Y-110560578D01*
X155524209Y-110445147D01*
X155524209Y-109683147D01*
X155518398Y-109636525D01*
X155513332Y-109595881D01*
X155513330Y-109595874D01*
X155466323Y-109488710D01*
X155466322Y-109488707D01*
X155387062Y-109402608D01*
X155355518Y-109385537D01*
X155284142Y-109346909D01*
X155233885Y-109338523D01*
X155168709Y-109327647D01*
X154516709Y-109327647D01*
X154516702Y-109327647D01*
X154429443Y-109338523D01*
X154429436Y-109338525D01*
X154322272Y-109385532D01*
X154322265Y-109385537D01*
X154236174Y-109464789D01*
X154236168Y-109464797D01*
X154180471Y-109567713D01*
X154175772Y-109595874D01*
X154161209Y-109683147D01*
X153810500Y-109683147D01*
X153810500Y-107671770D01*
X154192019Y-107671770D01*
X154192019Y-107671774D01*
X154192019Y-108433776D01*
X154202895Y-108521035D01*
X154202897Y-108521042D01*
X154229443Y-108581560D01*
X154249906Y-108628210D01*
X154249909Y-108628213D01*
X154316977Y-108701069D01*
X154329166Y-108714309D01*
X154360716Y-108731383D01*
X154432085Y-108770007D01*
X154432086Y-108770007D01*
X154432088Y-108770008D01*
X154547519Y-108789270D01*
X154547523Y-108789270D01*
X155199523Y-108789270D01*
X155199524Y-108789269D01*
X155234506Y-108784908D01*
X155286784Y-108778393D01*
X155286786Y-108778392D01*
X155286789Y-108778392D01*
X155393959Y-108731383D01*
X155480058Y-108652123D01*
X155535757Y-108549201D01*
X155555019Y-108433770D01*
X155555019Y-107671770D01*
X155549306Y-107625935D01*
X155544142Y-107584504D01*
X155544140Y-107584497D01*
X155500836Y-107485774D01*
X155497132Y-107477330D01*
X155417872Y-107391231D01*
X155386328Y-107374160D01*
X155314952Y-107335532D01*
X155264695Y-107327146D01*
X155199519Y-107316270D01*
X154547519Y-107316270D01*
X154547512Y-107316270D01*
X154460253Y-107327146D01*
X154460246Y-107327148D01*
X154353082Y-107374155D01*
X154353075Y-107374160D01*
X154266984Y-107453412D01*
X154266978Y-107453420D01*
X154211281Y-107556336D01*
X154203025Y-107605809D01*
X154192019Y-107671770D01*
X153810500Y-107671770D01*
X153810500Y-105776290D01*
X154127628Y-105776290D01*
X154127628Y-105776294D01*
X154127628Y-106538296D01*
X154138504Y-106625555D01*
X154138506Y-106625562D01*
X154171625Y-106701064D01*
X154185515Y-106732730D01*
X154185518Y-106732733D01*
X154243513Y-106795733D01*
X154264775Y-106818829D01*
X154296325Y-106835903D01*
X154367694Y-106874527D01*
X154367695Y-106874527D01*
X154367697Y-106874528D01*
X154483128Y-106893790D01*
X154483132Y-106893790D01*
X155135132Y-106893790D01*
X155135133Y-106893789D01*
X155170115Y-106889428D01*
X155222393Y-106882913D01*
X155222395Y-106882912D01*
X155222398Y-106882912D01*
X155329568Y-106835903D01*
X155415667Y-106756643D01*
X155471366Y-106653721D01*
X155490628Y-106538290D01*
X155490628Y-105776290D01*
X155487858Y-105754064D01*
X155479751Y-105689024D01*
X155479749Y-105689017D01*
X155432742Y-105581853D01*
X155432741Y-105581850D01*
X155357628Y-105500256D01*
X155353485Y-105495755D01*
X155353483Y-105495754D01*
X155353481Y-105495751D01*
X155321937Y-105478680D01*
X155250561Y-105440052D01*
X155200304Y-105431666D01*
X155135128Y-105420790D01*
X154483128Y-105420790D01*
X154483121Y-105420790D01*
X154395862Y-105431666D01*
X154395855Y-105431668D01*
X154288691Y-105478675D01*
X154288684Y-105478680D01*
X154202593Y-105557932D01*
X154202587Y-105557940D01*
X154146890Y-105660856D01*
X154142191Y-105689017D01*
X154127628Y-105776290D01*
X153810500Y-105776290D01*
X153810500Y-103469452D01*
X154180775Y-103469452D01*
X154180775Y-103469456D01*
X154180775Y-104231458D01*
X154191651Y-104318717D01*
X154191653Y-104318724D01*
X154238660Y-104425888D01*
X154238662Y-104425892D01*
X154238665Y-104425895D01*
X154296660Y-104488895D01*
X154317922Y-104511991D01*
X154349472Y-104529065D01*
X154420841Y-104567689D01*
X154420842Y-104567689D01*
X154420844Y-104567690D01*
X154536275Y-104586952D01*
X154536279Y-104586952D01*
X155188279Y-104586952D01*
X155188280Y-104586951D01*
X155223262Y-104582590D01*
X155275540Y-104576075D01*
X155275542Y-104576074D01*
X155275545Y-104576074D01*
X155382715Y-104529065D01*
X155468814Y-104449805D01*
X155524513Y-104346883D01*
X155543775Y-104231452D01*
X155543775Y-103469452D01*
X155541008Y-103447253D01*
X155532898Y-103382186D01*
X155532896Y-103382179D01*
X155492545Y-103290188D01*
X155485888Y-103275012D01*
X155406628Y-103188913D01*
X155375084Y-103171842D01*
X155303708Y-103133214D01*
X155253451Y-103124828D01*
X155188275Y-103113952D01*
X154536275Y-103113952D01*
X154536268Y-103113952D01*
X154449009Y-103124828D01*
X154449002Y-103124830D01*
X154341838Y-103171837D01*
X154341831Y-103171842D01*
X154255740Y-103251094D01*
X154255734Y-103251102D01*
X154200037Y-103354018D01*
X154195389Y-103381873D01*
X154180775Y-103469452D01*
X153810500Y-103469452D01*
X153810500Y-101463693D01*
X154155531Y-101463693D01*
X154155531Y-101463697D01*
X154155531Y-102225699D01*
X154166407Y-102312958D01*
X154166409Y-102312965D01*
X154213416Y-102420129D01*
X154213418Y-102420133D01*
X154213421Y-102420136D01*
X154287176Y-102500256D01*
X154292678Y-102506232D01*
X154324228Y-102523306D01*
X154395597Y-102561930D01*
X154395598Y-102561930D01*
X154395600Y-102561931D01*
X154511031Y-102581193D01*
X154511035Y-102581193D01*
X155163035Y-102581193D01*
X155163036Y-102581192D01*
X155198018Y-102576831D01*
X155250296Y-102570316D01*
X155250298Y-102570315D01*
X155250301Y-102570315D01*
X155357471Y-102523306D01*
X155443570Y-102444046D01*
X155499269Y-102341124D01*
X155518531Y-102225693D01*
X155518531Y-101463693D01*
X155515859Y-101442253D01*
X155507654Y-101376427D01*
X155507652Y-101376420D01*
X155463310Y-101275331D01*
X155460644Y-101269253D01*
X155412846Y-101217331D01*
X155381388Y-101183158D01*
X155381386Y-101183157D01*
X155381384Y-101183154D01*
X155349840Y-101166083D01*
X155278464Y-101127455D01*
X155228207Y-101119069D01*
X155163031Y-101108193D01*
X154511031Y-101108193D01*
X154511024Y-101108193D01*
X154423765Y-101119069D01*
X154423758Y-101119071D01*
X154316594Y-101166078D01*
X154316587Y-101166083D01*
X154230496Y-101245335D01*
X154230490Y-101245343D01*
X154174793Y-101348259D01*
X154169184Y-101381873D01*
X154155531Y-101463693D01*
X153810500Y-101463693D01*
X153810500Y-99452316D01*
X154186341Y-99452316D01*
X154186341Y-99452320D01*
X154186341Y-100214322D01*
X154197217Y-100301581D01*
X154197219Y-100301588D01*
X154244226Y-100408752D01*
X154244228Y-100408756D01*
X154244231Y-100408759D01*
X154302226Y-100471759D01*
X154323488Y-100494855D01*
X154355038Y-100511929D01*
X154426407Y-100550553D01*
X154426408Y-100550553D01*
X154426410Y-100550554D01*
X154541841Y-100569816D01*
X154541845Y-100569816D01*
X155193845Y-100569816D01*
X155193846Y-100569815D01*
X155228828Y-100565454D01*
X155281106Y-100558939D01*
X155281108Y-100558938D01*
X155281111Y-100558938D01*
X155388281Y-100511929D01*
X155474380Y-100432669D01*
X155530079Y-100329747D01*
X155549341Y-100214316D01*
X155549341Y-99452316D01*
X155547135Y-99434622D01*
X155538464Y-99365050D01*
X155538462Y-99365043D01*
X155491455Y-99257879D01*
X155491454Y-99257876D01*
X155412194Y-99171777D01*
X155380650Y-99154706D01*
X155309274Y-99116078D01*
X155259017Y-99107692D01*
X155193841Y-99096816D01*
X154541841Y-99096816D01*
X154541834Y-99096816D01*
X154454575Y-99107692D01*
X154454568Y-99107694D01*
X154347404Y-99154701D01*
X154347397Y-99154706D01*
X154261306Y-99233958D01*
X154261300Y-99233966D01*
X154205603Y-99336882D01*
X154200904Y-99365043D01*
X154186341Y-99452316D01*
X153810500Y-99452316D01*
X153810500Y-97556836D01*
X154121950Y-97556836D01*
X154121950Y-97556840D01*
X154121950Y-98318842D01*
X154132826Y-98406101D01*
X154132828Y-98406108D01*
X154179835Y-98513272D01*
X154179837Y-98513276D01*
X154179840Y-98513279D01*
X154237835Y-98576279D01*
X154259097Y-98599375D01*
X154290647Y-98616449D01*
X154362016Y-98655073D01*
X154362017Y-98655073D01*
X154362019Y-98655074D01*
X154477450Y-98674336D01*
X154477454Y-98674336D01*
X155129454Y-98674336D01*
X155129455Y-98674335D01*
X155164437Y-98669974D01*
X155216715Y-98663459D01*
X155216717Y-98663458D01*
X155216720Y-98663458D01*
X155323890Y-98616449D01*
X155409989Y-98537189D01*
X155465688Y-98434267D01*
X155484950Y-98318836D01*
X155484950Y-97556836D01*
X155482744Y-97539142D01*
X155474073Y-97469570D01*
X155474071Y-97469563D01*
X155427064Y-97362399D01*
X155427063Y-97362396D01*
X155347803Y-97276297D01*
X155316259Y-97259226D01*
X155244883Y-97220598D01*
X155194626Y-97212212D01*
X155129450Y-97201336D01*
X154477450Y-97201336D01*
X154477443Y-97201336D01*
X154390184Y-97212212D01*
X154390177Y-97212214D01*
X154283013Y-97259221D01*
X154283006Y-97259226D01*
X154196915Y-97338478D01*
X154196909Y-97338486D01*
X154141212Y-97441402D01*
X154140410Y-97446209D01*
X154121950Y-97556836D01*
X153810500Y-97556836D01*
X153810500Y-97403856D01*
X153786614Y-97314712D01*
X153750006Y-97251306D01*
X153740470Y-97234789D01*
X153740468Y-97234786D01*
X153675213Y-97169531D01*
X153675210Y-97169529D01*
X153595292Y-97123388D01*
X153595288Y-97123386D01*
X153506144Y-97099500D01*
X143506144Y-97099500D01*
X143413856Y-97099500D01*
X143354426Y-97115424D01*
X143324711Y-97123386D01*
X143324707Y-97123388D01*
X143244789Y-97169529D01*
X143244786Y-97169531D01*
X143179531Y-97234786D01*
X143179529Y-97234789D01*
X143133388Y-97314707D01*
X143133386Y-97314711D01*
X143127016Y-97338486D01*
X143109500Y-97403856D01*
X142734148Y-97403856D01*
X142733110Y-97401490D01*
X142653850Y-97315391D01*
X142622306Y-97298320D01*
X142550930Y-97259692D01*
X142500673Y-97251306D01*
X142435497Y-97240430D01*
X141783497Y-97240430D01*
X141783490Y-97240430D01*
X141696231Y-97251306D01*
X141696224Y-97251308D01*
X141589060Y-97298315D01*
X141589053Y-97298320D01*
X141502962Y-97377572D01*
X141502956Y-97377580D01*
X141447259Y-97480496D01*
X141442559Y-97508664D01*
X141427997Y-97595930D01*
X141000000Y-97595930D01*
X141000000Y-95747418D01*
X141409943Y-95747418D01*
X141409943Y-95747422D01*
X141409943Y-96509424D01*
X141420819Y-96596683D01*
X141420821Y-96596690D01*
X141464735Y-96696803D01*
X141467830Y-96703858D01*
X141489840Y-96727767D01*
X141534300Y-96776064D01*
X141547090Y-96789957D01*
X141592787Y-96814687D01*
X141650009Y-96845655D01*
X141650010Y-96845655D01*
X141650012Y-96845656D01*
X141765443Y-96864918D01*
X141765447Y-96864918D01*
X142417447Y-96864918D01*
X142417448Y-96864917D01*
X142452430Y-96860556D01*
X142504708Y-96854041D01*
X142504710Y-96854040D01*
X142504713Y-96854040D01*
X142611883Y-96807031D01*
X142697982Y-96727771D01*
X142753681Y-96624849D01*
X142772943Y-96509418D01*
X142772943Y-95747418D01*
X142770376Y-95726822D01*
X142770376Y-95726819D01*
X142769083Y-95716450D01*
X143203404Y-95716450D01*
X143203404Y-95716454D01*
X143203404Y-96478456D01*
X143214280Y-96565715D01*
X143214282Y-96565722D01*
X143261289Y-96672886D01*
X143261291Y-96672890D01*
X143271650Y-96684143D01*
X143338097Y-96756324D01*
X143340551Y-96758989D01*
X143372101Y-96776063D01*
X143443470Y-96814687D01*
X143443471Y-96814687D01*
X143443473Y-96814688D01*
X143558904Y-96833950D01*
X143558908Y-96833950D01*
X144210908Y-96833950D01*
X144210909Y-96833949D01*
X144245891Y-96829588D01*
X144298169Y-96823073D01*
X144298171Y-96823072D01*
X144298174Y-96823072D01*
X144405344Y-96776063D01*
X144491443Y-96696803D01*
X144547142Y-96593881D01*
X144566404Y-96478450D01*
X144566404Y-95716450D01*
X144566402Y-95716434D01*
X144566119Y-95714157D01*
X144566119Y-95714156D01*
X144564827Y-95703790D01*
X145119224Y-95703790D01*
X145119224Y-95703794D01*
X145119224Y-96465796D01*
X145130100Y-96553055D01*
X145130102Y-96553062D01*
X145177109Y-96660226D01*
X145177111Y-96660230D01*
X145197391Y-96682260D01*
X145254634Y-96744443D01*
X145256371Y-96746329D01*
X145287921Y-96763403D01*
X145359290Y-96802027D01*
X145359291Y-96802027D01*
X145359293Y-96802028D01*
X145474724Y-96821290D01*
X145474728Y-96821290D01*
X146126728Y-96821290D01*
X146126729Y-96821289D01*
X146161711Y-96816928D01*
X146213989Y-96810413D01*
X146213991Y-96810412D01*
X146213994Y-96810412D01*
X146321164Y-96763403D01*
X146407263Y-96684143D01*
X146462962Y-96581221D01*
X146482224Y-96465790D01*
X146482224Y-95703790D01*
X146481989Y-95701907D01*
X146481020Y-95694129D01*
X146829757Y-95694129D01*
X146829757Y-95694133D01*
X146829757Y-96456135D01*
X146840633Y-96543394D01*
X146840635Y-96543401D01*
X146886669Y-96648346D01*
X146887644Y-96650569D01*
X146905740Y-96670226D01*
X146964855Y-96734443D01*
X146966904Y-96736668D01*
X147008151Y-96758990D01*
X147069823Y-96792366D01*
X147069824Y-96792366D01*
X147069826Y-96792367D01*
X147185257Y-96811629D01*
X147185261Y-96811629D01*
X147837261Y-96811629D01*
X147837262Y-96811628D01*
X147874177Y-96807027D01*
X147924522Y-96800752D01*
X147924524Y-96800751D01*
X147924527Y-96800751D01*
X148031697Y-96753742D01*
X148117796Y-96674482D01*
X148173495Y-96571560D01*
X148192757Y-96456129D01*
X148192757Y-95701903D01*
X148650015Y-95701903D01*
X148650015Y-95701907D01*
X148650015Y-96463909D01*
X148660891Y-96551168D01*
X148660893Y-96551175D01*
X148703517Y-96648346D01*
X148707902Y-96658343D01*
X148709639Y-96660230D01*
X148780005Y-96736668D01*
X148787162Y-96744442D01*
X148838623Y-96772291D01*
X148890081Y-96800140D01*
X148890082Y-96800140D01*
X148890084Y-96800141D01*
X149005515Y-96819403D01*
X149005519Y-96819403D01*
X149657519Y-96819403D01*
X149657520Y-96819402D01*
X149695350Y-96814687D01*
X149744780Y-96808526D01*
X149744782Y-96808525D01*
X149744785Y-96808525D01*
X149851955Y-96761516D01*
X149938054Y-96682256D01*
X149993753Y-96579334D01*
X150013015Y-96463903D01*
X150013015Y-95701903D01*
X150013015Y-95701899D01*
X150011769Y-95691903D01*
X150360548Y-95691903D01*
X150360548Y-95691907D01*
X150360548Y-96453909D01*
X150371424Y-96541168D01*
X150371426Y-96541175D01*
X150414296Y-96638907D01*
X150418435Y-96648343D01*
X150438586Y-96670233D01*
X150497363Y-96734082D01*
X150497695Y-96734442D01*
X150547716Y-96761512D01*
X150600614Y-96790140D01*
X150600615Y-96790140D01*
X150600617Y-96790141D01*
X150716048Y-96809403D01*
X150716052Y-96809403D01*
X151368052Y-96809403D01*
X151368053Y-96809402D01*
X151403035Y-96805041D01*
X151455313Y-96798526D01*
X151455315Y-96798525D01*
X151455318Y-96798525D01*
X151562488Y-96751516D01*
X151648587Y-96672256D01*
X151704286Y-96569334D01*
X151723548Y-96453903D01*
X151723548Y-95713790D01*
X152315259Y-95713790D01*
X152315259Y-95713794D01*
X152315259Y-96475796D01*
X152326135Y-96563055D01*
X152326137Y-96563062D01*
X152368761Y-96660233D01*
X152373146Y-96670230D01*
X152385950Y-96684139D01*
X152450020Y-96753738D01*
X152452406Y-96756329D01*
X152483956Y-96773403D01*
X152555325Y-96812027D01*
X152555326Y-96812027D01*
X152555328Y-96812028D01*
X152670759Y-96831290D01*
X152670763Y-96831290D01*
X153322763Y-96831290D01*
X153322764Y-96831289D01*
X153357746Y-96826928D01*
X153410024Y-96820413D01*
X153410026Y-96820412D01*
X153410029Y-96820412D01*
X153517199Y-96773403D01*
X153603298Y-96694143D01*
X153657556Y-96593883D01*
X153658996Y-96591223D01*
X153658996Y-96591222D01*
X153658997Y-96591221D01*
X153678259Y-96475790D01*
X153678259Y-95713790D01*
X153677012Y-95703788D01*
X153674651Y-95684843D01*
X153674651Y-95684842D01*
X153673358Y-95674468D01*
X154104437Y-95674468D01*
X154104437Y-95674472D01*
X154104437Y-96436474D01*
X154115313Y-96523733D01*
X154115315Y-96523740D01*
X154159666Y-96624849D01*
X154162324Y-96630908D01*
X154178374Y-96648343D01*
X154238828Y-96714014D01*
X154241584Y-96717007D01*
X154273134Y-96734081D01*
X154344503Y-96772705D01*
X154344504Y-96772705D01*
X154344506Y-96772706D01*
X154459937Y-96791968D01*
X154459941Y-96791968D01*
X155111941Y-96791968D01*
X155111942Y-96791967D01*
X155146924Y-96787606D01*
X155199202Y-96781091D01*
X155199204Y-96781090D01*
X155199207Y-96781090D01*
X155306377Y-96734081D01*
X155392476Y-96654821D01*
X155448175Y-96551899D01*
X155467437Y-96436468D01*
X155467437Y-95674468D01*
X155462142Y-95631987D01*
X155456560Y-95587202D01*
X155456558Y-95587195D01*
X155427963Y-95522006D01*
X155409550Y-95480028D01*
X155357281Y-95423249D01*
X155330294Y-95393933D01*
X155330292Y-95393932D01*
X155330290Y-95393929D01*
X155316693Y-95386570D01*
X155227370Y-95338230D01*
X155177113Y-95329844D01*
X155111937Y-95318968D01*
X154459937Y-95318968D01*
X154459930Y-95318968D01*
X154372671Y-95329844D01*
X154372664Y-95329846D01*
X154265500Y-95376853D01*
X154265493Y-95376858D01*
X154179402Y-95456110D01*
X154179396Y-95456118D01*
X154123699Y-95559034D01*
X154118806Y-95588359D01*
X154104437Y-95674468D01*
X153673358Y-95674468D01*
X153667713Y-95629184D01*
X153667381Y-95626520D01*
X153662996Y-95616524D01*
X153635984Y-95554942D01*
X153620372Y-95519350D01*
X153556349Y-95449803D01*
X153541116Y-95433255D01*
X153541114Y-95433254D01*
X153541112Y-95433251D01*
X153514483Y-95418840D01*
X153438192Y-95377552D01*
X153387935Y-95369166D01*
X153322759Y-95358290D01*
X152670759Y-95358290D01*
X152670752Y-95358290D01*
X152583493Y-95369166D01*
X152583486Y-95369168D01*
X152476322Y-95416175D01*
X152476315Y-95416180D01*
X152390224Y-95495432D01*
X152390218Y-95495440D01*
X152334521Y-95598356D01*
X152329822Y-95626517D01*
X152315259Y-95713790D01*
X151723548Y-95713790D01*
X151723548Y-95691903D01*
X151719590Y-95660148D01*
X151712671Y-95604637D01*
X151712669Y-95604630D01*
X151679521Y-95529060D01*
X151665661Y-95497463D01*
X151606553Y-95433255D01*
X151586405Y-95411368D01*
X151586403Y-95411367D01*
X151586401Y-95411364D01*
X151558970Y-95396519D01*
X151483481Y-95355665D01*
X151433224Y-95347279D01*
X151368048Y-95336403D01*
X150716048Y-95336403D01*
X150716041Y-95336403D01*
X150628782Y-95347279D01*
X150628775Y-95347281D01*
X150521611Y-95394288D01*
X150521604Y-95394293D01*
X150435513Y-95473545D01*
X150435507Y-95473553D01*
X150379810Y-95576469D01*
X150371554Y-95625942D01*
X150360548Y-95691903D01*
X150011769Y-95691903D01*
X150002138Y-95614637D01*
X150002136Y-95614630D01*
X149960340Y-95519346D01*
X149955128Y-95507463D01*
X149889258Y-95435909D01*
X149875872Y-95421368D01*
X149875870Y-95421367D01*
X149875868Y-95421364D01*
X149847805Y-95406177D01*
X149772948Y-95365665D01*
X149728750Y-95358290D01*
X149657515Y-95346403D01*
X149005515Y-95346403D01*
X149005508Y-95346403D01*
X148918249Y-95357279D01*
X148918242Y-95357281D01*
X148811078Y-95404288D01*
X148811071Y-95404293D01*
X148724980Y-95483545D01*
X148724974Y-95483553D01*
X148669277Y-95586469D01*
X148662151Y-95629177D01*
X148650015Y-95701903D01*
X148192757Y-95701903D01*
X148192757Y-95694129D01*
X148190305Y-95674461D01*
X148181880Y-95606863D01*
X148181878Y-95606856D01*
X148143492Y-95519346D01*
X148134870Y-95499689D01*
X148073709Y-95433251D01*
X148055614Y-95413594D01*
X148055612Y-95413593D01*
X148055610Y-95413590D01*
X148024066Y-95396519D01*
X147952690Y-95357891D01*
X147902433Y-95349505D01*
X147837257Y-95338629D01*
X147185257Y-95338629D01*
X147185250Y-95338629D01*
X147097991Y-95349505D01*
X147097984Y-95349507D01*
X146990820Y-95396514D01*
X146990813Y-95396519D01*
X146904722Y-95475771D01*
X146904716Y-95475779D01*
X146849019Y-95578695D01*
X146843022Y-95614637D01*
X146829757Y-95694129D01*
X146481020Y-95694129D01*
X146473274Y-95631987D01*
X146471346Y-95616520D01*
X146470518Y-95614633D01*
X146432985Y-95529065D01*
X146424337Y-95509350D01*
X146356735Y-95435915D01*
X146345081Y-95423255D01*
X146345079Y-95423254D01*
X146345077Y-95423251D01*
X146327225Y-95413590D01*
X146242157Y-95367552D01*
X146191900Y-95359166D01*
X146126724Y-95348290D01*
X145474724Y-95348290D01*
X145474717Y-95348290D01*
X145387458Y-95359166D01*
X145387451Y-95359168D01*
X145280287Y-95406175D01*
X145280280Y-95406180D01*
X145194189Y-95485432D01*
X145194183Y-95485440D01*
X145138486Y-95588356D01*
X145131206Y-95631984D01*
X145119224Y-95703790D01*
X144564827Y-95703790D01*
X144559193Y-95658599D01*
X144555526Y-95629180D01*
X144554359Y-95626520D01*
X144525302Y-95560277D01*
X144508517Y-95522010D01*
X144442050Y-95449808D01*
X144429261Y-95435915D01*
X144429259Y-95435914D01*
X144429257Y-95435911D01*
X144397713Y-95418840D01*
X144326337Y-95380212D01*
X144276080Y-95371826D01*
X144210904Y-95360950D01*
X143558904Y-95360950D01*
X143558897Y-95360950D01*
X143471638Y-95371826D01*
X143471631Y-95371828D01*
X143364467Y-95418835D01*
X143364460Y-95418840D01*
X143278369Y-95498092D01*
X143278363Y-95498100D01*
X143222666Y-95601016D01*
X143218410Y-95626524D01*
X143203404Y-95716450D01*
X142769083Y-95716450D01*
X142762065Y-95660152D01*
X142762065Y-95660148D01*
X142749712Y-95631987D01*
X142734961Y-95598356D01*
X142715056Y-95552978D01*
X142664530Y-95498092D01*
X142635800Y-95466883D01*
X142635798Y-95466882D01*
X142635796Y-95466879D01*
X142604252Y-95449808D01*
X142532876Y-95411180D01*
X142482619Y-95402794D01*
X142417443Y-95391918D01*
X141765443Y-95391918D01*
X141765436Y-95391918D01*
X141678177Y-95402794D01*
X141678170Y-95402796D01*
X141571006Y-95449803D01*
X141570999Y-95449808D01*
X141484908Y-95529060D01*
X141484902Y-95529068D01*
X141429205Y-95631984D01*
X141421377Y-95678896D01*
X141409943Y-95747418D01*
X141000000Y-95747418D01*
X141000000Y-95126000D01*
X141020002Y-95057879D01*
X141073658Y-95011386D01*
X141126000Y-95000000D01*
X155874000Y-95000000D01*
X155942121Y-95020002D01*
G37*
%TD.AperFunction*%
%TA.AperFunction,NonConductor*%
G36*
X133795367Y-94254031D02*
G01*
X133828950Y-94309443D01*
X133900241Y-94552932D01*
X133900244Y-94552940D01*
X133900245Y-94552942D01*
X133959195Y-94695537D01*
X134035252Y-94879515D01*
X134204415Y-95189765D01*
X134204420Y-95189773D01*
X134405800Y-95480144D01*
X134405802Y-95480146D01*
X134405805Y-95480150D01*
X134637098Y-95747320D01*
X134895644Y-95988214D01*
X134895647Y-95988216D01*
X134895649Y-95988218D01*
X135178474Y-96200067D01*
X135482340Y-96380447D01*
X135482342Y-96380448D01*
X135482349Y-96380452D01*
X135803774Y-96527293D01*
X136139057Y-96638905D01*
X136139059Y-96638906D01*
X136139061Y-96638906D01*
X136139063Y-96638907D01*
X136484368Y-96714014D01*
X136835726Y-96751750D01*
X137189104Y-96751684D01*
X137540448Y-96713816D01*
X137885725Y-96638581D01*
X138220972Y-96526841D01*
X138220984Y-96526835D01*
X138220988Y-96526834D01*
X138477408Y-96409574D01*
X138542342Y-96379880D01*
X138846147Y-96199384D01*
X139128900Y-95987424D01*
X139387357Y-95746433D01*
X139618550Y-95479177D01*
X139819828Y-95188722D01*
X139963354Y-94925257D01*
X140013506Y-94875007D01*
X140082865Y-94859847D01*
X140149410Y-94884593D01*
X140192012Y-94941386D01*
X140200000Y-94985535D01*
X140200000Y-114701351D01*
X140179998Y-114769472D01*
X140126342Y-114815965D01*
X140056068Y-114826069D01*
X139991488Y-114796575D01*
X139964949Y-114764469D01*
X139891367Y-114637340D01*
X139828046Y-114527938D01*
X139819170Y-114515865D01*
X139615721Y-114239132D01*
X139373163Y-113975199D01*
X139264564Y-113880276D01*
X139103276Y-113739300D01*
X138809269Y-113534237D01*
X138796379Y-113527199D01*
X138494656Y-113362460D01*
X138494646Y-113362456D01*
X138163186Y-113226018D01*
X138163182Y-113226016D01*
X138163180Y-113226016D01*
X137990992Y-113176276D01*
X137818799Y-113126534D01*
X137465635Y-113065204D01*
X137433111Y-113063163D01*
X137107882Y-113042753D01*
X137107876Y-113042753D01*
X137107872Y-113042753D01*
X137107868Y-113042752D01*
X136749823Y-113059449D01*
X136749819Y-113059449D01*
X136395701Y-113115096D01*
X136049778Y-113209026D01*
X136049767Y-113209030D01*
X135716159Y-113340120D01*
X135716148Y-113340125D01*
X135398823Y-113506816D01*
X135398811Y-113506823D01*
X135101548Y-113707132D01*
X134827906Y-113938661D01*
X134827890Y-113938675D01*
X134581135Y-114198659D01*
X134364190Y-114484021D01*
X134364184Y-114484030D01*
X134179667Y-114791323D01*
X134029753Y-115116927D01*
X133916241Y-115456939D01*
X133845715Y-115783114D01*
X133837140Y-115798864D01*
X133833402Y-115816404D01*
X133820517Y-115829396D01*
X133811768Y-115845469D01*
X133796036Y-115854084D01*
X133783411Y-115866817D01*
X133765549Y-115870781D01*
X133749499Y-115879572D01*
X133731608Y-115878315D01*
X133714101Y-115882201D01*
X133696929Y-115875878D01*
X133678677Y-115874596D01*
X133664218Y-115863834D01*
X133647477Y-115857670D01*
X133622011Y-115832418D01*
X133609918Y-115816404D01*
X133563463Y-115754888D01*
X133560084Y-115750191D01*
X133359202Y-115456940D01*
X133143546Y-115142121D01*
X133082878Y-115053556D01*
X133079701Y-115048679D01*
X132734665Y-114491427D01*
X132635195Y-114330777D01*
X132632248Y-114325762D01*
X132583995Y-114239132D01*
X132287674Y-113707132D01*
X132221373Y-113588099D01*
X132218658Y-113582950D01*
X131957986Y-113059450D01*
X131842267Y-112827055D01*
X131839797Y-112821792D01*
X131498729Y-112049348D01*
X131496510Y-112043988D01*
X131191476Y-111256605D01*
X131189511Y-111251166D01*
X130921155Y-110450500D01*
X130919442Y-110444968D01*
X130688362Y-109632804D01*
X130686899Y-109627171D01*
X130682110Y-109606810D01*
X130493573Y-108805198D01*
X130492382Y-108799558D01*
X130337213Y-107969475D01*
X130336287Y-107963801D01*
X130219621Y-107127448D01*
X130218957Y-107121728D01*
X130141042Y-106280885D01*
X130140641Y-106275098D01*
X130140376Y-106269371D01*
X130101644Y-105431603D01*
X130101510Y-105425784D01*
X130101510Y-104581415D01*
X130101644Y-104575596D01*
X130106758Y-104464982D01*
X130140642Y-103732079D01*
X130141042Y-103726317D01*
X130155255Y-103572931D01*
X131262550Y-103572931D01*
X131262550Y-103701069D01*
X131287549Y-103826744D01*
X131336585Y-103945127D01*
X131407774Y-104051669D01*
X131407780Y-104051675D01*
X131411697Y-104056448D01*
X131409610Y-104058160D01*
X131438036Y-104110217D01*
X131432971Y-104181032D01*
X131410258Y-104216371D01*
X131411697Y-104217552D01*
X131407771Y-104222335D01*
X131343368Y-104318722D01*
X131336585Y-104328873D01*
X131324596Y-104357816D01*
X131287550Y-104447253D01*
X131287549Y-104447254D01*
X131277007Y-104500253D01*
X131262550Y-104572931D01*
X131262550Y-104701069D01*
X131287549Y-104826744D01*
X131336585Y-104945127D01*
X131407774Y-105051669D01*
X131407780Y-105051675D01*
X131411697Y-105056448D01*
X131409610Y-105058160D01*
X131438036Y-105110217D01*
X131432971Y-105181032D01*
X131410258Y-105216371D01*
X131411697Y-105217552D01*
X131407771Y-105222335D01*
X131336586Y-105328871D01*
X131287550Y-105447253D01*
X131287549Y-105447254D01*
X131277903Y-105495749D01*
X131262550Y-105572931D01*
X131262550Y-105701069D01*
X131287549Y-105826744D01*
X131336585Y-105945127D01*
X131407774Y-106051669D01*
X131407780Y-106051675D01*
X131411697Y-106056448D01*
X131409610Y-106058160D01*
X131438036Y-106110217D01*
X131432971Y-106181032D01*
X131410258Y-106216371D01*
X131411697Y-106217552D01*
X131407771Y-106222335D01*
X131336586Y-106328871D01*
X131287550Y-106447253D01*
X131287549Y-106447254D01*
X131287549Y-106447256D01*
X131262550Y-106572931D01*
X131262550Y-106701069D01*
X131276624Y-106771820D01*
X131285974Y-106818829D01*
X131287549Y-106826744D01*
X131336585Y-106945127D01*
X131407774Y-107051669D01*
X131407780Y-107051675D01*
X131411697Y-107056448D01*
X131409610Y-107058160D01*
X131438036Y-107110217D01*
X131432971Y-107181032D01*
X131410258Y-107216371D01*
X131411697Y-107217552D01*
X131407771Y-107222335D01*
X131336586Y-107328871D01*
X131287550Y-107447253D01*
X131287549Y-107447254D01*
X131281566Y-107477333D01*
X131262550Y-107572931D01*
X131262550Y-107701069D01*
X131287549Y-107826744D01*
X131336585Y-107945127D01*
X131407774Y-108051669D01*
X131407780Y-108051675D01*
X131411697Y-108056448D01*
X131409610Y-108058160D01*
X131438036Y-108110217D01*
X131432971Y-108181032D01*
X131410258Y-108216371D01*
X131411697Y-108217552D01*
X131407771Y-108222335D01*
X131336586Y-108328871D01*
X131287550Y-108447253D01*
X131287549Y-108447254D01*
X131262550Y-108572932D01*
X131262550Y-108701067D01*
X131284367Y-108810750D01*
X131287549Y-108826744D01*
X131336585Y-108945127D01*
X131407774Y-109051669D01*
X131498381Y-109142276D01*
X131604923Y-109213465D01*
X131723306Y-109262501D01*
X131848981Y-109287500D01*
X131848986Y-109287500D01*
X131977114Y-109287500D01*
X131977119Y-109287500D01*
X132102794Y-109262501D01*
X132221177Y-109213465D01*
X132327719Y-109142276D01*
X132418326Y-109051669D01*
X132489515Y-108945127D01*
X132538551Y-108826744D01*
X132563550Y-108701069D01*
X132563550Y-108572931D01*
X132538551Y-108447256D01*
X132489515Y-108328873D01*
X132418326Y-108222331D01*
X132418318Y-108222323D01*
X132414403Y-108217552D01*
X132416489Y-108215839D01*
X132388064Y-108163783D01*
X132393129Y-108092968D01*
X132415841Y-108057628D01*
X132414403Y-108056448D01*
X132418314Y-108051680D01*
X132418326Y-108051669D01*
X132489515Y-107945127D01*
X132538551Y-107826744D01*
X132563550Y-107701069D01*
X132563550Y-107572931D01*
X132538551Y-107447256D01*
X132489515Y-107328873D01*
X132418326Y-107222331D01*
X132418318Y-107222323D01*
X132414403Y-107217552D01*
X132416489Y-107215839D01*
X132388064Y-107163783D01*
X132393129Y-107092968D01*
X132415841Y-107057628D01*
X132414403Y-107056448D01*
X132418314Y-107051680D01*
X132418326Y-107051669D01*
X132489515Y-106945127D01*
X132538551Y-106826744D01*
X132563550Y-106701069D01*
X132563550Y-106572931D01*
X132538551Y-106447256D01*
X132489515Y-106328873D01*
X132418326Y-106222331D01*
X132418318Y-106222323D01*
X132414403Y-106217552D01*
X132416489Y-106215839D01*
X132388064Y-106163783D01*
X132393129Y-106092968D01*
X132415841Y-106057628D01*
X132414403Y-106056448D01*
X132418314Y-106051680D01*
X132418326Y-106051669D01*
X132489515Y-105945127D01*
X132538551Y-105826744D01*
X132563550Y-105701069D01*
X132563550Y-105572931D01*
X132538551Y-105447256D01*
X132489515Y-105328873D01*
X132418326Y-105222331D01*
X132418318Y-105222323D01*
X132414403Y-105217552D01*
X132416489Y-105215839D01*
X132388064Y-105163783D01*
X132393129Y-105092968D01*
X132415841Y-105057628D01*
X132414403Y-105056448D01*
X132418314Y-105051680D01*
X132418326Y-105051669D01*
X132489515Y-104945127D01*
X132538551Y-104826744D01*
X132563550Y-104701069D01*
X132563550Y-104572931D01*
X132538551Y-104447256D01*
X132489515Y-104328873D01*
X132418326Y-104222331D01*
X132418318Y-104222323D01*
X132414403Y-104217552D01*
X132416489Y-104215839D01*
X132388064Y-104163783D01*
X132393129Y-104092968D01*
X132415841Y-104057628D01*
X132414403Y-104056448D01*
X132418314Y-104051680D01*
X132418326Y-104051669D01*
X132489515Y-103945127D01*
X132538551Y-103826744D01*
X132563550Y-103701069D01*
X132563550Y-103572931D01*
X132538551Y-103447256D01*
X132489515Y-103328873D01*
X132418326Y-103222331D01*
X132418316Y-103222321D01*
X132414710Y-103217927D01*
X132386950Y-103152582D01*
X132398924Y-103082603D01*
X132417127Y-103057124D01*
X132416303Y-103056448D01*
X132420214Y-103051680D01*
X132420226Y-103051669D01*
X132491415Y-102945127D01*
X132540451Y-102826744D01*
X132565450Y-102701069D01*
X132565450Y-102572931D01*
X132540451Y-102447256D01*
X132491415Y-102328873D01*
X132420226Y-102222331D01*
X132420218Y-102222323D01*
X132416303Y-102217552D01*
X132417606Y-102216482D01*
X132387464Y-102161283D01*
X132392529Y-102090468D01*
X132417156Y-102052148D01*
X132416303Y-102051448D01*
X132420214Y-102046680D01*
X132420226Y-102046669D01*
X132491415Y-101940127D01*
X132540451Y-101821744D01*
X132565450Y-101696069D01*
X132565450Y-101567931D01*
X132540451Y-101442256D01*
X132491415Y-101323873D01*
X132420226Y-101217331D01*
X132329619Y-101126724D01*
X132223077Y-101055535D01*
X132104695Y-101006499D01*
X132062802Y-100998166D01*
X131979019Y-100981500D01*
X131850881Y-100981500D01*
X131808989Y-100989833D01*
X131725204Y-101006499D01*
X131725203Y-101006500D01*
X131606821Y-101055536D01*
X131500285Y-101126721D01*
X131500278Y-101126726D01*
X131409676Y-101217328D01*
X131409671Y-101217335D01*
X131338486Y-101323871D01*
X131289450Y-101442253D01*
X131289449Y-101442254D01*
X131275497Y-101512397D01*
X131264450Y-101567931D01*
X131264450Y-101696069D01*
X131289449Y-101821744D01*
X131338485Y-101940127D01*
X131409674Y-102046669D01*
X131409680Y-102046675D01*
X131413597Y-102051448D01*
X131412293Y-102052517D01*
X131442436Y-102107717D01*
X131437371Y-102178532D01*
X131412743Y-102216851D01*
X131413597Y-102217552D01*
X131409671Y-102222335D01*
X131349116Y-102312963D01*
X131338485Y-102328873D01*
X131333410Y-102341126D01*
X131289450Y-102447253D01*
X131289449Y-102447254D01*
X131277718Y-102506232D01*
X131264450Y-102572931D01*
X131264450Y-102701069D01*
X131289449Y-102826744D01*
X131338485Y-102945127D01*
X131373899Y-102998128D01*
X131409672Y-103051666D01*
X131413290Y-103056074D01*
X131441050Y-103121418D01*
X131429074Y-103191398D01*
X131410878Y-103216880D01*
X131411697Y-103217552D01*
X131407771Y-103222335D01*
X131336586Y-103328871D01*
X131287550Y-103447253D01*
X131287549Y-103447254D01*
X131270883Y-103531039D01*
X131262550Y-103572931D01*
X130155255Y-103572931D01*
X130217387Y-102902419D01*
X130217800Y-102898619D01*
X130224466Y-102845097D01*
X130224659Y-102843631D01*
X130313885Y-102203994D01*
X130314465Y-102200258D01*
X130395888Y-101723911D01*
X130396191Y-101722220D01*
X130434751Y-101515942D01*
X130435469Y-101512397D01*
X130597063Y-100771256D01*
X130598390Y-100765772D01*
X130811849Y-99963535D01*
X130813418Y-99958135D01*
X131063052Y-99166399D01*
X131064867Y-99161065D01*
X131350164Y-98381455D01*
X131352217Y-98376214D01*
X131672589Y-97610342D01*
X131674878Y-97605201D01*
X132029643Y-96854690D01*
X132032186Y-96849614D01*
X132062709Y-96791967D01*
X132151903Y-96623507D01*
X132420618Y-96115993D01*
X132423390Y-96111031D01*
X132844706Y-95395781D01*
X132847689Y-95390968D01*
X133301034Y-94695537D01*
X133304236Y-94690861D01*
X133605709Y-94271317D01*
X133661699Y-94227674D01*
X133732402Y-94221228D01*
X133795367Y-94254031D01*
G37*
%TD.AperFunction*%
%TA.AperFunction,NonConductor*%
G36*
X163210175Y-94072907D02*
G01*
X163228147Y-94073881D01*
X163242928Y-94084552D01*
X163260110Y-94090661D01*
X163285522Y-94115302D01*
X163285710Y-94115438D01*
X163285857Y-94115627D01*
X163325424Y-94166819D01*
X163328818Y-94171423D01*
X163806123Y-94850562D01*
X163809303Y-94855312D01*
X164255300Y-95555386D01*
X164258262Y-95560277D01*
X164672040Y-96279859D01*
X164674777Y-96284878D01*
X165055501Y-97022518D01*
X165058007Y-97027657D01*
X165404862Y-97781774D01*
X165407133Y-97787021D01*
X165646364Y-98376174D01*
X165711747Y-98537193D01*
X165719433Y-98556120D01*
X165721463Y-98561465D01*
X165998552Y-99343946D01*
X166000337Y-99349376D01*
X166241638Y-100143585D01*
X166243176Y-100149092D01*
X166448207Y-100953463D01*
X166449493Y-100959034D01*
X166591536Y-101644937D01*
X166592009Y-101647335D01*
X166633609Y-101869872D01*
X166634168Y-101873097D01*
X166695829Y-102258067D01*
X166696207Y-102260587D01*
X166781769Y-102873955D01*
X166782166Y-102877091D01*
X166783613Y-102889784D01*
X166783887Y-102892430D01*
X166861155Y-103726294D01*
X166861558Y-103732101D01*
X166900556Y-104575596D01*
X166900690Y-104581415D01*
X166900690Y-105425784D01*
X166900556Y-105431603D01*
X166861558Y-106275098D01*
X166861155Y-106280905D01*
X166783245Y-107121697D01*
X166782574Y-107127479D01*
X166665917Y-107963766D01*
X166664980Y-107969510D01*
X166509822Y-108799530D01*
X166508620Y-108805226D01*
X166315300Y-109627171D01*
X166313837Y-109632804D01*
X166082757Y-110444968D01*
X166081035Y-110450529D01*
X165812700Y-111251131D01*
X165810723Y-111256605D01*
X165505689Y-112043988D01*
X165503462Y-112049366D01*
X165162402Y-112821792D01*
X165159929Y-112827061D01*
X164783541Y-113582950D01*
X164780826Y-113588099D01*
X164369951Y-114325762D01*
X164367002Y-114330780D01*
X163922498Y-115048679D01*
X163919321Y-115053556D01*
X163442115Y-115750191D01*
X163438715Y-115754916D01*
X163334776Y-115892553D01*
X163277762Y-115934861D01*
X163206926Y-115939628D01*
X163144757Y-115905341D01*
X163110994Y-115842887D01*
X163109041Y-115830931D01*
X163104931Y-115794946D01*
X163027135Y-115449644D01*
X162912620Y-115114723D01*
X162762718Y-114794076D01*
X162579170Y-114491427D01*
X162574989Y-114485962D01*
X162364108Y-114210292D01*
X162364103Y-114210287D01*
X162120036Y-113953947D01*
X162120031Y-113953942D01*
X161849790Y-113725364D01*
X161849788Y-113725363D01*
X161556512Y-113527204D01*
X161556486Y-113527189D01*
X161243599Y-113361761D01*
X161243593Y-113361758D01*
X161119422Y-113312378D01*
X160914687Y-113230959D01*
X160914682Y-113230957D01*
X160914678Y-113230956D01*
X160914674Y-113230955D01*
X160573625Y-113136329D01*
X160573611Y-113136326D01*
X160224343Y-113078960D01*
X159870923Y-113059525D01*
X159870918Y-113059525D01*
X159870914Y-113059525D01*
X159605818Y-113073566D01*
X159517450Y-113078247D01*
X159168065Y-113134908D01*
X159168053Y-113134910D01*
X158826793Y-113228853D01*
X158826791Y-113228853D01*
X158497638Y-113358981D01*
X158497628Y-113358986D01*
X158184396Y-113523788D01*
X158184387Y-113523793D01*
X158184385Y-113523795D01*
X158081641Y-113592915D01*
X157890696Y-113721370D01*
X157619993Y-113949402D01*
X157619990Y-113949405D01*
X157375401Y-114205258D01*
X157375396Y-114205263D01*
X157159774Y-114485955D01*
X157159769Y-114485962D01*
X157033603Y-114693052D01*
X156981079Y-114740820D01*
X156911068Y-114752608D01*
X156845798Y-114724674D01*
X156805991Y-114665887D01*
X156800000Y-114627496D01*
X156800000Y-107625931D01*
X164479500Y-107625931D01*
X164479500Y-107754069D01*
X164504499Y-107879744D01*
X164553535Y-107998127D01*
X164624724Y-108104669D01*
X164624730Y-108104675D01*
X164628647Y-108109448D01*
X164627343Y-108110517D01*
X164657486Y-108165717D01*
X164652421Y-108236532D01*
X164627793Y-108274851D01*
X164628647Y-108275552D01*
X164624721Y-108280335D01*
X164553536Y-108386871D01*
X164504500Y-108505253D01*
X164504499Y-108505254D01*
X164495757Y-108549203D01*
X164479500Y-108630931D01*
X164479500Y-108759069D01*
X164504499Y-108884744D01*
X164553535Y-109003127D01*
X164624724Y-109109669D01*
X164715331Y-109200276D01*
X164821873Y-109271465D01*
X164940256Y-109320501D01*
X165065931Y-109345500D01*
X165065936Y-109345500D01*
X165194064Y-109345500D01*
X165194069Y-109345500D01*
X165319744Y-109320501D01*
X165438127Y-109271465D01*
X165544669Y-109200276D01*
X165635276Y-109109669D01*
X165706465Y-109003127D01*
X165755501Y-108884744D01*
X165780500Y-108759069D01*
X165780500Y-108630931D01*
X165755501Y-108505256D01*
X165706465Y-108386873D01*
X165635276Y-108280331D01*
X165635268Y-108280323D01*
X165631353Y-108275552D01*
X165632656Y-108274482D01*
X165602514Y-108219283D01*
X165607579Y-108148468D01*
X165632206Y-108110148D01*
X165631353Y-108109448D01*
X165635264Y-108104680D01*
X165635276Y-108104669D01*
X165706465Y-107998127D01*
X165755501Y-107879744D01*
X165780500Y-107754069D01*
X165780500Y-107625931D01*
X165755501Y-107500256D01*
X165706465Y-107381873D01*
X165635276Y-107275331D01*
X165635266Y-107275321D01*
X165631660Y-107270927D01*
X165603900Y-107205582D01*
X165615874Y-107135603D01*
X165634077Y-107110124D01*
X165633253Y-107109448D01*
X165637164Y-107104680D01*
X165637176Y-107104669D01*
X165708365Y-106998127D01*
X165757401Y-106879744D01*
X165782400Y-106754069D01*
X165782400Y-106625931D01*
X165757401Y-106500256D01*
X165708365Y-106381873D01*
X165637176Y-106275331D01*
X165637168Y-106275323D01*
X165633253Y-106270552D01*
X165635339Y-106268839D01*
X165606914Y-106216783D01*
X165611979Y-106145968D01*
X165634691Y-106110628D01*
X165633253Y-106109448D01*
X165637164Y-106104680D01*
X165637176Y-106104669D01*
X165708365Y-105998127D01*
X165757401Y-105879744D01*
X165782400Y-105754069D01*
X165782400Y-105625931D01*
X165757401Y-105500256D01*
X165708365Y-105381873D01*
X165637176Y-105275331D01*
X165637168Y-105275323D01*
X165633253Y-105270552D01*
X165635339Y-105268839D01*
X165606914Y-105216783D01*
X165611979Y-105145968D01*
X165634691Y-105110628D01*
X165633253Y-105109448D01*
X165637164Y-105104680D01*
X165637176Y-105104669D01*
X165708365Y-104998127D01*
X165757401Y-104879744D01*
X165782400Y-104754069D01*
X165782400Y-104625931D01*
X165757401Y-104500256D01*
X165708365Y-104381873D01*
X165637176Y-104275331D01*
X165637168Y-104275323D01*
X165633253Y-104270552D01*
X165635339Y-104268839D01*
X165606914Y-104216783D01*
X165611979Y-104145968D01*
X165634691Y-104110628D01*
X165633253Y-104109448D01*
X165637164Y-104104680D01*
X165637176Y-104104669D01*
X165708365Y-103998127D01*
X165757401Y-103879744D01*
X165782400Y-103754069D01*
X165782400Y-103625931D01*
X165757401Y-103500256D01*
X165708365Y-103381873D01*
X165637176Y-103275331D01*
X165637168Y-103275323D01*
X165633253Y-103270552D01*
X165635339Y-103268839D01*
X165606914Y-103216783D01*
X165611979Y-103145968D01*
X165634691Y-103110628D01*
X165633253Y-103109448D01*
X165637164Y-103104680D01*
X165637176Y-103104669D01*
X165708365Y-102998127D01*
X165757401Y-102879744D01*
X165782400Y-102754069D01*
X165782400Y-102625931D01*
X165757401Y-102500256D01*
X165708365Y-102381873D01*
X165637176Y-102275331D01*
X165637168Y-102275323D01*
X165633253Y-102270552D01*
X165635339Y-102268839D01*
X165606914Y-102216783D01*
X165611979Y-102145968D01*
X165634691Y-102110628D01*
X165633253Y-102109448D01*
X165637164Y-102104680D01*
X165637176Y-102104669D01*
X165708365Y-101998127D01*
X165757401Y-101879744D01*
X165782400Y-101754069D01*
X165782400Y-101625931D01*
X165757401Y-101500256D01*
X165708365Y-101381873D01*
X165637176Y-101275331D01*
X165546569Y-101184724D01*
X165440027Y-101113535D01*
X165321645Y-101064499D01*
X165276580Y-101055535D01*
X165195969Y-101039500D01*
X165067831Y-101039500D01*
X165025939Y-101047833D01*
X164942154Y-101064499D01*
X164942153Y-101064500D01*
X164823771Y-101113536D01*
X164717235Y-101184721D01*
X164717228Y-101184726D01*
X164626626Y-101275328D01*
X164626621Y-101275335D01*
X164559077Y-101376423D01*
X164555435Y-101381873D01*
X164535125Y-101430905D01*
X164506400Y-101500253D01*
X164506399Y-101500254D01*
X164503984Y-101512397D01*
X164481400Y-101625931D01*
X164481400Y-101754069D01*
X164506399Y-101879744D01*
X164555435Y-101998127D01*
X164626624Y-102104669D01*
X164626630Y-102104675D01*
X164630547Y-102109448D01*
X164628460Y-102111160D01*
X164656886Y-102163217D01*
X164651821Y-102234032D01*
X164629108Y-102269371D01*
X164630547Y-102270552D01*
X164626621Y-102275335D01*
X164555436Y-102381871D01*
X164506400Y-102500253D01*
X164506399Y-102500254D01*
X164494131Y-102561930D01*
X164481400Y-102625931D01*
X164481400Y-102754069D01*
X164506399Y-102879744D01*
X164555435Y-102998127D01*
X164626624Y-103104669D01*
X164626630Y-103104675D01*
X164630547Y-103109448D01*
X164628460Y-103111160D01*
X164656886Y-103163217D01*
X164651821Y-103234032D01*
X164629108Y-103269371D01*
X164630547Y-103270552D01*
X164626621Y-103275335D01*
X164590850Y-103328871D01*
X164555435Y-103381873D01*
X164539115Y-103421273D01*
X164506400Y-103500253D01*
X164506399Y-103500254D01*
X164491943Y-103572931D01*
X164481400Y-103625931D01*
X164481400Y-103754069D01*
X164506399Y-103879744D01*
X164555435Y-103998127D01*
X164626624Y-104104669D01*
X164626630Y-104104675D01*
X164630547Y-104109448D01*
X164628460Y-104111160D01*
X164656886Y-104163217D01*
X164651821Y-104234032D01*
X164629108Y-104269371D01*
X164630547Y-104270552D01*
X164626621Y-104275335D01*
X164555436Y-104381871D01*
X164506400Y-104500253D01*
X164506399Y-104500254D01*
X164491318Y-104576073D01*
X164481400Y-104625931D01*
X164481400Y-104754069D01*
X164506399Y-104879744D01*
X164555435Y-104998127D01*
X164626624Y-105104669D01*
X164626630Y-105104675D01*
X164630547Y-105109448D01*
X164628460Y-105111160D01*
X164656886Y-105163217D01*
X164651821Y-105234032D01*
X164629108Y-105269371D01*
X164630547Y-105270552D01*
X164626621Y-105275335D01*
X164555436Y-105381871D01*
X164506400Y-105500253D01*
X164506399Y-105500254D01*
X164491943Y-105572931D01*
X164481400Y-105625931D01*
X164481400Y-105754069D01*
X164506399Y-105879744D01*
X164555435Y-105998127D01*
X164626624Y-106104669D01*
X164626630Y-106104675D01*
X164630547Y-106109448D01*
X164628460Y-106111160D01*
X164656886Y-106163217D01*
X164651821Y-106234032D01*
X164629108Y-106269371D01*
X164630547Y-106270552D01*
X164626621Y-106275335D01*
X164555436Y-106381871D01*
X164506400Y-106500253D01*
X164506399Y-106500254D01*
X164506399Y-106500256D01*
X164481400Y-106625931D01*
X164481400Y-106754069D01*
X164506399Y-106879744D01*
X164555435Y-106998127D01*
X164555436Y-106998128D01*
X164626622Y-107104666D01*
X164630240Y-107109074D01*
X164658000Y-107174418D01*
X164646024Y-107244398D01*
X164627828Y-107269880D01*
X164628647Y-107270552D01*
X164624721Y-107275335D01*
X164553536Y-107381871D01*
X164504500Y-107500253D01*
X164504499Y-107500254D01*
X164502623Y-107509687D01*
X164479500Y-107625931D01*
X156800000Y-107625931D01*
X156800000Y-94998426D01*
X156820002Y-94930305D01*
X156873658Y-94883812D01*
X156943932Y-94873708D01*
X157008512Y-94903202D01*
X157040486Y-94945805D01*
X157051935Y-94970714D01*
X157233569Y-95273634D01*
X157447163Y-95554934D01*
X157447167Y-95554938D01*
X157447170Y-95554942D01*
X157447172Y-95554944D01*
X157690157Y-95811247D01*
X157690166Y-95811256D01*
X157959679Y-96039542D01*
X158252485Y-96237068D01*
X158565091Y-96401475D01*
X158893764Y-96530802D01*
X159234584Y-96623505D01*
X159234595Y-96623506D01*
X159234596Y-96623507D01*
X159281542Y-96630904D01*
X159583482Y-96678479D01*
X159936294Y-96695066D01*
X159936294Y-96695065D01*
X159936296Y-96695066D01*
X160037013Y-96688781D01*
X160288811Y-96673069D01*
X160636825Y-96612751D01*
X160976182Y-96514832D01*
X161302834Y-96380479D01*
X161612881Y-96211297D01*
X161902623Y-96009304D01*
X162168603Y-95776911D01*
X162407647Y-95516892D01*
X162616901Y-95232349D01*
X162793868Y-94926679D01*
X162936437Y-94603529D01*
X163042905Y-94266755D01*
X163062599Y-94168028D01*
X163071058Y-94151879D01*
X163074659Y-94134007D01*
X163087188Y-94121085D01*
X163095540Y-94105141D01*
X163111389Y-94096126D01*
X163124082Y-94083037D01*
X163141607Y-94078940D01*
X163157254Y-94070042D01*
X163175460Y-94071027D01*
X163193215Y-94066878D01*
X163210175Y-94072907D01*
G37*
%TD.AperFunction*%
%TA.AperFunction,NonConductor*%
G36*
X156533398Y-116020002D02*
G01*
X156579891Y-116073658D01*
X156589803Y-116136551D01*
X156590708Y-116136608D01*
X156590498Y-116139997D01*
X156587698Y-116493943D01*
X156623016Y-116846134D01*
X156696041Y-117192473D01*
X156696043Y-117192484D01*
X156805923Y-117528945D01*
X156805926Y-117528953D01*
X156844833Y-117615260D01*
X156951388Y-117851632D01*
X157007940Y-117947849D01*
X157130744Y-118156789D01*
X157341895Y-118440846D01*
X157341898Y-118440849D01*
X157341903Y-118440856D01*
X157582416Y-118700546D01*
X157849485Y-118932838D01*
X157849488Y-118932840D01*
X157849491Y-118932843D01*
X158044481Y-119068547D01*
X158140009Y-119135030D01*
X158450609Y-119304774D01*
X158777676Y-119440097D01*
X159117411Y-119539426D01*
X159372897Y-119585017D01*
X159390953Y-119594012D01*
X159410681Y-119598217D01*
X159422076Y-119609516D01*
X159436443Y-119616674D01*
X159446770Y-119634004D01*
X159461094Y-119648208D01*
X159464571Y-119663876D01*
X159472787Y-119677663D01*
X159472105Y-119697822D01*
X159476477Y-119717518D01*
X159470931Y-119732579D01*
X159470389Y-119748619D01*
X159458915Y-119765211D01*
X159451945Y-119784142D01*
X159431727Y-119804529D01*
X159430010Y-119807014D01*
X159426693Y-119809607D01*
X159252416Y-119941215D01*
X159247691Y-119944615D01*
X158551056Y-120421821D01*
X158546179Y-120424998D01*
X157828280Y-120869502D01*
X157823262Y-120872451D01*
X157085599Y-121283326D01*
X157080450Y-121286041D01*
X156324561Y-121662429D01*
X156319292Y-121664902D01*
X155546866Y-122005962D01*
X155541488Y-122008189D01*
X154754105Y-122313223D01*
X154748631Y-122315200D01*
X153948029Y-122583535D01*
X153942468Y-122585257D01*
X153130304Y-122816337D01*
X153124671Y-122817800D01*
X152302726Y-123011120D01*
X152297030Y-123012322D01*
X151467010Y-123167480D01*
X151461266Y-123168417D01*
X150624979Y-123285074D01*
X150619197Y-123285745D01*
X149778405Y-123363655D01*
X149772598Y-123364058D01*
X148929103Y-123403056D01*
X148923284Y-123403190D01*
X148078916Y-123403190D01*
X148073097Y-123403056D01*
X147229601Y-123364058D01*
X147223794Y-123363655D01*
X146383002Y-123285745D01*
X146377220Y-123285074D01*
X145540933Y-123168417D01*
X145535189Y-123167480D01*
X144705169Y-123012322D01*
X144699473Y-123011120D01*
X143877528Y-122817800D01*
X143871895Y-122816337D01*
X143059731Y-122585257D01*
X143054170Y-122583535D01*
X142253558Y-122315196D01*
X142248094Y-122313223D01*
X141460711Y-122008189D01*
X141455333Y-122005962D01*
X140682907Y-121664902D01*
X140677638Y-121662429D01*
X140419782Y-121534032D01*
X140205698Y-121427431D01*
X144271400Y-121427431D01*
X144271400Y-121555569D01*
X144296399Y-121681244D01*
X144345435Y-121799627D01*
X144416624Y-121906169D01*
X144507231Y-121996776D01*
X144613773Y-122067965D01*
X144732156Y-122117001D01*
X144857831Y-122142000D01*
X144857836Y-122142000D01*
X144985964Y-122142000D01*
X144985969Y-122142000D01*
X145111644Y-122117001D01*
X145230027Y-122067965D01*
X145336569Y-121996776D01*
X145336580Y-121996764D01*
X145341348Y-121992853D01*
X145342417Y-121994156D01*
X145397617Y-121964014D01*
X145468432Y-121969079D01*
X145506751Y-121993706D01*
X145507452Y-121992853D01*
X145512223Y-121996768D01*
X145512231Y-121996776D01*
X145618773Y-122067965D01*
X145737156Y-122117001D01*
X145862831Y-122142000D01*
X145862836Y-122142000D01*
X145990964Y-122142000D01*
X145990969Y-122142000D01*
X146116644Y-122117001D01*
X146235027Y-122067965D01*
X146341569Y-121996776D01*
X146341580Y-121996764D01*
X146345967Y-121993164D01*
X146411310Y-121965400D01*
X146481290Y-121977371D01*
X146506777Y-121995575D01*
X146507452Y-121994753D01*
X146512223Y-121998668D01*
X146512231Y-121998676D01*
X146618773Y-122069865D01*
X146737156Y-122118901D01*
X146862831Y-122143900D01*
X146862836Y-122143900D01*
X146990964Y-122143900D01*
X146990969Y-122143900D01*
X147116644Y-122118901D01*
X147235027Y-122069865D01*
X147341569Y-121998676D01*
X147341580Y-121998664D01*
X147346348Y-121994753D01*
X147348060Y-121996839D01*
X147400117Y-121968414D01*
X147470932Y-121973479D01*
X147506271Y-121996191D01*
X147507452Y-121994753D01*
X147512223Y-121998668D01*
X147512231Y-121998676D01*
X147618773Y-122069865D01*
X147737156Y-122118901D01*
X147862831Y-122143900D01*
X147862836Y-122143900D01*
X147990964Y-122143900D01*
X147990969Y-122143900D01*
X148116644Y-122118901D01*
X148235027Y-122069865D01*
X148341569Y-121998676D01*
X148341580Y-121998664D01*
X148346348Y-121994753D01*
X148348060Y-121996839D01*
X148400117Y-121968414D01*
X148470932Y-121973479D01*
X148506271Y-121996191D01*
X148507452Y-121994753D01*
X148512223Y-121998668D01*
X148512231Y-121998676D01*
X148618773Y-122069865D01*
X148737156Y-122118901D01*
X148862831Y-122143900D01*
X148862836Y-122143900D01*
X148990964Y-122143900D01*
X148990969Y-122143900D01*
X149116644Y-122118901D01*
X149235027Y-122069865D01*
X149341569Y-121998676D01*
X149341580Y-121998664D01*
X149346348Y-121994753D01*
X149348060Y-121996839D01*
X149400117Y-121968414D01*
X149470932Y-121973479D01*
X149506271Y-121996191D01*
X149507452Y-121994753D01*
X149512223Y-121998668D01*
X149512231Y-121998676D01*
X149618773Y-122069865D01*
X149737156Y-122118901D01*
X149862831Y-122143900D01*
X149862836Y-122143900D01*
X149990964Y-122143900D01*
X149990969Y-122143900D01*
X150116644Y-122118901D01*
X150235027Y-122069865D01*
X150341569Y-121998676D01*
X150341580Y-121998664D01*
X150346348Y-121994753D01*
X150348060Y-121996839D01*
X150400117Y-121968414D01*
X150470932Y-121973479D01*
X150506271Y-121996191D01*
X150507452Y-121994753D01*
X150512223Y-121998668D01*
X150512231Y-121998676D01*
X150618773Y-122069865D01*
X150737156Y-122118901D01*
X150862831Y-122143900D01*
X150862836Y-122143900D01*
X150990964Y-122143900D01*
X150990969Y-122143900D01*
X151116644Y-122118901D01*
X151235027Y-122069865D01*
X151341569Y-121998676D01*
X151341580Y-121998664D01*
X151346348Y-121994753D01*
X151348060Y-121996839D01*
X151400117Y-121968414D01*
X151470932Y-121973479D01*
X151506271Y-121996191D01*
X151507452Y-121994753D01*
X151512223Y-121998668D01*
X151512231Y-121998676D01*
X151618773Y-122069865D01*
X151737156Y-122118901D01*
X151862831Y-122143900D01*
X151862836Y-122143900D01*
X151990964Y-122143900D01*
X151990969Y-122143900D01*
X152116644Y-122118901D01*
X152235027Y-122069865D01*
X152341569Y-121998676D01*
X152432176Y-121908069D01*
X152503365Y-121801527D01*
X152552401Y-121683144D01*
X152577400Y-121557469D01*
X152577400Y-121429331D01*
X152552401Y-121303656D01*
X152503365Y-121185273D01*
X152432176Y-121078731D01*
X152341569Y-120988124D01*
X152235027Y-120916935D01*
X152116645Y-120867899D01*
X152074752Y-120859566D01*
X151990969Y-120842900D01*
X151862831Y-120842900D01*
X151820939Y-120851233D01*
X151737154Y-120867899D01*
X151737153Y-120867900D01*
X151618771Y-120916936D01*
X151512235Y-120988121D01*
X151507452Y-120992047D01*
X151505739Y-120989960D01*
X151453683Y-121018386D01*
X151382868Y-121013321D01*
X151347528Y-120990608D01*
X151346348Y-120992047D01*
X151341575Y-120988130D01*
X151341569Y-120988124D01*
X151235027Y-120916935D01*
X151116645Y-120867899D01*
X151074752Y-120859566D01*
X150990969Y-120842900D01*
X150862831Y-120842900D01*
X150820939Y-120851233D01*
X150737154Y-120867899D01*
X150737153Y-120867900D01*
X150618771Y-120916936D01*
X150512235Y-120988121D01*
X150507452Y-120992047D01*
X150505739Y-120989960D01*
X150453683Y-121018386D01*
X150382868Y-121013321D01*
X150347528Y-120990608D01*
X150346348Y-120992047D01*
X150341575Y-120988130D01*
X150341569Y-120988124D01*
X150235027Y-120916935D01*
X150116645Y-120867899D01*
X150074752Y-120859566D01*
X149990969Y-120842900D01*
X149862831Y-120842900D01*
X149820939Y-120851233D01*
X149737154Y-120867899D01*
X149737153Y-120867900D01*
X149618771Y-120916936D01*
X149512235Y-120988121D01*
X149507452Y-120992047D01*
X149505739Y-120989960D01*
X149453683Y-121018386D01*
X149382868Y-121013321D01*
X149347528Y-120990608D01*
X149346348Y-120992047D01*
X149341575Y-120988130D01*
X149341569Y-120988124D01*
X149235027Y-120916935D01*
X149116645Y-120867899D01*
X149074752Y-120859566D01*
X148990969Y-120842900D01*
X148862831Y-120842900D01*
X148820939Y-120851233D01*
X148737154Y-120867899D01*
X148737153Y-120867900D01*
X148618771Y-120916936D01*
X148512235Y-120988121D01*
X148507452Y-120992047D01*
X148505739Y-120989960D01*
X148453683Y-121018386D01*
X148382868Y-121013321D01*
X148347528Y-120990608D01*
X148346348Y-120992047D01*
X148341575Y-120988130D01*
X148341569Y-120988124D01*
X148235027Y-120916935D01*
X148116645Y-120867899D01*
X148074752Y-120859566D01*
X147990969Y-120842900D01*
X147862831Y-120842900D01*
X147820939Y-120851233D01*
X147737154Y-120867899D01*
X147737153Y-120867900D01*
X147618771Y-120916936D01*
X147512235Y-120988121D01*
X147507452Y-120992047D01*
X147505739Y-120989960D01*
X147453683Y-121018386D01*
X147382868Y-121013321D01*
X147347528Y-120990608D01*
X147346348Y-120992047D01*
X147341575Y-120988130D01*
X147341569Y-120988124D01*
X147235027Y-120916935D01*
X147116645Y-120867899D01*
X147074752Y-120859566D01*
X146990969Y-120842900D01*
X146862831Y-120842900D01*
X146820939Y-120851233D01*
X146737154Y-120867899D01*
X146737153Y-120867900D01*
X146618771Y-120916936D01*
X146512229Y-120988124D01*
X146507820Y-120991744D01*
X146442474Y-121019500D01*
X146372495Y-121007521D01*
X146347022Y-120989325D01*
X146346348Y-120990147D01*
X146341575Y-120986230D01*
X146341569Y-120986224D01*
X146235027Y-120915035D01*
X146116645Y-120865999D01*
X146074752Y-120857666D01*
X145990969Y-120841000D01*
X145862831Y-120841000D01*
X145820939Y-120849333D01*
X145737154Y-120865999D01*
X145737153Y-120866000D01*
X145618771Y-120915036D01*
X145512235Y-120986221D01*
X145507452Y-120990147D01*
X145506382Y-120988843D01*
X145451183Y-121018986D01*
X145380368Y-121013921D01*
X145342048Y-120989293D01*
X145341348Y-120990147D01*
X145336575Y-120986230D01*
X145336569Y-120986224D01*
X145230027Y-120915035D01*
X145111645Y-120865999D01*
X145069752Y-120857666D01*
X144985969Y-120841000D01*
X144857831Y-120841000D01*
X144815939Y-120849333D01*
X144732154Y-120865999D01*
X144732153Y-120866000D01*
X144613771Y-120915036D01*
X144507235Y-120986221D01*
X144507228Y-120986226D01*
X144416626Y-121076828D01*
X144416621Y-121076835D01*
X144345436Y-121183371D01*
X144296400Y-121301753D01*
X144296399Y-121301754D01*
X144279733Y-121385539D01*
X144271400Y-121427431D01*
X140205698Y-121427431D01*
X139921749Y-121286041D01*
X139916600Y-121283326D01*
X139178937Y-120872451D01*
X139173919Y-120869502D01*
X138456020Y-120424998D01*
X138451143Y-120421821D01*
X137754508Y-119944615D01*
X137749783Y-119941215D01*
X137545470Y-119786925D01*
X137503162Y-119729911D01*
X137498395Y-119659075D01*
X137532682Y-119596906D01*
X137595136Y-119563143D01*
X137605226Y-119561418D01*
X137679495Y-119551815D01*
X138027858Y-119467355D01*
X138027866Y-119467351D01*
X138027870Y-119467351D01*
X138120992Y-119433660D01*
X138364934Y-119345407D01*
X138686700Y-119187427D01*
X138989318Y-118995300D01*
X138989324Y-118995295D01*
X138989325Y-118995295D01*
X139269173Y-118771321D01*
X139269173Y-118771320D01*
X139269179Y-118771316D01*
X139522945Y-118518149D01*
X139747589Y-118238817D01*
X139940430Y-117936652D01*
X140099169Y-117615260D01*
X140221912Y-117278474D01*
X140307195Y-116930311D01*
X140318282Y-116846134D01*
X140354001Y-116574920D01*
X140361771Y-116216568D01*
X140361770Y-116216561D01*
X140361771Y-116216551D01*
X140354787Y-116137022D01*
X140368753Y-116067413D01*
X140418136Y-116016405D01*
X140480304Y-116000000D01*
X156465277Y-116000000D01*
X156533398Y-116020002D01*
G37*
%TD.AperFunction*%
M02*
