M48
; DRILL file {KiCad (6.0.6)} date Fri Sep 16 14:45:00 2022
; FORMAT={-:-/ absolute / metric / decimal}
; #@! TF.CreationDate,2022-09-16T14:45:00-04:00
; #@! TF.GenerationSoftware,Kicad,Pcbnew,(6.0.6)
; #@! TF.FileFunction,Plated,1,2,PTH
FMAT,2
METRIC
; #@! TA.AperFunction,Plated,PTH,ViaDrill
T1C0.500
; #@! TA.AperFunction,Plated,PTH,ViaDrill
T2C1.000
; #@! TA.AperFunction,Plated,PTH,ViaDrill
T3C2.700
%
G90
G05
T1
X131.913Y-103.637
X131.913Y-104.637
X131.913Y-105.637
X131.913Y-106.637
X131.913Y-107.637
X131.913Y-108.637
X131.915Y-101.632
X131.915Y-102.637
X134.199Y-103.637
X134.199Y-104.637
X134.199Y-105.637
X134.199Y-106.637
X135.85Y-109.288
X135.85Y-111.685
X135.852Y-98.584
X135.852Y-100.986
X137.83Y-96.73
X139.63Y-114.45
X140.16Y-94.64
X144.0Y-117.641
X144.135Y-92.434
X144.922Y-121.491
X145.183Y-88.497
X145.397Y-117.641
X145.532Y-92.434
X145.927Y-121.491
X146.183Y-88.497
X146.927Y-119.207
X146.927Y-121.493
X147.183Y-88.497
X147.183Y-90.783
X147.927Y-119.207
X147.927Y-121.493
X148.183Y-88.497
X148.183Y-90.783
X148.927Y-119.207
X148.927Y-121.493
X149.183Y-88.497
X149.183Y-90.783
X149.927Y-119.207
X149.927Y-121.493
X150.183Y-88.497
X150.183Y-90.783
X150.927Y-121.493
X151.183Y-88.498
X151.578Y-117.556
X151.713Y-92.349
X151.927Y-121.493
X152.183Y-88.498
X152.975Y-117.556
X153.11Y-92.349
X157.25Y-114.5
X157.69Y-95.81
X161.193Y-109.341
X161.193Y-111.743
X161.195Y-98.642
X161.195Y-101.039
X162.846Y-103.69
X162.846Y-104.69
X162.846Y-105.69
X162.846Y-106.69
X165.13Y-107.69
X165.13Y-108.695
X165.132Y-101.69
X165.132Y-102.69
X165.132Y-103.69
X165.132Y-104.69
X165.132Y-105.69
X165.132Y-106.69
T2
X148.501Y-105.004
T3
X137.071Y-93.574
X137.071Y-116.434
X159.931Y-93.574
X159.931Y-116.434
T0
M30
