%TF.GenerationSoftware,KiCad,Pcbnew,9.0.2*%
%TF.CreationDate,2025-06-20T10:33:36-04:00*%
%TF.ProjectId,GlassIDC_Mounted_10x15mm,476c6173-7349-4444-935f-4d6f756e7465,rev?*%
%TF.SameCoordinates,Original*%
%TF.FileFunction,Copper,L2,Bot*%
%TF.FilePolarity,Positive*%
%FSLAX46Y46*%
G04 Gerber Fmt 4.6, Leading zero omitted, Abs format (unit mm)*
G04 Created by KiCad (PCBNEW 9.0.2) date 2025-06-20 10:33:36*
%MOMM*%
%LPD*%
G01*
G04 APERTURE LIST*
%TA.AperFunction,NonConductor*%
%ADD10C,0.200000*%
%TD*%
%TA.AperFunction,NonConductor*%
%ADD11C,1.016000*%
%TD*%
%TA.AperFunction,NonConductor*%
%ADD12C,1.000000*%
%TD*%
%TA.AperFunction,ComponentPad*%
%ADD13C,5.000000*%
%TD*%
%TA.AperFunction,ViaPad*%
%ADD14C,0.450000*%
%TD*%
%TA.AperFunction,ViaPad*%
%ADD15C,0.700000*%
%TD*%
%TA.AperFunction,ViaPad*%
%ADD16C,1.500000*%
%TD*%
%TA.AperFunction,Conductor*%
%ADD17C,0.254000*%
%TD*%
%TA.AperFunction,Conductor*%
%ADD18C,0.250000*%
%TD*%
G04 APERTURE END LIST*
D10*
X145922000Y-88251000D02*
X146430000Y-88251000D01*
X146430000Y-89140000D01*
X145922000Y-89140000D01*
X145922000Y-88251000D01*
%TA.AperFunction,NonConductor*%
G36*
X145922000Y-88251000D02*
G01*
X146430000Y-88251000D01*
X146430000Y-89140000D01*
X145922000Y-89140000D01*
X145922000Y-88251000D01*
G37*
%TD.AperFunction*%
D11*
X138341100Y-116433600D02*
G75*
G02*
X135801100Y-116433600I-1270000J0D01*
G01*
X135801100Y-116433600D02*
G75*
G02*
X138341100Y-116433600I1270000J0D01*
G01*
D10*
X145672000Y-120870000D02*
X146180000Y-120870000D01*
X146180000Y-121759000D01*
X145672000Y-121759000D01*
X145672000Y-120870000D01*
%TA.AperFunction,NonConductor*%
G36*
X145672000Y-120870000D02*
G01*
X146180000Y-120870000D01*
X146180000Y-121759000D01*
X145672000Y-121759000D01*
X145672000Y-120870000D01*
G37*
%TD.AperFunction*%
X149929100Y-88242600D02*
X150437100Y-88242600D01*
X150437100Y-89131600D01*
X149929100Y-89131600D01*
X149929100Y-88242600D01*
%TA.AperFunction,NonConductor*%
G36*
X149929100Y-88242600D02*
G01*
X150437100Y-88242600D01*
X150437100Y-89131600D01*
X149929100Y-89131600D01*
X149929100Y-88242600D01*
G37*
%TD.AperFunction*%
X131659050Y-105383000D02*
X132548050Y-105383000D01*
X132548050Y-105891000D01*
X131659050Y-105891000D01*
X131659050Y-105383000D01*
%TA.AperFunction,NonConductor*%
G36*
X131659050Y-105383000D02*
G01*
X132548050Y-105383000D01*
X132548050Y-105891000D01*
X131659050Y-105891000D01*
X131659050Y-105383000D01*
G37*
%TD.AperFunction*%
X131659050Y-103383000D02*
X132548050Y-103383000D01*
X132548050Y-103891000D01*
X131659050Y-103891000D01*
X131659050Y-103383000D01*
%TA.AperFunction,NonConductor*%
G36*
X131659050Y-103383000D02*
G01*
X132548050Y-103383000D01*
X132548050Y-103891000D01*
X131659050Y-103891000D01*
X131659050Y-103383000D01*
G37*
%TD.AperFunction*%
D12*
X136317933Y-91002582D02*
G75*
G02*
X134393840Y-93475261I753167J-2571018D01*
G01*
D10*
X151672900Y-120858400D02*
X152180900Y-120858400D01*
X152180900Y-121747400D01*
X151672900Y-121747400D01*
X151672900Y-120858400D01*
%TA.AperFunction,NonConductor*%
G36*
X151672900Y-120858400D02*
G01*
X152180900Y-120858400D01*
X152180900Y-121747400D01*
X151672900Y-121747400D01*
X151672900Y-120858400D01*
G37*
%TD.AperFunction*%
X146929100Y-88242600D02*
X147437100Y-88242600D01*
X147437100Y-89131600D01*
X146929100Y-89131600D01*
X146929100Y-88242600D01*
%TA.AperFunction,NonConductor*%
G36*
X146929100Y-88242600D02*
G01*
X147437100Y-88242600D01*
X147437100Y-89131600D01*
X146929100Y-89131600D01*
X146929100Y-88242600D01*
G37*
%TD.AperFunction*%
X147929100Y-88242600D02*
X148437100Y-88242600D01*
X148437100Y-89131600D01*
X147929100Y-89131600D01*
X147929100Y-88242600D01*
%TA.AperFunction,NonConductor*%
G36*
X147929100Y-88242600D02*
G01*
X148437100Y-88242600D01*
X148437100Y-89131600D01*
X147929100Y-89131600D01*
X147929100Y-88242600D01*
G37*
%TD.AperFunction*%
X131659050Y-108383000D02*
X132548050Y-108383000D01*
X132548050Y-108891000D01*
X131659050Y-108891000D01*
X131659050Y-108383000D01*
%TA.AperFunction,NonConductor*%
G36*
X131659050Y-108383000D02*
G01*
X132548050Y-108383000D01*
X132548050Y-108891000D01*
X131659050Y-108891000D01*
X131659050Y-108383000D01*
G37*
%TD.AperFunction*%
D12*
X160800001Y-118800000D02*
G75*
G02*
X162261292Y-117427774I-932401J2457100D01*
G01*
D10*
X148672900Y-120858400D02*
X149180900Y-120858400D01*
X149180900Y-121747400D01*
X148672900Y-121747400D01*
X148672900Y-120858400D01*
%TA.AperFunction,NonConductor*%
G36*
X148672900Y-120858400D02*
G01*
X149180900Y-120858400D01*
X149180900Y-121747400D01*
X148672900Y-121747400D01*
X148672900Y-120858400D01*
G37*
%TD.AperFunction*%
X131659050Y-104383000D02*
X132548050Y-104383000D01*
X132548050Y-104891000D01*
X131659050Y-104891000D01*
X131659050Y-104383000D01*
%TA.AperFunction,NonConductor*%
G36*
X131659050Y-104383000D02*
G01*
X132548050Y-104383000D01*
X132548050Y-104891000D01*
X131659050Y-104891000D01*
X131659050Y-104383000D01*
G37*
%TD.AperFunction*%
X164496900Y-105436000D02*
X165385900Y-105436000D01*
X165385900Y-105944000D01*
X164496900Y-105944000D01*
X164496900Y-105436000D01*
%TA.AperFunction,NonConductor*%
G36*
X164496900Y-105436000D02*
G01*
X165385900Y-105436000D01*
X165385900Y-105944000D01*
X164496900Y-105944000D01*
X164496900Y-105436000D01*
G37*
%TD.AperFunction*%
X144929100Y-88242600D02*
X145437100Y-88242600D01*
X145437100Y-89131600D01*
X144929100Y-89131600D01*
X144929100Y-88242600D01*
%TA.AperFunction,NonConductor*%
G36*
X144929100Y-88242600D02*
G01*
X145437100Y-88242600D01*
X145437100Y-89131600D01*
X144929100Y-89131600D01*
X144929100Y-88242600D01*
G37*
%TD.AperFunction*%
X146672900Y-120858400D02*
X147180900Y-120858400D01*
X147180900Y-121747400D01*
X146672900Y-121747400D01*
X146672900Y-120858400D01*
%TA.AperFunction,NonConductor*%
G36*
X146672900Y-120858400D02*
G01*
X147180900Y-120858400D01*
X147180900Y-121747400D01*
X146672900Y-121747400D01*
X146672900Y-120858400D01*
G37*
%TD.AperFunction*%
X164495000Y-108441000D02*
X165384000Y-108441000D01*
X165384000Y-108949000D01*
X164495000Y-108949000D01*
X164495000Y-108441000D01*
%TA.AperFunction,NonConductor*%
G36*
X164495000Y-108441000D02*
G01*
X165384000Y-108441000D01*
X165384000Y-108949000D01*
X164495000Y-108949000D01*
X164495000Y-108441000D01*
G37*
%TD.AperFunction*%
X164496900Y-106436000D02*
X165385900Y-106436000D01*
X165385900Y-106944000D01*
X164496900Y-106944000D01*
X164496900Y-106436000D01*
%TA.AperFunction,NonConductor*%
G36*
X164496900Y-106436000D02*
G01*
X165385900Y-106436000D01*
X165385900Y-106944000D01*
X164496900Y-106944000D01*
X164496900Y-106436000D01*
G37*
%TD.AperFunction*%
X151934100Y-88244500D02*
X152442100Y-88244500D01*
X152442100Y-89133500D01*
X151934100Y-89133500D01*
X151934100Y-88244500D01*
%TA.AperFunction,NonConductor*%
G36*
X151934100Y-88244500D02*
G01*
X152442100Y-88244500D01*
X152442100Y-89133500D01*
X151934100Y-89133500D01*
X151934100Y-88244500D01*
G37*
%TD.AperFunction*%
D11*
X138341100Y-93573600D02*
G75*
G02*
X135801100Y-93573600I-1270000J0D01*
G01*
X135801100Y-93573600D02*
G75*
G02*
X138341100Y-93573600I1270000J0D01*
G01*
D10*
X148929100Y-88242600D02*
X149437100Y-88242600D01*
X149437100Y-89131600D01*
X148929100Y-89131600D01*
X148929100Y-88242600D01*
%TA.AperFunction,NonConductor*%
G36*
X148929100Y-88242600D02*
G01*
X149437100Y-88242600D01*
X149437100Y-89131600D01*
X148929100Y-89131600D01*
X148929100Y-88242600D01*
G37*
%TD.AperFunction*%
X149672900Y-120858400D02*
X150180900Y-120858400D01*
X150180900Y-121747400D01*
X149672900Y-121747400D01*
X149672900Y-120858400D01*
%TA.AperFunction,NonConductor*%
G36*
X149672900Y-120858400D02*
G01*
X150180900Y-120858400D01*
X150180900Y-121747400D01*
X149672900Y-121747400D01*
X149672900Y-120858400D01*
G37*
%TD.AperFunction*%
D12*
X162589683Y-92805782D02*
G75*
G02*
X160709566Y-90822611I-2678183J-656218D01*
G01*
D10*
X164496900Y-101436000D02*
X165385900Y-101436000D01*
X165385900Y-101944000D01*
X164496900Y-101944000D01*
X164496900Y-101436000D01*
%TA.AperFunction,NonConductor*%
G36*
X164496900Y-101436000D02*
G01*
X165385900Y-101436000D01*
X165385900Y-101944000D01*
X164496900Y-101944000D01*
X164496900Y-101436000D01*
G37*
%TD.AperFunction*%
X131659050Y-107383000D02*
X132548050Y-107383000D01*
X132548050Y-107891000D01*
X131659050Y-107891000D01*
X131659050Y-107383000D01*
%TA.AperFunction,NonConductor*%
G36*
X131659050Y-107383000D02*
G01*
X132548050Y-107383000D01*
X132548050Y-107891000D01*
X131659050Y-107891000D01*
X131659050Y-107383000D01*
G37*
%TD.AperFunction*%
X164496900Y-104436000D02*
X165385900Y-104436000D01*
X165385900Y-104944000D01*
X164496900Y-104944000D01*
X164496900Y-104436000D01*
%TA.AperFunction,NonConductor*%
G36*
X164496900Y-104436000D02*
G01*
X165385900Y-104436000D01*
X165385900Y-104944000D01*
X164496900Y-104944000D01*
X164496900Y-104436000D01*
G37*
%TD.AperFunction*%
X164496900Y-103436000D02*
X165385900Y-103436000D01*
X165385900Y-103944000D01*
X164496900Y-103944000D01*
X164496900Y-103436000D01*
%TA.AperFunction,NonConductor*%
G36*
X164496900Y-103436000D02*
G01*
X165385900Y-103436000D01*
X165385900Y-103944000D01*
X164496900Y-103944000D01*
X164496900Y-103436000D01*
G37*
%TD.AperFunction*%
X131659050Y-106383000D02*
X132548050Y-106383000D01*
X132548050Y-106891000D01*
X131659050Y-106891000D01*
X131659050Y-106383000D01*
%TA.AperFunction,NonConductor*%
G36*
X131659050Y-106383000D02*
G01*
X132548050Y-106383000D01*
X132548050Y-106891000D01*
X131659050Y-106891000D01*
X131659050Y-106383000D01*
G37*
%TD.AperFunction*%
D12*
X134599415Y-117184361D02*
G75*
G02*
X135760311Y-118594991I2482085J859661D01*
G01*
D10*
X144667900Y-120856500D02*
X145175900Y-120856500D01*
X145175900Y-121745500D01*
X144667900Y-121745500D01*
X144667900Y-120856500D01*
%TA.AperFunction,NonConductor*%
G36*
X144667900Y-120856500D02*
G01*
X145175900Y-120856500D01*
X145175900Y-121745500D01*
X144667900Y-121745500D01*
X144667900Y-120856500D01*
G37*
%TD.AperFunction*%
X150680000Y-120850000D02*
X151188000Y-120850000D01*
X151188000Y-121739000D01*
X150680000Y-121739000D01*
X150680000Y-120850000D01*
%TA.AperFunction,NonConductor*%
G36*
X150680000Y-120850000D02*
G01*
X151188000Y-120850000D01*
X151188000Y-121739000D01*
X150680000Y-121739000D01*
X150680000Y-120850000D01*
G37*
%TD.AperFunction*%
D11*
X161201100Y-116433600D02*
G75*
G02*
X158661100Y-116433600I-1270000J0D01*
G01*
X158661100Y-116433600D02*
G75*
G02*
X161201100Y-116433600I1270000J0D01*
G01*
X161201100Y-93573600D02*
G75*
G02*
X158661100Y-93573600I-1270000J0D01*
G01*
X158661100Y-93573600D02*
G75*
G02*
X161201100Y-93573600I1270000J0D01*
G01*
D10*
X164496900Y-102436000D02*
X165385900Y-102436000D01*
X165385900Y-102944000D01*
X164496900Y-102944000D01*
X164496900Y-102436000D01*
%TA.AperFunction,NonConductor*%
G36*
X164496900Y-102436000D02*
G01*
X165385900Y-102436000D01*
X165385900Y-102944000D01*
X164496900Y-102944000D01*
X164496900Y-102436000D01*
G37*
%TD.AperFunction*%
X147672900Y-120858400D02*
X148180900Y-120858400D01*
X148180900Y-121747400D01*
X147672900Y-121747400D01*
X147672900Y-120858400D01*
%TA.AperFunction,NonConductor*%
G36*
X147672900Y-120858400D02*
G01*
X148180900Y-120858400D01*
X148180900Y-121747400D01*
X147672900Y-121747400D01*
X147672900Y-120858400D01*
G37*
%TD.AperFunction*%
X131660950Y-101378000D02*
X132549950Y-101378000D01*
X132549950Y-101886000D01*
X131660950Y-101886000D01*
X131660950Y-101378000D01*
%TA.AperFunction,NonConductor*%
G36*
X131660950Y-101378000D02*
G01*
X132549950Y-101378000D01*
X132549950Y-101886000D01*
X131660950Y-101886000D01*
X131660950Y-101378000D01*
G37*
%TD.AperFunction*%
X131660950Y-102383000D02*
X132549950Y-102383000D01*
X132549950Y-102891000D01*
X131660950Y-102891000D01*
X131660950Y-102383000D01*
%TA.AperFunction,NonConductor*%
G36*
X131660950Y-102383000D02*
G01*
X132549950Y-102383000D01*
X132549950Y-102891000D01*
X131660950Y-102891000D01*
X131660950Y-102383000D01*
G37*
%TD.AperFunction*%
X150930000Y-88231000D02*
X151438000Y-88231000D01*
X151438000Y-89120000D01*
X150930000Y-89120000D01*
X150930000Y-88231000D01*
%TA.AperFunction,NonConductor*%
G36*
X150930000Y-88231000D02*
G01*
X151438000Y-88231000D01*
X151438000Y-89120000D01*
X150930000Y-89120000D01*
X150930000Y-88231000D01*
G37*
%TD.AperFunction*%
X164495000Y-107436000D02*
X165384000Y-107436000D01*
X165384000Y-107944000D01*
X164495000Y-107944000D01*
X164495000Y-107436000D01*
%TA.AperFunction,NonConductor*%
G36*
X164495000Y-107436000D02*
G01*
X165384000Y-107436000D01*
X165384000Y-107944000D01*
X164495000Y-107944000D01*
X164495000Y-107436000D01*
G37*
%TD.AperFunction*%
D13*
%TO.P,REF\u002A\u002A,1*%
%TO.N,N/C*%
X137011817Y-93457817D03*
%TD*%
%TO.P,REF\u002A\u002A,1*%
%TO.N,N/C*%
X159867637Y-116342911D03*
%TD*%
%TO.P,REF\u002A\u002A,1*%
%TO.N,N/C*%
X137081545Y-116324726D03*
%TD*%
%TO.P,REF\u002A\u002A,1*%
%TO.N,N/C*%
X159911452Y-93461999D03*
%TD*%
D14*
%TO.N,*%
X148500000Y-116500000D03*
X142091443Y-96128418D03*
D15*
X148183100Y-88496600D03*
X149183100Y-88496600D03*
X133960893Y-96679101D03*
D14*
X142109497Y-97976930D03*
X143955577Y-114010677D03*
X154847936Y-113946484D03*
X154785937Y-96055468D03*
D15*
X151183100Y-88498500D03*
X148926900Y-121493400D03*
X131913050Y-104637000D03*
D14*
X154809128Y-106157290D03*
D15*
X146183100Y-88496600D03*
D16*
X148460000Y-104950000D03*
D15*
X141366669Y-91011201D03*
D14*
X142148756Y-110103241D03*
D15*
X165131900Y-106690000D03*
X151926900Y-121493400D03*
D14*
X154867953Y-112069906D03*
X142114872Y-108085127D03*
X142115175Y-106196384D03*
D15*
X165131900Y-104690000D03*
X131914950Y-101632000D03*
X156500000Y-119000000D03*
D14*
X154862275Y-103850452D03*
D15*
X155922435Y-91344588D03*
D14*
X154873519Y-108052770D03*
D15*
X165130000Y-107690000D03*
X162366750Y-97211137D03*
D14*
X154867841Y-99833316D03*
X148517557Y-93719072D03*
X153058758Y-113985806D03*
D15*
X165131900Y-105690000D03*
X150183100Y-88496600D03*
X165130000Y-108695000D03*
X131913050Y-105637000D03*
D14*
X152996759Y-96094790D03*
D15*
X131913050Y-103637000D03*
X152183100Y-88498500D03*
X134538659Y-112945440D03*
X146926900Y-121493400D03*
X131913050Y-107637000D03*
D14*
X149331515Y-96082903D03*
X151104047Y-113963919D03*
D15*
X131914950Y-102637000D03*
D14*
X157500000Y-105000000D03*
X154842709Y-110064147D03*
X142143078Y-101883787D03*
D15*
X165131900Y-102690000D03*
X144921900Y-121491500D03*
X140138546Y-119211980D03*
D14*
X142173888Y-99872410D03*
D15*
X145183100Y-88496600D03*
D14*
X154803450Y-97937836D03*
D15*
X165131900Y-103690000D03*
D14*
X147573256Y-113966145D03*
X145862723Y-113975806D03*
X142174000Y-112109000D03*
D15*
X147926900Y-121493400D03*
D14*
X143884904Y-96097450D03*
X142153442Y-114019434D03*
D15*
X162855629Y-112766378D03*
X131913050Y-108637000D03*
D14*
X151042048Y-96072903D03*
X149393514Y-113973919D03*
X154837031Y-101844693D03*
D15*
X165131900Y-101690000D03*
X147183100Y-88496600D03*
D14*
X142168322Y-103889546D03*
X147511257Y-96075129D03*
X145800724Y-96084790D03*
X139500000Y-105000000D03*
D15*
X150926900Y-121493400D03*
X131913050Y-106637000D03*
X149926900Y-121493400D03*
X145926900Y-121491500D03*
%TD*%
D17*
%TO.N,*%
X132001728Y-103648097D02*
X136151903Y-103648097D01*
X160690000Y-102690000D02*
X157833316Y-99833316D01*
X145800724Y-93999276D02*
X147183100Y-92616900D01*
X137909000Y-112109000D02*
X142174000Y-112109000D01*
D18*
X152996759Y-96094790D02*
X152996759Y-93996759D01*
D17*
X145922541Y-119122541D02*
X145922541Y-121495295D01*
X149183100Y-92983100D02*
X149183100Y-88458500D01*
X147926900Y-117726900D02*
X147926900Y-121531500D01*
X153058758Y-117341242D02*
X150918798Y-119481202D01*
X160310000Y-107690000D02*
X157935853Y-110064147D01*
X154809128Y-106157290D02*
X158042710Y-106157290D01*
X142091443Y-95108557D02*
X142091443Y-96128418D01*
X157833316Y-99833316D02*
X154867841Y-99833316D01*
D18*
X143884904Y-96097450D02*
X143884904Y-94715096D01*
D17*
X138000558Y-103889546D02*
X142168322Y-103889546D01*
X161690000Y-101690000D02*
X165170000Y-101690000D01*
X152188100Y-88460400D02*
X152200000Y-88472300D01*
X148926900Y-118073100D02*
X148926900Y-121531500D01*
X150918798Y-119481202D02*
X150918798Y-121474125D01*
X158042710Y-106157290D02*
X158510000Y-105690000D01*
X131919029Y-106658341D02*
X136658341Y-106658341D01*
X147183100Y-92616900D02*
X147183100Y-88458500D01*
X132001728Y-102688788D02*
X135311212Y-102688788D01*
X138127590Y-99872410D02*
X142173888Y-99872410D01*
X154862275Y-103850452D02*
X158005399Y-103850452D01*
X149393514Y-113973919D02*
X149393514Y-117606486D01*
X145862723Y-113975806D02*
X145862723Y-117262723D01*
X154847936Y-117221966D02*
X154847936Y-113946484D01*
X134459658Y-108659658D02*
X137909000Y-112109000D01*
X154873519Y-108052770D02*
X157947230Y-108052770D01*
X147573256Y-113966145D02*
X147573256Y-117373256D01*
X148183100Y-92816900D02*
X148183100Y-88458500D01*
X143955577Y-114010677D02*
X143955577Y-117155577D01*
X165170000Y-102690000D02*
X160690000Y-102690000D01*
X151104047Y-117495953D02*
X149926900Y-118673100D01*
X157956713Y-112069906D02*
X161331619Y-108695000D01*
X137903241Y-110103241D02*
X142148756Y-110103241D01*
X145183100Y-88458500D02*
X145183100Y-92016900D01*
X151042048Y-96072903D02*
X151042048Y-93242048D01*
D18*
X146170000Y-89090000D02*
X146190000Y-89070000D01*
D17*
X157986557Y-101844693D02*
X159831864Y-103690000D01*
X149926900Y-118673100D02*
X149926900Y-121531500D01*
X136658341Y-106658341D02*
X138085127Y-108085127D01*
X138085127Y-108085127D02*
X142114872Y-108085127D01*
X138012718Y-106196384D02*
X142115175Y-106196384D01*
D18*
X152996759Y-93996759D02*
X151220000Y-92220000D01*
D17*
X137916213Y-101883787D02*
X142143078Y-101883787D01*
X135467270Y-107667270D02*
X137903241Y-110103241D01*
X151042048Y-93242048D02*
X150183100Y-92383100D01*
X150183100Y-92383100D02*
X150183100Y-88458500D01*
X165168100Y-107690000D02*
X160310000Y-107690000D01*
X147511257Y-93488743D02*
X148183100Y-92816900D01*
X132105450Y-101632000D02*
X132137450Y-101600000D01*
X144921900Y-120121900D02*
X142153442Y-117353442D01*
X144921900Y-121529600D02*
X144921900Y-120121900D01*
X143955577Y-117155577D02*
X145922541Y-119122541D01*
X145183100Y-92016900D02*
X142091443Y-95108557D01*
X154803450Y-97937836D02*
X157937836Y-97937836D01*
X152200000Y-92000000D02*
X154785937Y-94585937D01*
D18*
X146170000Y-92430000D02*
X146170000Y-89090000D01*
D17*
X157947230Y-108052770D02*
X159310000Y-106690000D01*
X131935568Y-107667270D02*
X135467270Y-107667270D01*
X151926900Y-121531500D02*
X151926900Y-120143002D01*
X135311212Y-102688788D02*
X138127590Y-99872410D01*
X149331515Y-93131515D02*
X149183100Y-92983100D01*
X158510000Y-105690000D02*
X165170000Y-105690000D01*
X159310000Y-106690000D02*
X165170000Y-106690000D01*
X154837031Y-101844693D02*
X157986557Y-101844693D01*
X146926900Y-118326900D02*
X146926900Y-121531500D01*
X154867953Y-112069906D02*
X157956713Y-112069906D01*
X136151903Y-103648097D02*
X137916213Y-101883787D01*
X137482287Y-105665953D02*
X138012718Y-106196384D01*
X151104047Y-113963919D02*
X151104047Y-117495953D01*
X161331619Y-108695000D02*
X165168100Y-108695000D01*
X131952108Y-108659658D02*
X134459658Y-108659658D01*
D18*
X151220000Y-92220000D02*
X151220000Y-89070000D01*
D17*
X152200000Y-88472300D02*
X152200000Y-92000000D01*
X138023070Y-97976930D02*
X142109497Y-97976930D01*
X134400000Y-101600000D02*
X138023070Y-97976930D01*
X149331515Y-96082903D02*
X149331515Y-93131515D01*
X157935853Y-110064147D02*
X154842709Y-110064147D01*
X158005399Y-103850452D02*
X158844947Y-104690000D01*
X147511257Y-96075129D02*
X147511257Y-93488743D01*
X137200000Y-104690104D02*
X138000558Y-103889546D01*
D18*
X151220000Y-89070000D02*
X151210000Y-89060000D01*
D17*
X131919029Y-105665953D02*
X137482287Y-105665953D01*
X142153442Y-117353442D02*
X142153442Y-114019434D01*
D18*
X143884904Y-94715096D02*
X146170000Y-92430000D01*
D17*
X151926900Y-120143002D02*
X154847936Y-117221966D01*
X145800724Y-96084790D02*
X145800724Y-93999276D01*
X132137450Y-101600000D02*
X134400000Y-101600000D01*
X154785937Y-94585937D02*
X154785937Y-96055468D01*
X158844947Y-104690000D02*
X165170000Y-104690000D01*
X147573256Y-117373256D02*
X147926900Y-117726900D01*
X153058758Y-113985806D02*
X153058758Y-117341242D01*
X157937836Y-97937836D02*
X161690000Y-101690000D01*
X149393514Y-117606486D02*
X148926900Y-118073100D01*
X145862723Y-117262723D02*
X146926900Y-118326900D01*
X159831864Y-103690000D02*
X165170000Y-103690000D01*
X131935568Y-104690104D02*
X137200000Y-104690104D01*
%TD*%
%TA.AperFunction,NonConductor*%
G36*
X148928497Y-86604115D02*
G01*
X149773233Y-86643170D01*
X149777744Y-86643483D01*
X150619820Y-86721512D01*
X150624354Y-86722038D01*
X151461933Y-86838875D01*
X151466375Y-86839601D01*
X152297658Y-86994995D01*
X152302086Y-86995929D01*
X153125296Y-87189546D01*
X153129667Y-87190680D01*
X153943084Y-87422117D01*
X153947439Y-87423467D01*
X154014058Y-87445795D01*
X154019306Y-87447722D01*
X154304823Y-87561929D01*
X154399984Y-87599994D01*
X154399999Y-87599999D01*
X154400000Y-87600000D01*
X155977595Y-88191598D01*
X155982794Y-88193718D01*
X156039186Y-88218618D01*
X156319880Y-88342557D01*
X156324020Y-88344501D01*
X157036997Y-88699521D01*
X157080981Y-88721422D01*
X157085020Y-88723550D01*
X157823817Y-89135057D01*
X157827732Y-89137357D01*
X158546734Y-89582544D01*
X158550546Y-89585028D01*
X158889181Y-89816999D01*
X158892632Y-89819474D01*
X159428718Y-90221539D01*
X159463926Y-90271578D01*
X159462997Y-90332757D01*
X159426286Y-90381705D01*
X159384393Y-90398583D01*
X159266636Y-90416726D01*
X159266629Y-90416727D01*
X158931426Y-90507513D01*
X158608422Y-90635070D01*
X158608416Y-90635073D01*
X158301630Y-90797819D01*
X158201227Y-90866415D01*
X158015670Y-90993188D01*
X158014875Y-90993731D01*
X157751739Y-91220355D01*
X157515491Y-91474871D01*
X157515476Y-91474890D01*
X157309045Y-91754144D01*
X157134999Y-92054668D01*
X157047685Y-92253752D01*
X156995513Y-92372709D01*
X156937919Y-92557784D01*
X156892321Y-92704308D01*
X156826712Y-93045326D01*
X156826711Y-93045332D01*
X156799607Y-93390127D01*
X156799495Y-93391546D01*
X156802153Y-93471616D01*
X156811015Y-93738638D01*
X156811015Y-93738645D01*
X156861125Y-94082282D01*
X156861127Y-94082291D01*
X156949204Y-94418210D01*
X157074147Y-94742219D01*
X157074154Y-94742235D01*
X157234419Y-95050325D01*
X157428007Y-95338645D01*
X157428010Y-95338648D01*
X157652497Y-95603598D01*
X157652503Y-95603604D01*
X157652506Y-95603607D01*
X157905122Y-95841912D01*
X158182711Y-96050595D01*
X158182717Y-96050598D01*
X158182719Y-96050600D01*
X158481810Y-96227053D01*
X158481813Y-96227054D01*
X158481819Y-96227058D01*
X158798721Y-96369105D01*
X158798726Y-96369106D01*
X158798727Y-96369107D01*
X158918538Y-96407454D01*
X159129475Y-96474967D01*
X159469962Y-96543328D01*
X159815944Y-96573335D01*
X160163116Y-96564616D01*
X160163123Y-96564615D01*
X160163124Y-96564615D01*
X160205101Y-96558839D01*
X160507157Y-96517279D01*
X160843783Y-96431913D01*
X160843786Y-96431911D01*
X160843795Y-96431909D01*
X161010651Y-96369107D01*
X161168805Y-96309581D01*
X161478178Y-96151806D01*
X161768050Y-95960551D01*
X162034814Y-95738197D01*
X162275150Y-95487511D01*
X162486065Y-95211614D01*
X162664936Y-94913940D01*
X162683154Y-94874160D01*
X162743569Y-94742235D01*
X162809534Y-94598193D01*
X162918061Y-94268305D01*
X162989014Y-93929104D01*
X163019433Y-93876023D01*
X163075248Y-93850955D01*
X163135137Y-93863483D01*
X163164918Y-93889717D01*
X163439112Y-94252809D01*
X163441758Y-94256488D01*
X163589444Y-94472081D01*
X163758130Y-94718333D01*
X163765003Y-94730007D01*
X165796335Y-98792671D01*
X165802409Y-98807831D01*
X166408850Y-100778767D01*
X166410598Y-100785215D01*
X166508765Y-101202590D01*
X166509709Y-101207065D01*
X166561743Y-101485420D01*
X166657322Y-101996725D01*
X166665092Y-102038288D01*
X166665829Y-102042802D01*
X166782660Y-102880341D01*
X166783187Y-102884883D01*
X166861214Y-103726929D01*
X166861530Y-103731492D01*
X166900584Y-104576202D01*
X166900690Y-104580774D01*
X166900690Y-105426425D01*
X166900584Y-105430997D01*
X166861530Y-106275707D01*
X166861214Y-106280270D01*
X166787993Y-107070441D01*
X166787068Y-107077581D01*
X166476580Y-108940514D01*
X166475297Y-108946905D01*
X166315160Y-109627767D01*
X166314011Y-109632194D01*
X166264540Y-109806064D01*
X166263239Y-109810277D01*
X165800918Y-111197243D01*
X165798917Y-111202705D01*
X165106751Y-112933120D01*
X165103453Y-112940480D01*
X164850226Y-113449027D01*
X164846497Y-113455834D01*
X163667393Y-115421008D01*
X163664176Y-115426021D01*
X163441771Y-115750694D01*
X163439100Y-115754407D01*
X163022621Y-116305913D01*
X162972464Y-116340956D01*
X162911290Y-116339825D01*
X162862463Y-116302953D01*
X162844671Y-116249507D01*
X162838913Y-116074304D01*
X162788711Y-115736310D01*
X162700191Y-115406274D01*
X162574514Y-115088523D01*
X162413327Y-114787228D01*
X162218746Y-114506340D01*
X161993323Y-114249543D01*
X161963199Y-114222270D01*
X161740014Y-114020206D01*
X161462148Y-113821341D01*
X161462138Y-113821335D01*
X161163367Y-113655553D01*
X161163354Y-113655547D01*
X160847576Y-113525013D01*
X160847574Y-113525012D01*
X160847573Y-113525012D01*
X160746094Y-113496118D01*
X160518939Y-113431440D01*
X160518927Y-113431438D01*
X160181763Y-113376060D01*
X160181757Y-113376059D01*
X160181749Y-113376058D01*
X160127968Y-113373463D01*
X159840451Y-113359595D01*
X159840448Y-113359596D01*
X159840446Y-113359596D01*
X159840445Y-113359596D01*
X159767587Y-113364440D01*
X159499500Y-113382267D01*
X159499491Y-113382268D01*
X159163370Y-113443779D01*
X159163368Y-113443779D01*
X158836504Y-113543313D01*
X158836483Y-113543321D01*
X158523149Y-113679576D01*
X158523131Y-113679586D01*
X158227417Y-113850783D01*
X157953220Y-114054670D01*
X157953208Y-114054680D01*
X157704119Y-114288588D01*
X157483411Y-114549443D01*
X157293978Y-114833824D01*
X157293971Y-114833836D01*
X157138299Y-115138009D01*
X157138298Y-115138011D01*
X157018428Y-115457991D01*
X156935932Y-115789577D01*
X156935928Y-115789601D01*
X156891890Y-116128429D01*
X156891889Y-116128449D01*
X156886884Y-116470092D01*
X156886885Y-116470101D01*
X156920979Y-116810097D01*
X156993728Y-117143965D01*
X157054056Y-117320588D01*
X157103179Y-117464407D01*
X157104177Y-117467327D01*
X157250871Y-117775931D01*
X157250874Y-117775936D01*
X157431896Y-118065744D01*
X157565198Y-118232992D01*
X157644873Y-118332957D01*
X157887005Y-118574063D01*
X158155119Y-118785900D01*
X158445690Y-118965687D01*
X158445692Y-118965689D01*
X158445695Y-118965690D01*
X158445696Y-118965691D01*
X158754926Y-119111076D01*
X159078752Y-119220149D01*
X159412926Y-119291478D01*
X159753064Y-119324129D01*
X159753080Y-119324128D01*
X159755902Y-119324238D01*
X159755864Y-119325216D01*
X159778849Y-119332199D01*
X159805809Y-119338621D01*
X159807858Y-119341011D01*
X159810871Y-119341927D01*
X159827590Y-119364032D01*
X159845628Y-119385077D01*
X159845880Y-119388215D01*
X159847780Y-119390727D01*
X159848312Y-119418437D01*
X159850536Y-119446065D01*
X159848895Y-119448752D01*
X159848956Y-119451901D01*
X159818659Y-119498290D01*
X159670791Y-119625034D01*
X159666024Y-119628872D01*
X159251916Y-119941592D01*
X159248204Y-119944263D01*
X158550556Y-120422164D01*
X158546724Y-120424661D01*
X158121826Y-120687746D01*
X158117788Y-120690116D01*
X157201862Y-121198964D01*
X157198057Y-121200970D01*
X155901439Y-121849278D01*
X155897153Y-121851295D01*
X155644281Y-121962949D01*
X155575515Y-121993313D01*
X155546306Y-122006210D01*
X155542081Y-122007960D01*
X154753527Y-122313447D01*
X154749225Y-122315000D01*
X153947440Y-122583732D01*
X153943072Y-122585085D01*
X153423646Y-122732874D01*
X153418814Y-122734118D01*
X151858093Y-123094284D01*
X151854024Y-123095133D01*
X151466412Y-123167592D01*
X151461897Y-123168329D01*
X150624358Y-123285160D01*
X150619816Y-123285687D01*
X149777770Y-123363714D01*
X149773207Y-123364030D01*
X148997496Y-123399894D01*
X148992924Y-123400000D01*
X148009276Y-123400000D01*
X148004704Y-123399894D01*
X147228992Y-123364030D01*
X147224429Y-123363714D01*
X146382383Y-123285687D01*
X146377841Y-123285160D01*
X145540302Y-123168329D01*
X145535788Y-123167592D01*
X144704565Y-123012209D01*
X144700090Y-123011265D01*
X144221703Y-122898749D01*
X144215255Y-122897001D01*
X142601131Y-122400348D01*
X142598938Y-122399646D01*
X141685761Y-122095253D01*
X141681305Y-122093648D01*
X141460136Y-122007967D01*
X141455911Y-122006217D01*
X141086195Y-121842971D01*
X141081909Y-121840954D01*
X139479474Y-121039737D01*
X139475574Y-121037677D01*
X139337232Y-120960620D01*
X139332936Y-120958084D01*
X138205359Y-120253349D01*
X138201880Y-120251072D01*
X137753995Y-119944263D01*
X137750283Y-119941592D01*
X137136238Y-119477887D01*
X137101195Y-119427731D01*
X137102326Y-119366556D01*
X137139198Y-119317729D01*
X137191778Y-119299969D01*
X137374715Y-119292352D01*
X137709609Y-119239903D01*
X138036387Y-119149788D01*
X138350828Y-119023170D01*
X138648867Y-118861685D01*
X138926655Y-118667420D01*
X139180601Y-118442885D01*
X139407425Y-118190981D01*
X139604197Y-117914962D01*
X139768372Y-117618397D01*
X139897831Y-117305115D01*
X139990900Y-116979166D01*
X140046377Y-116644760D01*
X140063545Y-116306219D01*
X140042182Y-115967916D01*
X139982564Y-115634224D01*
X139918816Y-115421008D01*
X139885463Y-115309451D01*
X139752133Y-114997805D01*
X139752132Y-114997803D01*
X139752131Y-114997800D01*
X139584292Y-114703292D01*
X139479339Y-114559865D01*
X139384121Y-114429741D01*
X139276244Y-114312882D01*
X139154186Y-114180660D01*
X139149656Y-114176754D01*
X138985651Y-114035326D01*
X138897476Y-113959290D01*
X138897465Y-113959282D01*
X138884204Y-113950251D01*
X141627942Y-113950251D01*
X141627942Y-114088617D01*
X141663754Y-114222270D01*
X141702041Y-114288585D01*
X141712679Y-114307010D01*
X141725942Y-114356510D01*
X141725942Y-117297161D01*
X141725942Y-117409723D01*
X141751807Y-117506253D01*
X141755076Y-117518453D01*
X141804311Y-117603730D01*
X141811357Y-117615933D01*
X144465405Y-120269981D01*
X144469030Y-120277096D01*
X144475493Y-120281792D01*
X144482656Y-120303840D01*
X144493181Y-120324496D01*
X144494400Y-120339983D01*
X144494400Y-120437054D01*
X144475493Y-120495245D01*
X144444901Y-120522790D01*
X144421989Y-120536018D01*
X144347418Y-120610589D01*
X144294694Y-120701909D01*
X144294694Y-120701910D01*
X144294693Y-120701912D01*
X144294693Y-120701913D01*
X144267400Y-120803773D01*
X144267400Y-121798227D01*
X144294693Y-121900087D01*
X144294694Y-121900089D01*
X144294694Y-121900090D01*
X144347418Y-121991410D01*
X144347420Y-121991413D01*
X144421987Y-122065980D01*
X144513313Y-122118707D01*
X144615173Y-122146000D01*
X144615175Y-122146000D01*
X145228625Y-122146000D01*
X145228627Y-122146000D01*
X145330487Y-122118707D01*
X145362756Y-122100076D01*
X145422604Y-122087353D01*
X145461755Y-122100073D01*
X145517413Y-122132207D01*
X145619273Y-122159500D01*
X145619275Y-122159500D01*
X146232725Y-122159500D01*
X146232727Y-122159500D01*
X146334587Y-122132207D01*
X146386996Y-122101948D01*
X146446843Y-122089227D01*
X146485995Y-122101949D01*
X146518309Y-122120605D01*
X146518307Y-122120605D01*
X146518311Y-122120606D01*
X146518313Y-122120607D01*
X146620173Y-122147900D01*
X146620175Y-122147900D01*
X147233625Y-122147900D01*
X147233627Y-122147900D01*
X147335487Y-122120607D01*
X147377402Y-122096407D01*
X147437247Y-122083686D01*
X147476396Y-122096406D01*
X147518313Y-122120607D01*
X147620173Y-122147900D01*
X147620175Y-122147900D01*
X148233625Y-122147900D01*
X148233627Y-122147900D01*
X148335487Y-122120607D01*
X148377402Y-122096407D01*
X148437247Y-122083686D01*
X148476396Y-122096406D01*
X148518313Y-122120607D01*
X148620173Y-122147900D01*
X148620175Y-122147900D01*
X149233625Y-122147900D01*
X149233627Y-122147900D01*
X149335487Y-122120607D01*
X149377402Y-122096407D01*
X149437247Y-122083686D01*
X149476396Y-122096406D01*
X149518313Y-122120607D01*
X149620173Y-122147900D01*
X149620175Y-122147900D01*
X150233625Y-122147900D01*
X150233627Y-122147900D01*
X150335487Y-122120607D01*
X150388225Y-122090158D01*
X150448072Y-122077437D01*
X150487221Y-122090157D01*
X150525413Y-122112207D01*
X150627273Y-122139500D01*
X150732727Y-122139500D01*
X150840711Y-122139500D01*
X150862831Y-122143900D01*
X150990969Y-122143900D01*
X151013089Y-122139500D01*
X151135273Y-122139500D01*
X151240727Y-122139500D01*
X151342587Y-122112207D01*
X151373673Y-122094258D01*
X151433521Y-122081536D01*
X151472675Y-122094258D01*
X151476399Y-122096408D01*
X151518313Y-122120607D01*
X151620173Y-122147900D01*
X151620175Y-122147900D01*
X152233625Y-122147900D01*
X152233627Y-122147900D01*
X152335487Y-122120607D01*
X152426813Y-122067880D01*
X152501380Y-121993313D01*
X152554107Y-121901987D01*
X152581400Y-121800127D01*
X152581400Y-120805673D01*
X152554107Y-120703813D01*
X152553008Y-120701910D01*
X152501381Y-120612489D01*
X152501380Y-120612487D01*
X152426813Y-120537920D01*
X152426098Y-120537507D01*
X152403899Y-120524690D01*
X152390052Y-120509311D01*
X152373307Y-120497145D01*
X152370037Y-120487081D01*
X152362959Y-120479220D01*
X152354400Y-120438954D01*
X152354400Y-120361085D01*
X152373307Y-120302894D01*
X152383390Y-120291087D01*
X155190021Y-117484457D01*
X155246303Y-117386975D01*
X155275436Y-117278247D01*
X155275436Y-117165684D01*
X155275436Y-114283560D01*
X155288699Y-114234060D01*
X155295506Y-114222270D01*
X155337624Y-114149320D01*
X155373436Y-114015667D01*
X155373436Y-113877301D01*
X155337624Y-113743648D01*
X155268441Y-113623819D01*
X155170601Y-113525979D01*
X155050772Y-113456796D01*
X154917119Y-113420984D01*
X154778753Y-113420984D01*
X154645100Y-113456796D01*
X154525271Y-113525979D01*
X154427431Y-113623819D01*
X154358248Y-113743648D01*
X154322436Y-113877301D01*
X154322436Y-114015667D01*
X154358248Y-114149320D01*
X154395310Y-114213513D01*
X154407173Y-114234060D01*
X154420436Y-114283560D01*
X154420436Y-117003882D01*
X154401529Y-117062073D01*
X154391440Y-117073886D01*
X151664409Y-119800917D01*
X151664408Y-119800916D01*
X151584815Y-119880510D01*
X151584813Y-119880512D01*
X151531034Y-119973660D01*
X151485564Y-120014600D01*
X151424714Y-120020995D01*
X151371726Y-119990402D01*
X151346840Y-119934506D01*
X151346298Y-119924159D01*
X151346298Y-119699286D01*
X151365205Y-119641095D01*
X151375294Y-119629282D01*
X152337161Y-118667415D01*
X153400843Y-117603734D01*
X153457125Y-117506251D01*
X153459499Y-117497391D01*
X153486258Y-117397523D01*
X153486258Y-114322882D01*
X153499521Y-114273382D01*
X153548446Y-114188642D01*
X153584258Y-114054989D01*
X153584258Y-113916623D01*
X153548446Y-113782970D01*
X153479263Y-113663141D01*
X153381423Y-113565301D01*
X153261594Y-113496118D01*
X153127941Y-113460306D01*
X152989575Y-113460306D01*
X152855922Y-113496118D01*
X152736093Y-113565301D01*
X152638253Y-113663141D01*
X152569070Y-113782970D01*
X152533258Y-113916623D01*
X152533258Y-114054989D01*
X152569070Y-114188642D01*
X152617995Y-114273382D01*
X152631258Y-114322882D01*
X152631258Y-117123157D01*
X152612351Y-117181348D01*
X152602262Y-117193161D01*
X150656307Y-119139117D01*
X150656306Y-119139116D01*
X150576713Y-119218710D01*
X150576711Y-119218712D01*
X150539136Y-119283795D01*
X150493666Y-119324735D01*
X150432816Y-119331130D01*
X150379828Y-119300537D01*
X150354942Y-119244642D01*
X150354400Y-119234294D01*
X150354400Y-118891184D01*
X150373307Y-118832993D01*
X150383396Y-118821180D01*
X150873562Y-118331014D01*
X151446132Y-117758445D01*
X151461969Y-117731015D01*
X151502412Y-117660966D01*
X151502412Y-117660964D01*
X151502414Y-117660962D01*
X151531547Y-117552235D01*
X151531547Y-117439672D01*
X151531547Y-114300995D01*
X151544810Y-114251495D01*
X151545939Y-114249540D01*
X151593735Y-114166755D01*
X151629547Y-114033102D01*
X151629547Y-113894736D01*
X151593735Y-113761083D01*
X151524552Y-113641254D01*
X151426712Y-113543414D01*
X151306883Y-113474231D01*
X151173230Y-113438419D01*
X151034864Y-113438419D01*
X150901211Y-113474231D01*
X150781382Y-113543414D01*
X150683542Y-113641254D01*
X150614359Y-113761083D01*
X150578547Y-113894736D01*
X150578547Y-114033102D01*
X150614359Y-114166755D01*
X150662155Y-114249540D01*
X150663284Y-114251495D01*
X150676547Y-114300995D01*
X150676547Y-117277868D01*
X150657640Y-117336059D01*
X150647551Y-117347872D01*
X149664409Y-118331015D01*
X149664408Y-118331014D01*
X149584815Y-118410608D01*
X149584813Y-118410610D01*
X149539136Y-118489725D01*
X149493666Y-118530665D01*
X149432816Y-118537060D01*
X149379828Y-118506467D01*
X149354942Y-118450571D01*
X149354400Y-118440224D01*
X149354400Y-118291183D01*
X149373307Y-118232992D01*
X149383390Y-118221185D01*
X149735599Y-117868977D01*
X149791881Y-117771495D01*
X149821014Y-117662767D01*
X149821014Y-117550204D01*
X149821014Y-114310995D01*
X149834277Y-114261495D01*
X149883202Y-114176755D01*
X149919014Y-114043102D01*
X149919014Y-113904736D01*
X149883202Y-113771083D01*
X149814019Y-113651254D01*
X149716179Y-113553414D01*
X149596350Y-113484231D01*
X149462697Y-113448419D01*
X149324331Y-113448419D01*
X149190678Y-113484231D01*
X149070849Y-113553414D01*
X148973009Y-113651254D01*
X148903826Y-113771083D01*
X148868014Y-113904736D01*
X148868014Y-114043102D01*
X148903826Y-114176755D01*
X148952751Y-114261495D01*
X148966014Y-114310995D01*
X148966014Y-117388402D01*
X148947107Y-117446593D01*
X148937018Y-117458406D01*
X148664409Y-117731015D01*
X148664408Y-117731014D01*
X148584815Y-117810608D01*
X148584813Y-117810610D01*
X148539136Y-117889725D01*
X148493666Y-117930665D01*
X148432816Y-117937060D01*
X148379828Y-117906467D01*
X148354942Y-117850571D01*
X148354400Y-117840224D01*
X148354400Y-117670619D01*
X148351812Y-117660962D01*
X148351811Y-117660958D01*
X148328099Y-117572462D01*
X148325267Y-117561891D01*
X148268985Y-117464408D01*
X148152449Y-117347872D01*
X148029752Y-117225174D01*
X148001975Y-117170658D01*
X148000756Y-117155171D01*
X148000756Y-114303221D01*
X148014019Y-114253721D01*
X148062944Y-114168981D01*
X148098756Y-114035328D01*
X148098756Y-113896962D01*
X148062944Y-113763309D01*
X147993761Y-113643480D01*
X147895921Y-113545640D01*
X147776092Y-113476457D01*
X147642439Y-113440645D01*
X147504073Y-113440645D01*
X147370420Y-113476457D01*
X147250591Y-113545640D01*
X147152751Y-113643480D01*
X147083568Y-113763309D01*
X147047756Y-113896962D01*
X147047756Y-114035328D01*
X147083568Y-114168981D01*
X147132493Y-114253721D01*
X147145756Y-114303221D01*
X147145756Y-117316975D01*
X147145756Y-117429537D01*
X147174246Y-117535865D01*
X147174890Y-117538267D01*
X147188529Y-117561891D01*
X147231171Y-117635747D01*
X147470405Y-117874981D01*
X147498181Y-117929496D01*
X147499400Y-117944983D01*
X147499400Y-118094024D01*
X147480493Y-118152215D01*
X147430993Y-118188179D01*
X147369807Y-118188179D01*
X147320307Y-118152215D01*
X147314664Y-118143525D01*
X147268986Y-118064410D01*
X147268984Y-118064408D01*
X147189391Y-117984814D01*
X147189391Y-117984815D01*
X146319219Y-117114643D01*
X146291442Y-117060126D01*
X146290223Y-117044639D01*
X146290223Y-114312882D01*
X146303486Y-114263382D01*
X146352411Y-114178642D01*
X146388223Y-114044989D01*
X146388223Y-113906623D01*
X146352411Y-113772970D01*
X146283228Y-113653141D01*
X146185388Y-113555301D01*
X146065559Y-113486118D01*
X145931906Y-113450306D01*
X145793540Y-113450306D01*
X145659887Y-113486118D01*
X145540058Y-113555301D01*
X145442218Y-113653141D01*
X145373035Y-113772970D01*
X145337223Y-113906623D01*
X145337223Y-114044989D01*
X145373035Y-114178642D01*
X145421960Y-114263382D01*
X145435223Y-114312882D01*
X145435223Y-117206442D01*
X145435223Y-117319004D01*
X145461766Y-117418065D01*
X145464357Y-117427734D01*
X145509690Y-117506253D01*
X145520638Y-117525214D01*
X146470405Y-118474981D01*
X146498181Y-118529496D01*
X146499400Y-118544983D01*
X146499400Y-118897216D01*
X146480493Y-118955407D01*
X146430993Y-118991371D01*
X146369807Y-118991371D01*
X146320307Y-118955407D01*
X146314664Y-118946716D01*
X146264629Y-118860053D01*
X146264628Y-118860052D01*
X146264627Y-118860051D01*
X146264626Y-118860049D01*
X144412073Y-117007496D01*
X144384296Y-116952979D01*
X144383077Y-116937492D01*
X144383077Y-114347753D01*
X144396340Y-114298253D01*
X144397436Y-114296355D01*
X144445265Y-114213513D01*
X144481077Y-114079860D01*
X144481077Y-113941494D01*
X144445265Y-113807841D01*
X144376082Y-113688012D01*
X144278242Y-113590172D01*
X144158413Y-113520989D01*
X144024760Y-113485177D01*
X143886394Y-113485177D01*
X143752741Y-113520989D01*
X143632912Y-113590172D01*
X143535072Y-113688012D01*
X143465889Y-113807841D01*
X143430077Y-113941494D01*
X143430077Y-114079860D01*
X143465889Y-114213513D01*
X143513718Y-114296355D01*
X143514814Y-114298253D01*
X143528077Y-114347753D01*
X143528077Y-117099296D01*
X143528077Y-117211858D01*
X143557210Y-117320586D01*
X143557211Y-117320588D01*
X143601629Y-117397522D01*
X143613492Y-117418068D01*
X145466046Y-119270622D01*
X145493822Y-119325137D01*
X145495041Y-119340624D01*
X145495041Y-119890135D01*
X145476134Y-119948326D01*
X145426634Y-119984290D01*
X145365448Y-119984290D01*
X145315948Y-119948326D01*
X145310305Y-119939636D01*
X145263986Y-119859410D01*
X145263984Y-119859408D01*
X145184391Y-119779814D01*
X145184391Y-119779815D01*
X142609938Y-117205362D01*
X142582161Y-117150845D01*
X142580942Y-117135358D01*
X142580942Y-114356510D01*
X142594205Y-114307010D01*
X142599138Y-114298466D01*
X142643130Y-114222270D01*
X142678942Y-114088617D01*
X142678942Y-113950251D01*
X142643130Y-113816598D01*
X142573947Y-113696769D01*
X142476107Y-113598929D01*
X142356278Y-113529746D01*
X142222625Y-113493934D01*
X142084259Y-113493934D01*
X141950606Y-113529746D01*
X141830777Y-113598929D01*
X141732937Y-113696769D01*
X141663754Y-113816598D01*
X141627942Y-113950251D01*
X138884204Y-113950251D01*
X138638574Y-113782970D01*
X138617302Y-113768483D01*
X138617299Y-113768481D01*
X138617297Y-113768480D01*
X138617289Y-113768475D01*
X138317287Y-113610706D01*
X138001301Y-113487993D01*
X138001291Y-113487990D01*
X137673426Y-113401934D01*
X137673427Y-113401934D01*
X137337920Y-113353643D01*
X137337911Y-113353642D01*
X137337909Y-113353642D01*
X137168493Y-113348689D01*
X136999080Y-113343737D01*
X136999079Y-113343737D01*
X136999078Y-113343737D01*
X136914636Y-113350890D01*
X136661305Y-113372349D01*
X136328971Y-113439109D01*
X136006356Y-113543153D01*
X135697645Y-113683132D01*
X135697636Y-113683137D01*
X135406795Y-113857253D01*
X135137601Y-114063243D01*
X135137590Y-114063252D01*
X134893514Y-114298459D01*
X134893510Y-114298463D01*
X134677692Y-114559865D01*
X134492937Y-114844067D01*
X134341630Y-115147395D01*
X134341629Y-115147397D01*
X134225719Y-115465950D01*
X134146716Y-115795570D01*
X134146713Y-115795586D01*
X134105627Y-116132058D01*
X134105626Y-116132066D01*
X134105611Y-116134074D01*
X134105469Y-116134498D01*
X134105445Y-116134873D01*
X134105346Y-116134866D01*
X134086246Y-116192114D01*
X134036464Y-116227687D01*
X133975280Y-116227205D01*
X133930560Y-116196672D01*
X133601625Y-115801950D01*
X133598479Y-115797972D01*
X133534388Y-115712518D01*
X133531915Y-115709069D01*
X133480645Y-115634224D01*
X133082528Y-115053046D01*
X133080038Y-115049224D01*
X133048201Y-114997805D01*
X132634857Y-114330232D01*
X132632549Y-114326303D01*
X132629721Y-114321226D01*
X132221050Y-113587520D01*
X132218922Y-113583481D01*
X131841996Y-112826511D01*
X131840057Y-112822381D01*
X131757099Y-112634500D01*
X131510155Y-112075225D01*
X131508806Y-112072016D01*
X131463338Y-111958346D01*
X131462942Y-111957341D01*
X131388600Y-111765442D01*
X131386995Y-111760986D01*
X131000861Y-110602584D01*
X130999283Y-110597372D01*
X130457293Y-108610076D01*
X130455502Y-108602268D01*
X130343036Y-108000626D01*
X130342364Y-107996552D01*
X130278306Y-107548148D01*
X130219538Y-107126854D01*
X130219012Y-107122316D01*
X130211902Y-107045586D01*
X130140983Y-106280244D01*
X130140670Y-106275733D01*
X130101616Y-105430997D01*
X130101510Y-105426425D01*
X130101510Y-104580774D01*
X130101616Y-104576202D01*
X130110722Y-104379234D01*
X130135232Y-103849084D01*
X130135615Y-103843842D01*
X130186973Y-103330273D01*
X131258550Y-103330273D01*
X131258550Y-103943727D01*
X131285843Y-104045587D01*
X131310042Y-104087501D01*
X131322763Y-104147349D01*
X131310042Y-104186497D01*
X131285843Y-104228413D01*
X131258550Y-104330273D01*
X131258550Y-104943727D01*
X131285843Y-105045587D01*
X131310042Y-105087501D01*
X131322763Y-105147349D01*
X131310042Y-105186497D01*
X131285843Y-105228413D01*
X131258550Y-105330273D01*
X131258550Y-105943727D01*
X131285843Y-106045587D01*
X131310042Y-106087501D01*
X131322763Y-106147349D01*
X131310042Y-106186497D01*
X131285843Y-106228413D01*
X131258550Y-106330273D01*
X131258550Y-106943727D01*
X131285843Y-107045587D01*
X131310042Y-107087501D01*
X131322763Y-107147349D01*
X131310042Y-107186497D01*
X131285843Y-107228413D01*
X131258550Y-107330273D01*
X131258550Y-107943727D01*
X131285843Y-108045587D01*
X131310042Y-108087501D01*
X131322763Y-108147349D01*
X131310042Y-108186497D01*
X131285843Y-108228413D01*
X131258550Y-108330273D01*
X131258550Y-108943727D01*
X131274091Y-109001727D01*
X131285844Y-109045589D01*
X131285844Y-109045590D01*
X131338342Y-109136518D01*
X131338570Y-109136913D01*
X131413137Y-109211480D01*
X131504463Y-109264207D01*
X131606323Y-109291500D01*
X131606325Y-109291500D01*
X132600775Y-109291500D01*
X132600777Y-109291500D01*
X132702637Y-109264207D01*
X132793963Y-109211480D01*
X132868530Y-109136913D01*
X132868675Y-109136660D01*
X132868832Y-109136518D01*
X132872479Y-109131767D01*
X132873359Y-109132442D01*
X132914142Y-109095719D01*
X132954413Y-109087158D01*
X134241574Y-109087158D01*
X134299765Y-109106065D01*
X134311577Y-109116153D01*
X137646508Y-112451085D01*
X137646510Y-112451086D01*
X137646512Y-112451088D01*
X137743987Y-112507365D01*
X137743985Y-112507365D01*
X137743989Y-112507366D01*
X137743991Y-112507367D01*
X137852718Y-112536500D01*
X137852719Y-112536500D01*
X141836923Y-112536500D01*
X141886422Y-112549763D01*
X141965479Y-112595406D01*
X141971164Y-112598688D01*
X142104817Y-112634500D01*
X142104819Y-112634500D01*
X142243181Y-112634500D01*
X142243183Y-112634500D01*
X142376836Y-112598688D01*
X142496665Y-112529505D01*
X142594505Y-112431665D01*
X142663688Y-112311836D01*
X142699500Y-112178183D01*
X142699500Y-112039817D01*
X142663688Y-111906164D01*
X142594505Y-111786335D01*
X142496665Y-111688495D01*
X142376836Y-111619312D01*
X142243183Y-111583500D01*
X142104817Y-111583500D01*
X142037990Y-111601406D01*
X141971162Y-111619312D01*
X141886422Y-111668237D01*
X141836923Y-111681500D01*
X138127085Y-111681500D01*
X138068894Y-111662593D01*
X138057081Y-111652504D01*
X137601820Y-111197243D01*
X134722149Y-108317573D01*
X134722146Y-108317571D01*
X134722145Y-108317570D01*
X134722144Y-108317569D01*
X134656217Y-108279506D01*
X134615276Y-108234037D01*
X134608880Y-108173186D01*
X134639473Y-108120198D01*
X134695369Y-108095312D01*
X134705717Y-108094770D01*
X135249186Y-108094770D01*
X135307377Y-108113677D01*
X135319189Y-108123765D01*
X137640749Y-110445326D01*
X137640751Y-110445327D01*
X137640753Y-110445329D01*
X137738228Y-110501606D01*
X137738226Y-110501606D01*
X137738230Y-110501607D01*
X137738232Y-110501608D01*
X137846959Y-110530741D01*
X137846960Y-110530741D01*
X141811679Y-110530741D01*
X141861178Y-110544004D01*
X141940235Y-110589647D01*
X141945920Y-110592929D01*
X142079573Y-110628741D01*
X142079575Y-110628741D01*
X142217937Y-110628741D01*
X142217939Y-110628741D01*
X142351592Y-110592929D01*
X142471421Y-110523746D01*
X142569261Y-110425906D01*
X142638444Y-110306077D01*
X142674256Y-110172424D01*
X142674256Y-110034058D01*
X142638444Y-109900405D01*
X142569261Y-109780576D01*
X142471421Y-109682736D01*
X142351592Y-109613553D01*
X142217939Y-109577741D01*
X142079573Y-109577741D01*
X142012746Y-109595647D01*
X141945918Y-109613553D01*
X141861178Y-109662478D01*
X141811679Y-109675741D01*
X138121326Y-109675741D01*
X138063135Y-109656834D01*
X138051322Y-109646745D01*
X137491735Y-109087158D01*
X135729761Y-107325185D01*
X135680239Y-107296593D01*
X135635179Y-107270577D01*
X135594239Y-107225107D01*
X135587844Y-107164257D01*
X135618437Y-107111269D01*
X135674332Y-107086383D01*
X135684680Y-107085841D01*
X136440257Y-107085841D01*
X136498448Y-107104748D01*
X136510260Y-107114836D01*
X137822635Y-108427212D01*
X137822637Y-108427213D01*
X137822639Y-108427215D01*
X137920114Y-108483492D01*
X137920112Y-108483492D01*
X137920116Y-108483493D01*
X137920118Y-108483494D01*
X138028845Y-108512627D01*
X138028846Y-108512627D01*
X141777795Y-108512627D01*
X141827294Y-108525890D01*
X141912034Y-108574814D01*
X141912036Y-108574815D01*
X142045689Y-108610627D01*
X142045691Y-108610627D01*
X142184053Y-108610627D01*
X142184055Y-108610627D01*
X142317708Y-108574815D01*
X142437537Y-108505632D01*
X142535377Y-108407792D01*
X142604560Y-108287963D01*
X142640372Y-108154310D01*
X142640372Y-108015944D01*
X142604560Y-107882291D01*
X142535377Y-107762462D01*
X142437537Y-107664622D01*
X142317708Y-107595439D01*
X142184055Y-107559627D01*
X142045689Y-107559627D01*
X141978862Y-107577533D01*
X141912034Y-107595439D01*
X141827294Y-107644364D01*
X141777795Y-107657627D01*
X138303212Y-107657627D01*
X138245021Y-107638720D01*
X138233208Y-107628631D01*
X137906813Y-107302236D01*
X136920832Y-106316256D01*
X136920829Y-106316254D01*
X136920828Y-106316253D01*
X136920827Y-106316252D01*
X136854900Y-106278189D01*
X136813959Y-106232720D01*
X136807563Y-106171869D01*
X136838156Y-106118881D01*
X136894052Y-106093995D01*
X136904400Y-106093453D01*
X137264203Y-106093453D01*
X137322394Y-106112360D01*
X137334206Y-106122449D01*
X137750226Y-106538468D01*
X137750228Y-106538470D01*
X137779997Y-106555657D01*
X137847709Y-106594751D01*
X137956437Y-106623884D01*
X138069000Y-106623884D01*
X141778098Y-106623884D01*
X141827597Y-106637147D01*
X141906654Y-106682790D01*
X141912339Y-106686072D01*
X142045992Y-106721884D01*
X142045994Y-106721884D01*
X142184356Y-106721884D01*
X142184358Y-106721884D01*
X142318011Y-106686072D01*
X142437840Y-106616889D01*
X142535680Y-106519049D01*
X142604863Y-106399220D01*
X142640675Y-106265567D01*
X142640675Y-106127201D01*
X142604863Y-105993548D01*
X142535680Y-105873719D01*
X142437840Y-105775879D01*
X142318011Y-105706696D01*
X142184358Y-105670884D01*
X142045992Y-105670884D01*
X141979165Y-105688790D01*
X141912337Y-105706696D01*
X141827597Y-105755621D01*
X141778098Y-105768884D01*
X138230802Y-105768884D01*
X138172611Y-105749977D01*
X138160799Y-105739888D01*
X137744778Y-105323868D01*
X137744776Y-105323866D01*
X137647298Y-105267587D01*
X137647297Y-105267586D01*
X137647296Y-105267586D01*
X137538568Y-105238453D01*
X137538566Y-105238453D01*
X137474705Y-105238453D01*
X137416514Y-105219546D01*
X137380550Y-105170046D01*
X137380550Y-105108860D01*
X137416514Y-105059360D01*
X137425205Y-105053717D01*
X137462486Y-105032192D01*
X137462486Y-105032191D01*
X137462491Y-105032189D01*
X138148638Y-104346042D01*
X138203155Y-104318265D01*
X138218642Y-104317046D01*
X141831245Y-104317046D01*
X141880744Y-104330309D01*
X141959801Y-104375952D01*
X141965486Y-104379234D01*
X142099139Y-104415046D01*
X142099141Y-104415046D01*
X142237503Y-104415046D01*
X142237505Y-104415046D01*
X142371158Y-104379234D01*
X142490987Y-104310051D01*
X142588827Y-104212211D01*
X142658010Y-104092382D01*
X142693822Y-103958729D01*
X142693822Y-103820363D01*
X142658010Y-103686710D01*
X142588827Y-103566881D01*
X142490987Y-103469041D01*
X142371158Y-103399858D01*
X142237505Y-103364046D01*
X142099139Y-103364046D01*
X142032312Y-103381952D01*
X141965484Y-103399858D01*
X141880744Y-103448783D01*
X141831245Y-103462046D01*
X138056839Y-103462046D01*
X137944277Y-103462046D01*
X137835549Y-103491179D01*
X137835548Y-103491179D01*
X137835546Y-103491180D01*
X137738069Y-103547459D01*
X137051920Y-104233608D01*
X136997403Y-104261385D01*
X136981916Y-104262604D01*
X136262244Y-104262604D01*
X136204053Y-104243697D01*
X136168089Y-104194197D01*
X136168089Y-104133011D01*
X136204053Y-104083511D01*
X136236618Y-104067978D01*
X136316912Y-104046464D01*
X136414394Y-103990182D01*
X138064294Y-102340283D01*
X138118811Y-102312506D01*
X138134298Y-102311287D01*
X141806001Y-102311287D01*
X141855500Y-102324550D01*
X141934557Y-102370193D01*
X141940242Y-102373475D01*
X142073895Y-102409287D01*
X142073897Y-102409287D01*
X142212259Y-102409287D01*
X142212261Y-102409287D01*
X142345914Y-102373475D01*
X142465743Y-102304292D01*
X142563583Y-102206452D01*
X142632766Y-102086623D01*
X142668578Y-101952970D01*
X142668578Y-101814604D01*
X142632766Y-101680951D01*
X142563583Y-101561122D01*
X142465743Y-101463282D01*
X142345914Y-101394099D01*
X142212261Y-101358287D01*
X142073895Y-101358287D01*
X142007068Y-101376193D01*
X141940240Y-101394099D01*
X141855500Y-101443024D01*
X141806001Y-101456287D01*
X137972494Y-101456287D01*
X137859931Y-101456287D01*
X137793386Y-101474117D01*
X137751199Y-101485421D01*
X137653725Y-101541698D01*
X137653724Y-101541699D01*
X137653721Y-101541701D01*
X137653721Y-101541702D01*
X136821949Y-102373475D01*
X136003823Y-103191601D01*
X135949306Y-103219378D01*
X135933819Y-103220597D01*
X135614565Y-103220597D01*
X135556374Y-103201690D01*
X135520410Y-103152190D01*
X135520410Y-103091004D01*
X135556374Y-103041504D01*
X135565064Y-103035861D01*
X135566955Y-103034768D01*
X135573703Y-103030873D01*
X138275670Y-100328906D01*
X138330187Y-100301129D01*
X138345674Y-100299910D01*
X141836811Y-100299910D01*
X141886310Y-100313173D01*
X141965367Y-100358816D01*
X141971052Y-100362098D01*
X142104705Y-100397910D01*
X142104707Y-100397910D01*
X142243069Y-100397910D01*
X142243071Y-100397910D01*
X142376724Y-100362098D01*
X142496553Y-100292915D01*
X142594393Y-100195075D01*
X142663576Y-100075246D01*
X142699388Y-99941593D01*
X142699388Y-99803227D01*
X142663576Y-99669574D01*
X142594393Y-99549745D01*
X142496553Y-99451905D01*
X142376724Y-99382722D01*
X142243071Y-99346910D01*
X142104705Y-99346910D01*
X142037878Y-99364816D01*
X141971050Y-99382722D01*
X141886310Y-99431647D01*
X141836811Y-99444910D01*
X138183871Y-99444910D01*
X138071309Y-99444910D01*
X137962581Y-99474043D01*
X137962580Y-99474043D01*
X137962578Y-99474044D01*
X137865101Y-99530323D01*
X135163132Y-102232292D01*
X135108615Y-102260069D01*
X135093128Y-102261288D01*
X132999295Y-102261288D01*
X132979611Y-102254892D01*
X132959030Y-102252730D01*
X132951167Y-102245650D01*
X132941104Y-102242381D01*
X132913559Y-102211789D01*
X132910477Y-102206451D01*
X132897514Y-102183998D01*
X132884793Y-102124153D01*
X132897518Y-102084993D01*
X132902140Y-102076990D01*
X132908232Y-102071505D01*
X132909679Y-102068257D01*
X132915707Y-102064776D01*
X132947614Y-102036054D01*
X132987871Y-102027500D01*
X134456279Y-102027500D01*
X134456281Y-102027500D01*
X134565009Y-101998367D01*
X134662491Y-101942085D01*
X138171150Y-98433426D01*
X138225667Y-98405649D01*
X138241154Y-98404430D01*
X141772420Y-98404430D01*
X141821919Y-98417693D01*
X141900976Y-98463336D01*
X141906661Y-98466618D01*
X142040314Y-98502430D01*
X142040316Y-98502430D01*
X142178678Y-98502430D01*
X142178680Y-98502430D01*
X142312333Y-98466618D01*
X142432162Y-98397435D01*
X142530002Y-98299595D01*
X142599185Y-98179766D01*
X142634997Y-98046113D01*
X142634997Y-97907747D01*
X142624522Y-97868653D01*
X154277950Y-97868653D01*
X154277950Y-98007019D01*
X154313762Y-98140672D01*
X154382945Y-98260501D01*
X154480785Y-98358341D01*
X154600614Y-98427524D01*
X154734267Y-98463336D01*
X154734269Y-98463336D01*
X154872631Y-98463336D01*
X154872633Y-98463336D01*
X155006286Y-98427524D01*
X155058404Y-98397434D01*
X155091028Y-98378599D01*
X155140527Y-98365336D01*
X157719752Y-98365336D01*
X157777943Y-98384243D01*
X157789755Y-98394331D01*
X161427508Y-102032085D01*
X161427510Y-102032086D01*
X161427512Y-102032088D01*
X161506625Y-102077764D01*
X161547566Y-102123233D01*
X161553962Y-102184083D01*
X161523369Y-102237071D01*
X161467473Y-102261958D01*
X161457125Y-102262500D01*
X160908085Y-102262500D01*
X160849894Y-102243593D01*
X160838081Y-102233504D01*
X160165699Y-101561122D01*
X158095807Y-99491231D01*
X158027693Y-99451905D01*
X157998327Y-99434950D01*
X157998326Y-99434949D01*
X157998325Y-99434949D01*
X157889597Y-99405816D01*
X157889595Y-99405816D01*
X155204918Y-99405816D01*
X155155419Y-99392553D01*
X155070678Y-99343628D01*
X155026126Y-99331690D01*
X154937024Y-99307816D01*
X154798658Y-99307816D01*
X154665005Y-99343628D01*
X154545176Y-99412811D01*
X154447336Y-99510651D01*
X154378153Y-99630480D01*
X154342341Y-99764133D01*
X154342341Y-99902499D01*
X154378153Y-100036152D01*
X154447336Y-100155981D01*
X154545176Y-100253821D01*
X154665005Y-100323004D01*
X154798658Y-100358816D01*
X154798660Y-100358816D01*
X154937022Y-100358816D01*
X154937024Y-100358816D01*
X155070677Y-100323004D01*
X155122795Y-100292914D01*
X155155419Y-100274079D01*
X155204918Y-100260816D01*
X157615232Y-100260816D01*
X157673423Y-100279723D01*
X157685235Y-100289811D01*
X160427508Y-103032085D01*
X160427510Y-103032086D01*
X160427512Y-103032088D01*
X160506625Y-103077764D01*
X160547566Y-103123233D01*
X160553962Y-103184083D01*
X160523369Y-103237071D01*
X160467473Y-103261958D01*
X160457125Y-103262500D01*
X160049949Y-103262500D01*
X159991758Y-103243593D01*
X159979945Y-103233504D01*
X159626063Y-102879622D01*
X158249048Y-101502608D01*
X158180934Y-101463282D01*
X158151568Y-101446327D01*
X158151567Y-101446326D01*
X158151566Y-101446326D01*
X158042838Y-101417193D01*
X158042836Y-101417193D01*
X155174108Y-101417193D01*
X155124609Y-101403930D01*
X155039868Y-101355005D01*
X154995316Y-101343067D01*
X154906214Y-101319193D01*
X154767848Y-101319193D01*
X154634195Y-101355005D01*
X154514366Y-101424188D01*
X154416526Y-101522028D01*
X154347343Y-101641857D01*
X154311531Y-101775510D01*
X154311531Y-101913876D01*
X154347343Y-102047529D01*
X154416526Y-102167358D01*
X154514366Y-102265198D01*
X154634195Y-102334381D01*
X154767848Y-102370193D01*
X154767850Y-102370193D01*
X154906212Y-102370193D01*
X154906214Y-102370193D01*
X155039867Y-102334381D01*
X155091985Y-102304291D01*
X155124609Y-102285456D01*
X155174108Y-102272193D01*
X157768473Y-102272193D01*
X157826664Y-102291100D01*
X157838476Y-102301188D01*
X159569372Y-104032085D01*
X159569374Y-104032086D01*
X159569376Y-104032088D01*
X159648489Y-104077764D01*
X159689430Y-104123233D01*
X159695826Y-104184083D01*
X159665233Y-104237071D01*
X159609337Y-104261958D01*
X159598989Y-104262500D01*
X159063032Y-104262500D01*
X159004841Y-104243593D01*
X158993029Y-104233504D01*
X158267890Y-103508367D01*
X158267888Y-103508365D01*
X158170410Y-103452086D01*
X158170409Y-103452085D01*
X158170408Y-103452085D01*
X158061680Y-103422952D01*
X158061678Y-103422952D01*
X155199352Y-103422952D01*
X155149853Y-103409689D01*
X155065112Y-103360764D01*
X155020560Y-103348826D01*
X154931458Y-103324952D01*
X154793092Y-103324952D01*
X154659439Y-103360764D01*
X154539610Y-103429947D01*
X154441770Y-103527787D01*
X154372587Y-103647616D01*
X154336775Y-103781269D01*
X154336775Y-103919635D01*
X154372587Y-104053288D01*
X154441770Y-104173117D01*
X154539610Y-104270957D01*
X154659439Y-104340140D01*
X154793092Y-104375952D01*
X154793094Y-104375952D01*
X154931456Y-104375952D01*
X154931458Y-104375952D01*
X155065111Y-104340140D01*
X155117229Y-104310050D01*
X155149853Y-104291215D01*
X155199352Y-104277952D01*
X157787315Y-104277952D01*
X157845506Y-104296859D01*
X157857318Y-104306947D01*
X158582455Y-105032085D01*
X158582457Y-105032086D01*
X158582459Y-105032088D01*
X158661572Y-105077764D01*
X158702513Y-105123233D01*
X158708909Y-105184083D01*
X158678316Y-105237071D01*
X158622420Y-105261958D01*
X158612072Y-105262500D01*
X158566282Y-105262500D01*
X158453719Y-105262500D01*
X158344991Y-105291633D01*
X158344990Y-105291633D01*
X158344988Y-105291634D01*
X158247510Y-105347913D01*
X157894629Y-105700794D01*
X157840113Y-105728571D01*
X157824626Y-105729790D01*
X155146205Y-105729790D01*
X155096706Y-105716527D01*
X155011965Y-105667602D01*
X154967413Y-105655664D01*
X154878311Y-105631790D01*
X154739945Y-105631790D01*
X154606292Y-105667602D01*
X154486463Y-105736785D01*
X154388623Y-105834625D01*
X154319440Y-105954454D01*
X154283628Y-106088107D01*
X154283628Y-106226473D01*
X154319440Y-106360126D01*
X154388623Y-106479955D01*
X154486463Y-106577795D01*
X154606292Y-106646978D01*
X154739945Y-106682790D01*
X154739947Y-106682790D01*
X154878309Y-106682790D01*
X154878311Y-106682790D01*
X155011964Y-106646978D01*
X155064082Y-106616888D01*
X155096706Y-106598053D01*
X155146205Y-106584790D01*
X158098989Y-106584790D01*
X158098991Y-106584790D01*
X158207719Y-106555657D01*
X158305201Y-106499375D01*
X158565075Y-106239501D01*
X158658081Y-106146496D01*
X158712597Y-106118719D01*
X158728084Y-106117500D01*
X159077125Y-106117500D01*
X159135316Y-106136407D01*
X159171280Y-106185907D01*
X159171280Y-106247093D01*
X159135316Y-106296593D01*
X159126625Y-106302236D01*
X159047513Y-106347911D01*
X157799150Y-107596274D01*
X157744633Y-107624051D01*
X157729146Y-107625270D01*
X155210596Y-107625270D01*
X155161097Y-107612007D01*
X155076356Y-107563082D01*
X155019351Y-107547808D01*
X154942702Y-107527270D01*
X154804336Y-107527270D01*
X154670683Y-107563082D01*
X154550854Y-107632265D01*
X154453014Y-107730105D01*
X154383831Y-107849934D01*
X154348019Y-107983587D01*
X154348019Y-108121953D01*
X154383831Y-108255606D01*
X154453014Y-108375435D01*
X154550854Y-108473275D01*
X154670683Y-108542458D01*
X154804336Y-108578270D01*
X154804338Y-108578270D01*
X154942700Y-108578270D01*
X154942702Y-108578270D01*
X155076355Y-108542458D01*
X155140140Y-108505632D01*
X155161097Y-108493533D01*
X155210596Y-108480270D01*
X158003509Y-108480270D01*
X158003511Y-108480270D01*
X158112239Y-108451137D01*
X158209721Y-108394855D01*
X159458080Y-107146496D01*
X159512597Y-107118719D01*
X159528084Y-107117500D01*
X160077125Y-107117500D01*
X160135316Y-107136407D01*
X160171280Y-107185907D01*
X160171280Y-107247093D01*
X160135316Y-107296593D01*
X160126625Y-107302236D01*
X160047513Y-107347911D01*
X157787773Y-109607651D01*
X157733256Y-109635428D01*
X157717769Y-109636647D01*
X155179786Y-109636647D01*
X155130287Y-109623384D01*
X155045546Y-109574459D01*
X155000994Y-109562521D01*
X154911892Y-109538647D01*
X154773526Y-109538647D01*
X154639873Y-109574459D01*
X154520044Y-109643642D01*
X154422204Y-109741482D01*
X154353021Y-109861311D01*
X154317209Y-109994964D01*
X154317209Y-110133330D01*
X154353021Y-110266983D01*
X154422204Y-110386812D01*
X154520044Y-110484652D01*
X154639873Y-110553835D01*
X154773526Y-110589647D01*
X154773528Y-110589647D01*
X154911890Y-110589647D01*
X154911892Y-110589647D01*
X155045545Y-110553835D01*
X155097663Y-110523745D01*
X155130287Y-110504910D01*
X155179786Y-110491647D01*
X157992132Y-110491647D01*
X157992134Y-110491647D01*
X158100862Y-110462514D01*
X158198344Y-110406232D01*
X160458080Y-108146496D01*
X160512597Y-108118719D01*
X160528084Y-108117500D01*
X161107404Y-108117500D01*
X161165595Y-108136407D01*
X161201559Y-108185907D01*
X161201559Y-108247093D01*
X161165595Y-108296593D01*
X161156905Y-108302236D01*
X161069130Y-108352913D01*
X157808633Y-111613410D01*
X157754116Y-111641187D01*
X157738629Y-111642406D01*
X155205030Y-111642406D01*
X155155531Y-111629143D01*
X155070790Y-111580218D01*
X155026238Y-111568280D01*
X154937136Y-111544406D01*
X154798770Y-111544406D01*
X154665117Y-111580218D01*
X154545288Y-111649401D01*
X154447448Y-111747241D01*
X154378265Y-111867070D01*
X154342453Y-112000723D01*
X154342453Y-112139089D01*
X154378265Y-112272742D01*
X154447448Y-112392571D01*
X154545288Y-112490411D01*
X154665117Y-112559594D01*
X154798770Y-112595406D01*
X154798772Y-112595406D01*
X154937134Y-112595406D01*
X154937136Y-112595406D01*
X155070789Y-112559594D01*
X155122907Y-112529504D01*
X155155531Y-112510669D01*
X155205030Y-112497406D01*
X158012992Y-112497406D01*
X158012994Y-112497406D01*
X158121722Y-112468273D01*
X158219204Y-112411991D01*
X161479699Y-109151496D01*
X161534216Y-109123719D01*
X161549703Y-109122500D01*
X164075555Y-109122500D01*
X164133746Y-109141407D01*
X164161291Y-109171999D01*
X164174520Y-109194913D01*
X164249087Y-109269480D01*
X164340413Y-109322207D01*
X164442273Y-109349500D01*
X164442275Y-109349500D01*
X165436725Y-109349500D01*
X165436727Y-109349500D01*
X165538587Y-109322207D01*
X165629913Y-109269480D01*
X165704480Y-109194913D01*
X165757207Y-109103587D01*
X165784500Y-109001727D01*
X165784500Y-108388273D01*
X165757207Y-108286413D01*
X165731564Y-108241998D01*
X165718843Y-108182152D01*
X165731564Y-108143002D01*
X165757207Y-108098587D01*
X165784500Y-107996727D01*
X165784500Y-107383273D01*
X165757207Y-107281413D01*
X165733957Y-107241143D01*
X165721236Y-107181298D01*
X165733956Y-107142149D01*
X165759107Y-107098587D01*
X165786400Y-106996727D01*
X165786400Y-106383273D01*
X165759107Y-106281413D01*
X165734907Y-106239497D01*
X165722186Y-106179653D01*
X165734906Y-106140503D01*
X165759107Y-106098587D01*
X165786400Y-105996727D01*
X165786400Y-105383273D01*
X165759107Y-105281413D01*
X165734907Y-105239497D01*
X165722186Y-105179653D01*
X165734906Y-105140503D01*
X165759107Y-105098587D01*
X165786400Y-104996727D01*
X165786400Y-104383273D01*
X165759107Y-104281413D01*
X165734907Y-104239497D01*
X165722186Y-104179653D01*
X165734906Y-104140503D01*
X165759107Y-104098587D01*
X165786400Y-103996727D01*
X165786400Y-103383273D01*
X165759107Y-103281413D01*
X165734907Y-103239497D01*
X165722186Y-103179653D01*
X165734906Y-103140503D01*
X165759107Y-103098587D01*
X165786400Y-102996727D01*
X165786400Y-102383273D01*
X165759107Y-102281413D01*
X165734907Y-102239497D01*
X165722186Y-102179653D01*
X165734906Y-102140503D01*
X165759107Y-102098587D01*
X165786400Y-101996727D01*
X165786400Y-101383273D01*
X165759107Y-101281413D01*
X165743245Y-101253940D01*
X165706381Y-101190089D01*
X165706380Y-101190087D01*
X165631813Y-101115520D01*
X165540487Y-101062793D01*
X165438627Y-101035500D01*
X164549627Y-101035500D01*
X164444173Y-101035500D01*
X164342313Y-101062793D01*
X164342312Y-101062793D01*
X164342310Y-101062794D01*
X164342309Y-101062794D01*
X164250989Y-101115518D01*
X164176418Y-101190089D01*
X164163192Y-101212999D01*
X164117723Y-101253940D01*
X164077455Y-101262500D01*
X161908085Y-101262500D01*
X161849894Y-101243593D01*
X161838081Y-101233504D01*
X160933483Y-100328906D01*
X158200327Y-97595751D01*
X158132213Y-97556425D01*
X158102847Y-97539470D01*
X158102846Y-97539469D01*
X158102845Y-97539469D01*
X157994117Y-97510336D01*
X157994115Y-97510336D01*
X155140527Y-97510336D01*
X155091028Y-97497073D01*
X155006287Y-97448148D01*
X154961735Y-97436210D01*
X154872633Y-97412336D01*
X154734267Y-97412336D01*
X154600614Y-97448148D01*
X154480785Y-97517331D01*
X154382945Y-97615171D01*
X154313762Y-97735000D01*
X154277950Y-97868653D01*
X142624522Y-97868653D01*
X142599185Y-97774094D01*
X142530002Y-97654265D01*
X142432162Y-97556425D01*
X142312333Y-97487242D01*
X142178680Y-97451430D01*
X142040314Y-97451430D01*
X141973487Y-97469336D01*
X141906659Y-97487242D01*
X141821919Y-97536167D01*
X141772420Y-97549430D01*
X138079352Y-97549430D01*
X137966789Y-97549430D01*
X137858061Y-97578563D01*
X137858060Y-97578563D01*
X137858058Y-97578564D01*
X137760581Y-97634843D01*
X134251920Y-101143504D01*
X134197403Y-101171281D01*
X134181916Y-101172500D01*
X132950261Y-101172500D01*
X132892070Y-101153593D01*
X132871717Y-101133765D01*
X132870431Y-101132089D01*
X132870430Y-101132087D01*
X132795863Y-101057520D01*
X132757723Y-101035500D01*
X132704539Y-101004794D01*
X132704538Y-101004793D01*
X132704537Y-101004793D01*
X132602677Y-100977500D01*
X131713677Y-100977500D01*
X131608223Y-100977500D01*
X131506363Y-101004793D01*
X131506362Y-101004793D01*
X131506360Y-101004794D01*
X131506359Y-101004794D01*
X131415039Y-101057518D01*
X131340468Y-101132089D01*
X131287744Y-101223409D01*
X131287744Y-101223410D01*
X131287743Y-101223412D01*
X131287743Y-101223413D01*
X131260450Y-101325273D01*
X131260450Y-101938727D01*
X131275990Y-101996725D01*
X131287743Y-102040588D01*
X131313385Y-102085001D01*
X131326106Y-102144849D01*
X131313385Y-102183999D01*
X131287743Y-102228411D01*
X131270946Y-102291100D01*
X131260450Y-102330273D01*
X131260450Y-102943727D01*
X131287743Y-103045587D01*
X131306320Y-103077764D01*
X131310991Y-103085853D01*
X131313409Y-103097228D01*
X131320041Y-103106779D01*
X131319621Y-103126451D01*
X131323713Y-103145701D01*
X131318893Y-103160534D01*
X131318735Y-103167950D01*
X131315660Y-103176768D01*
X131285843Y-103228413D01*
X131258550Y-103330273D01*
X130186973Y-103330273D01*
X130200000Y-103200000D01*
X130200000Y-103094638D01*
X130200422Y-103085504D01*
X130208649Y-102996725D01*
X130219012Y-102884879D01*
X130219539Y-102880341D01*
X130336376Y-102042759D01*
X130337099Y-102038331D01*
X130492496Y-101207032D01*
X130493427Y-101202622D01*
X130665325Y-100471753D01*
X130666478Y-100467323D01*
X130800000Y-100000000D01*
X130836654Y-99853381D01*
X130837429Y-99850478D01*
X130919617Y-99561615D01*
X130920967Y-99557260D01*
X130929995Y-99530325D01*
X131189703Y-98755460D01*
X131191252Y-98751172D01*
X131419540Y-98161891D01*
X131423292Y-98153415D01*
X132771370Y-95457259D01*
X132775707Y-95449486D01*
X133080029Y-94957989D01*
X133082525Y-94954159D01*
X133156570Y-94846067D01*
X133560444Y-94256482D01*
X133563107Y-94252783D01*
X133589828Y-94217399D01*
X133878801Y-93834735D01*
X133928956Y-93799694D01*
X133990131Y-93800825D01*
X134038958Y-93837697D01*
X134056524Y-93886964D01*
X134062792Y-93970209D01*
X134062795Y-93970229D01*
X134125874Y-94303574D01*
X134172172Y-94453833D01*
X134195535Y-94529657D01*
X134225780Y-94627814D01*
X134275608Y-94742219D01*
X134361250Y-94938856D01*
X134530599Y-95232837D01*
X134530602Y-95232841D01*
X134731707Y-95506074D01*
X134731715Y-95506083D01*
X134962055Y-95755146D01*
X134962060Y-95755152D01*
X135213903Y-95972743D01*
X135218784Y-95976960D01*
X135498662Y-96168721D01*
X135798198Y-96328039D01*
X135798201Y-96328040D01*
X135798207Y-96328043D01*
X135881990Y-96361211D01*
X136113646Y-96452922D01*
X136441065Y-96541810D01*
X136776360Y-96593590D01*
X136945849Y-96600603D01*
X137115333Y-96607616D01*
X137115335Y-96607615D01*
X137115339Y-96607616D01*
X137453765Y-96583713D01*
X137787408Y-96522179D01*
X138112096Y-96423783D01*
X138423769Y-96289755D01*
X138718532Y-96121772D01*
X138804328Y-96059235D01*
X141565943Y-96059235D01*
X141565943Y-96197601D01*
X141601755Y-96331254D01*
X141670938Y-96451083D01*
X141768778Y-96548923D01*
X141888607Y-96618106D01*
X142022260Y-96653918D01*
X142022262Y-96653918D01*
X142160624Y-96653918D01*
X142160626Y-96653918D01*
X142294279Y-96618106D01*
X142414108Y-96548923D01*
X142511948Y-96451083D01*
X142581131Y-96331254D01*
X142616943Y-96197601D01*
X142616943Y-96059235D01*
X142581131Y-95925582D01*
X142563251Y-95894612D01*
X142532206Y-95840839D01*
X142518943Y-95791340D01*
X142518943Y-95326641D01*
X142537850Y-95268450D01*
X142547939Y-95256637D01*
X142930416Y-94874160D01*
X143313046Y-94491529D01*
X143367561Y-94463754D01*
X143427993Y-94473325D01*
X143471258Y-94516590D01*
X143480829Y-94577022D01*
X143478675Y-94587158D01*
X143459404Y-94659079D01*
X143459404Y-95756908D01*
X143446141Y-95806407D01*
X143395216Y-95894612D01*
X143373153Y-95976956D01*
X143359404Y-96028267D01*
X143359404Y-96166633D01*
X143395216Y-96300286D01*
X143464399Y-96420115D01*
X143562239Y-96517955D01*
X143682068Y-96587138D01*
X143815721Y-96622950D01*
X143815723Y-96622950D01*
X143954085Y-96622950D01*
X143954087Y-96622950D01*
X144087740Y-96587138D01*
X144207569Y-96517955D01*
X144305409Y-96420115D01*
X144374592Y-96300286D01*
X144410404Y-96166633D01*
X144410404Y-96028267D01*
X144374592Y-95894614D01*
X144367282Y-95881952D01*
X144323667Y-95806407D01*
X144310404Y-95756908D01*
X144310404Y-94932351D01*
X144329311Y-94874160D01*
X144339394Y-94862353D01*
X145204220Y-93997526D01*
X145258737Y-93969750D01*
X145319169Y-93979321D01*
X145362434Y-94022586D01*
X145373224Y-94067531D01*
X145373224Y-95747712D01*
X145359961Y-95797211D01*
X145311036Y-95881952D01*
X145299346Y-95925582D01*
X145275224Y-96015607D01*
X145275224Y-96153973D01*
X145311036Y-96287626D01*
X145380219Y-96407455D01*
X145478059Y-96505295D01*
X145597888Y-96574478D01*
X145731541Y-96610290D01*
X145731543Y-96610290D01*
X145869905Y-96610290D01*
X145869907Y-96610290D01*
X146003560Y-96574478D01*
X146123389Y-96505295D01*
X146221229Y-96407455D01*
X146290412Y-96287626D01*
X146326224Y-96153973D01*
X146326224Y-96015607D01*
X146290412Y-95881954D01*
X146289323Y-95880067D01*
X146241487Y-95797211D01*
X146228224Y-95747712D01*
X146228224Y-94217359D01*
X146247131Y-94159168D01*
X146257214Y-94147361D01*
X146914753Y-93489821D01*
X146969270Y-93462045D01*
X147029702Y-93471616D01*
X147072967Y-93514881D01*
X147083757Y-93559826D01*
X147083757Y-95738051D01*
X147070494Y-95787550D01*
X147021569Y-95872291D01*
X147015588Y-95894614D01*
X146985757Y-96005946D01*
X146985757Y-96144312D01*
X147021569Y-96277965D01*
X147090752Y-96397794D01*
X147188592Y-96495634D01*
X147308421Y-96564817D01*
X147442074Y-96600629D01*
X147442076Y-96600629D01*
X147580438Y-96600629D01*
X147580440Y-96600629D01*
X147714093Y-96564817D01*
X147833922Y-96495634D01*
X147931762Y-96397794D01*
X148000945Y-96277965D01*
X148036757Y-96144312D01*
X148036757Y-96005946D01*
X148000945Y-95872293D01*
X147983402Y-95841907D01*
X147952020Y-95787550D01*
X147938757Y-95738051D01*
X147938757Y-93706826D01*
X147957664Y-93648635D01*
X147967747Y-93636828D01*
X148525184Y-93079392D01*
X148571283Y-92999546D01*
X148616751Y-92958608D01*
X148677601Y-92952212D01*
X148730589Y-92982805D01*
X148753798Y-93033145D01*
X148753921Y-93033113D01*
X148754111Y-93033824D01*
X148755170Y-93036120D01*
X148755598Y-93039374D01*
X148784734Y-93148111D01*
X148835142Y-93235420D01*
X148841015Y-93245591D01*
X148875020Y-93279596D01*
X148902796Y-93334111D01*
X148904015Y-93349598D01*
X148904015Y-95745825D01*
X148890752Y-95795324D01*
X148841827Y-95880065D01*
X148820260Y-95960556D01*
X148806015Y-96013720D01*
X148806015Y-96152086D01*
X148841827Y-96285739D01*
X148911010Y-96405568D01*
X149008850Y-96503408D01*
X149128679Y-96572591D01*
X149262332Y-96608403D01*
X149262334Y-96608403D01*
X149400696Y-96608403D01*
X149400698Y-96608403D01*
X149534351Y-96572591D01*
X149654180Y-96503408D01*
X149752020Y-96405568D01*
X149821203Y-96285739D01*
X149857015Y-96152086D01*
X149857015Y-96013720D01*
X149821203Y-95880067D01*
X149815430Y-95870067D01*
X149772278Y-95795324D01*
X149759015Y-95745825D01*
X149759015Y-93075235D01*
X149759015Y-93075234D01*
X149729882Y-92966506D01*
X149676000Y-92873181D01*
X149673601Y-92869025D01*
X149673598Y-92869022D01*
X149639596Y-92835019D01*
X149635970Y-92827902D01*
X149629507Y-92823207D01*
X149622342Y-92801155D01*
X149611819Y-92780502D01*
X149610600Y-92765016D01*
X149610600Y-92615975D01*
X149629507Y-92557784D01*
X149679007Y-92521820D01*
X149740193Y-92521820D01*
X149789693Y-92557784D01*
X149795336Y-92566475D01*
X149841011Y-92645586D01*
X149841013Y-92645588D01*
X149841015Y-92645591D01*
X150585553Y-93390129D01*
X150613329Y-93444644D01*
X150614548Y-93460131D01*
X150614548Y-95735825D01*
X150601285Y-95785324D01*
X150552360Y-95870065D01*
X150537485Y-95925580D01*
X150516548Y-96003720D01*
X150516548Y-96142086D01*
X150552360Y-96275739D01*
X150621543Y-96395568D01*
X150719383Y-96493408D01*
X150839212Y-96562591D01*
X150972865Y-96598403D01*
X150972867Y-96598403D01*
X151111229Y-96598403D01*
X151111231Y-96598403D01*
X151244884Y-96562591D01*
X151364713Y-96493408D01*
X151462553Y-96395568D01*
X151531736Y-96275739D01*
X151567548Y-96142086D01*
X151567548Y-96003720D01*
X151531736Y-95870067D01*
X151515478Y-95841907D01*
X151482811Y-95785324D01*
X151469548Y-95735825D01*
X151469548Y-93310304D01*
X151488455Y-93252113D01*
X151537955Y-93216149D01*
X151599141Y-93216149D01*
X151638552Y-93240300D01*
X152542263Y-94144011D01*
X152570040Y-94198528D01*
X152571259Y-94214015D01*
X152571259Y-95754248D01*
X152557996Y-95803747D01*
X152507071Y-95891952D01*
X152488689Y-95960556D01*
X152471259Y-96025607D01*
X152471259Y-96163973D01*
X152507071Y-96297626D01*
X152576254Y-96417455D01*
X152674094Y-96515295D01*
X152793923Y-96584478D01*
X152927576Y-96620290D01*
X152927578Y-96620290D01*
X153065940Y-96620290D01*
X153065942Y-96620290D01*
X153199595Y-96584478D01*
X153319424Y-96515295D01*
X153417264Y-96417455D01*
X153486447Y-96297626D01*
X153522259Y-96163973D01*
X153522259Y-96025607D01*
X153486447Y-95891954D01*
X153480674Y-95881954D01*
X153435522Y-95803747D01*
X153422259Y-95754248D01*
X153422259Y-94065843D01*
X153441166Y-94007652D01*
X153490666Y-93971688D01*
X153551852Y-93971688D01*
X153591261Y-93995837D01*
X153863725Y-94268301D01*
X154329441Y-94734017D01*
X154357218Y-94788534D01*
X154358437Y-94804021D01*
X154358437Y-95718390D01*
X154345174Y-95767889D01*
X154296249Y-95852630D01*
X154285000Y-95894614D01*
X154260437Y-95986285D01*
X154260437Y-96124651D01*
X154296249Y-96258304D01*
X154365432Y-96378133D01*
X154463272Y-96475973D01*
X154583101Y-96545156D01*
X154716754Y-96580968D01*
X154716756Y-96580968D01*
X154855118Y-96580968D01*
X154855120Y-96580968D01*
X154988773Y-96545156D01*
X155108602Y-96475973D01*
X155206442Y-96378133D01*
X155275625Y-96258304D01*
X155311437Y-96124651D01*
X155311437Y-95986285D01*
X155275625Y-95852632D01*
X155269433Y-95841907D01*
X155226700Y-95767889D01*
X155213437Y-95718390D01*
X155213437Y-94529657D01*
X155198010Y-94472082D01*
X155198010Y-94472081D01*
X155184305Y-94420931D01*
X155184304Y-94420930D01*
X155184304Y-94420928D01*
X155128022Y-94323445D01*
X152656496Y-91851919D01*
X152628719Y-91797402D01*
X152627500Y-91781915D01*
X152627500Y-89546074D01*
X152646407Y-89487883D01*
X152676998Y-89460339D01*
X152688013Y-89453980D01*
X152762580Y-89379413D01*
X152815307Y-89288087D01*
X152842600Y-89186227D01*
X152842600Y-88191773D01*
X152815307Y-88089913D01*
X152814208Y-88088010D01*
X152762581Y-87998589D01*
X152762580Y-87998587D01*
X152688013Y-87924020D01*
X152684722Y-87922120D01*
X152596689Y-87871294D01*
X152596688Y-87871293D01*
X152596687Y-87871293D01*
X152494827Y-87844000D01*
X151986827Y-87844000D01*
X151881373Y-87844000D01*
X151779513Y-87871293D01*
X151779512Y-87871293D01*
X151779510Y-87871294D01*
X151747237Y-87889926D01*
X151687389Y-87902645D01*
X151648243Y-87889926D01*
X151592587Y-87857793D01*
X151490727Y-87830500D01*
X150982727Y-87830500D01*
X150877273Y-87830500D01*
X150833981Y-87842100D01*
X150775411Y-87857793D01*
X150723003Y-87888051D01*
X150663154Y-87900772D01*
X150624005Y-87888051D01*
X150591690Y-87869394D01*
X150591687Y-87869393D01*
X150489827Y-87842100D01*
X149981827Y-87842100D01*
X149876373Y-87842100D01*
X149774513Y-87869393D01*
X149732598Y-87893592D01*
X149672751Y-87906313D01*
X149633602Y-87893592D01*
X149591687Y-87869393D01*
X149489827Y-87842100D01*
X148981827Y-87842100D01*
X148876373Y-87842100D01*
X148774513Y-87869393D01*
X148732598Y-87893592D01*
X148672751Y-87906313D01*
X148633602Y-87893592D01*
X148591687Y-87869393D01*
X148489827Y-87842100D01*
X147981827Y-87842100D01*
X147876373Y-87842100D01*
X147774513Y-87869393D01*
X147732598Y-87893592D01*
X147672751Y-87906313D01*
X147633602Y-87893592D01*
X147591687Y-87869393D01*
X147489827Y-87842100D01*
X146981827Y-87842100D01*
X146876373Y-87842100D01*
X146825443Y-87855746D01*
X146774511Y-87869393D01*
X146721774Y-87899841D01*
X146661925Y-87912562D01*
X146622776Y-87899841D01*
X146584589Y-87877794D01*
X146584588Y-87877793D01*
X146584587Y-87877793D01*
X146482727Y-87850500D01*
X146482725Y-87850500D01*
X146269289Y-87850500D01*
X146247169Y-87846100D01*
X146119031Y-87846100D01*
X146096911Y-87850500D01*
X145974727Y-87850500D01*
X145869273Y-87850500D01*
X145806931Y-87867204D01*
X145767408Y-87877794D01*
X145767408Y-87877795D01*
X145736322Y-87895742D01*
X145676474Y-87908462D01*
X145637326Y-87895742D01*
X145591687Y-87869393D01*
X145489827Y-87842100D01*
X144981827Y-87842100D01*
X144876373Y-87842100D01*
X144774513Y-87869393D01*
X144774512Y-87869393D01*
X144774510Y-87869394D01*
X144774509Y-87869394D01*
X144683189Y-87922118D01*
X144608618Y-87996689D01*
X144555894Y-88088009D01*
X144555894Y-88088010D01*
X144555893Y-88088012D01*
X144555893Y-88088013D01*
X144528600Y-88189873D01*
X144528600Y-89184327D01*
X144555893Y-89286187D01*
X144555894Y-89286189D01*
X144555894Y-89286190D01*
X144608618Y-89377510D01*
X144608620Y-89377513D01*
X144683187Y-89452080D01*
X144706100Y-89465309D01*
X144747040Y-89510775D01*
X144755600Y-89551044D01*
X144755600Y-91798815D01*
X144736693Y-91857006D01*
X144726604Y-91868819D01*
X141828952Y-94766472D01*
X141828951Y-94766471D01*
X141749358Y-94846065D01*
X141749356Y-94846067D01*
X141693077Y-94943545D01*
X141693076Y-94943547D01*
X141693076Y-94943548D01*
X141664466Y-95050326D01*
X141663943Y-95052277D01*
X141663943Y-95791340D01*
X141650680Y-95840839D01*
X141601755Y-95925580D01*
X141580818Y-96003720D01*
X141565943Y-96059235D01*
X138804328Y-96059235D01*
X138886293Y-95999491D01*
X138922991Y-95972743D01*
X138987695Y-95925580D01*
X138992700Y-95921932D01*
X139242845Y-95692735D01*
X139465840Y-95437046D01*
X139658898Y-95158061D01*
X139819604Y-94859268D01*
X139945949Y-94544402D01*
X140036355Y-94217399D01*
X140089690Y-93882348D01*
X140103484Y-93582651D01*
X140105289Y-93543440D01*
X140105289Y-93543435D01*
X140082957Y-93204917D01*
X140082956Y-93204915D01*
X140082956Y-93204904D01*
X140022970Y-92870980D01*
X140022387Y-92869025D01*
X139991394Y-92765016D01*
X139926082Y-92545839D01*
X139793502Y-92233547D01*
X139626888Y-91938008D01*
X139576946Y-91868819D01*
X139428322Y-91662915D01*
X139200286Y-91411708D01*
X139200285Y-91411707D01*
X138945643Y-91187537D01*
X138945641Y-91187535D01*
X138945636Y-91187531D01*
X138945629Y-91187526D01*
X138945620Y-91187519D01*
X138667561Y-90993188D01*
X138667555Y-90993184D01*
X138667550Y-90993181D01*
X138501187Y-90902705D01*
X138369511Y-90831093D01*
X138156418Y-90744436D01*
X138055229Y-90703286D01*
X138055226Y-90703285D01*
X138055221Y-90703283D01*
X137728651Y-90611364D01*
X137728640Y-90611362D01*
X137393852Y-90556475D01*
X137393843Y-90556474D01*
X137390677Y-90556314D01*
X137333518Y-90534485D01*
X137300106Y-90483228D01*
X137303204Y-90422121D01*
X137336027Y-90378437D01*
X137750295Y-90065598D01*
X137753982Y-90062944D01*
X138321899Y-89673912D01*
X138325290Y-89671692D01*
X139227102Y-89108060D01*
X139231279Y-89105593D01*
X139601951Y-88899131D01*
X139605786Y-88897106D01*
X140958765Y-88220616D01*
X140962974Y-88218635D01*
X141455936Y-88000971D01*
X141460110Y-87999242D01*
X141814515Y-87861945D01*
X141818913Y-87860361D01*
X143196423Y-87401192D01*
X143203671Y-87399082D01*
X145159466Y-86910133D01*
X145165167Y-86908889D01*
X145535831Y-86839599D01*
X145540259Y-86838876D01*
X146377850Y-86722037D01*
X146382374Y-86721512D01*
X147224458Y-86643482D01*
X147228963Y-86643170D01*
X148073702Y-86604115D01*
X148078274Y-86604010D01*
X148923926Y-86604010D01*
X148928497Y-86604115D01*
G37*
%TD.AperFunction*%
M02*
